<?xml version="1.0" encoding="utf-8"?>
<!-- Generator: Adobe Illustrator 28.0.0, SVG Export Plug-In . SVG Version: 6.00 Build 0)  -->
<svg version="1.1" id="_Слой_1" xmlns="http://www.w3.org/2000/svg" xmlns:xlink="http://www.w3.org/1999/xlink" x="0px"
	 y="0px" viewBox="0 0 303.7 116" style="enable-background:new 0 0 303.7 116;" xml:space="preserve">
<style type="text/css">
	.st0{fill:#F1EFEE;}
</style>
<g>
	<path class="st0" d="M56.1,94.5c1-0.7,2-1.4,2.9-2.2c2.4-2.1,4.7-4.2,7.1-6.2c1.9-1.6,2.8-3.8,4.1-5.8c2.1-3.3,2.1-7,1.9-10.8
		c-0.1-1.9-0.5-3.5-1.5-5.2c-1.3-2.3-4.3-3.1-6.5-1.7c-1,0.7-2.1,0.3-2.7-1.1c-0.7-1.5-0.1-3.5,1-4.8c1-1.2,1.5-2.7,2.3-4
		c0.5-0.9,1.1-1.8,1.7-2.7c0.3-0.6,0.7-1.1,1-1.7c1.2-2.8,2.3-5.7,3.5-8.5c1.5-3.5,3.2-6.9,4.7-10.3c0.9-1.9,0.9-3.9,0.5-5.9
		c-0.4-2-3.2-2.9-5-2.2c-2.3,1-3.2,3.3-5,4.7c-1.1,0.8-2.2,1.7-3.2,2.5c-0.1,0.1-0.3,0.2-0.3,0.3c-0.2,1.4-1.5,1.9-2.4,2.7
		c-1,0.9-2,1.9-2.8,3c-1,1.4-1.9,2.9-2.9,4.4c-0.3,0.5-0.8,1-1.1,1.6c-0.8,1.6-1.6,3.3-2.4,4.9c-0.1,0.2-0.1,0.5-0.3,0.8
		c-1.2,1.9-2.4,3.7-3.5,5.6c-0.3,0.6-0.6,1.2-0.8,1.8c-0.5,1.5-0.8,3.1-1.4,4.6c-0.4,1-0.7,2.4-2.1,2.3c-1.8,0-2.8-1.4-3.3-2.9
		c-0.4-1.6,0.4-2.7,1.1-3.8c1.8-3.1,3.7-6.1,5.7-9.1c1.6-2.3,3.5-4.4,5.1-6.6c0.9-1.2,1.5-2.6,2.2-3.9c0.2-0.3,0.3-0.6,0.5-0.8
		c1.1-1.1,2.2-2.2,3.4-3.3c0.5-0.5,1.3-0.7,1.8-1.2c0.9-0.9,1.6-1.8,2.4-2.7c1.5-1.6,2.8-3.3,4.4-4.6c1.4-1.1,3.1-2.2,4.8-2.4
		c2.1-0.2,4.4,0.3,5.8,2.5c1,1.6,2.2,3.1,2.1,5.1c-0.1,1.7-0.2,3.5-0.7,5.2c-0.6,2-1.4,4-2.6,5.6c-2.7,3.7-3.5,8.2-5.8,12
		c-1.1,1.9-1.9,4-2.7,6.1c-0.7,1.6-0.2,2,1.4,2.5c1.1,0.3,2,1.2,3,1.9c2.4,1.6,2.6,4.3,2.9,6.8c0.2,1.9,0.3,3.9,0.4,5.9
		c0.2,3.2-0.4,6.2-2.1,9c-0.3,0.6-0.4,1.3-0.8,1.9c-0.6,1-1.2,1.9-1.8,2.9c-0.7,1.1-1.5,2.1-2.2,3.1c-0.1,0.1,0,0.4,0.1,0.6
		c0.6,1,1.3,2,2,3.1c0.5,0.8,1,0.8,1.6,0.2c0.9-1.2,2.1-2.1,2.4-3.9c0.4-2.2,1.6-4.2,2.5-6.3c0.1-0.2,0.2-0.3,0.2-0.4
		c-0.2-2-0.4-4.1-0.6-6.1c-0.1-0.4-0.3-0.8-0.3-1.2c0-0.5,0.2-1,0.3-1.5c0.5,0.3,1,0.7,1.5,1c0.1,0,0.1,0.2,0.1,0.2
		c0.3,2.2,0.7,4.5,0.9,6.7c0.4,5.1-1.2,9.7-4.2,13.8c-2.6,3.6-7.7,5.5-12,4.4c-0.7-0.2-1.4-0.8-1.9-1.3c-1.3-1.2-2.5-2.1-4.4-1.1
		c-0.6,0.3-1.5,0.1-2.3,0.1c-1.5-0.1-3.1-0.2-4.6-0.4c-0.6-0.1-1.2-0.3-1.8-0.5c-2-1-3.3-2.6-3.7-4.8c-0.1-0.5,0.2-1,0.2-1.5
		c0.5,0.2,1,0.4,1.3,0.7c0.3,0.2,0.5,0.6,0.7,1c1,1.7,3.2,2.7,5.1,2.2c1.8-0.5,4-5.7,3.1-7.2c-1.1-2-4.5-2.4-6.2-0.8
		c-1,0.9-2,1.8-3,2.8c-0.6,0.5-1,0.3-1-0.4c0-1,0.2-2,0.5-2.9c0.8-2,1.8-3.9,2.7-5.9c0.5-1,0.7-2.2,1.4-3.1c0.3-0.5,1.4-0.9,1.9-0.8
		c1,0.3,2.2,0.8,1.6,2.2c-0.3,0.7-1,1.3-1.4,2c-0.2,0.5-0.2,1.1-0.3,1.6c0.5,0,1,0.2,1.4,0c0.7-0.3,1.1-0.3,1.5,0.4
		c0.2,0.3,0.6,0.5,0.9,0.7c4.1,1.7,3.8,5.1,2.5,7.8c-0.4,0.9-0.8,1.9-1.2,2.8C55.7,94.2,55.9,94.3,56.1,94.5L56.1,94.5z M63.8,99.2
		c0.6-0.3,1.1-0.4,1.4-0.7c0.7-0.9,1.4-1.9,2.1-2.8c0.6-0.8,0.5-1.5-0.2-2.2c-0.7-0.6-1.5-0.9-2.3-0.2c-0.8,0.6-1.5,1.3-2.3,1.8
		c-1,0.7-1.2,1.7-0.6,2.6C62.2,98.4,63.1,98.7,63.8,99.2L63.8,99.2z"/>
	<path class="st0" d="M35.3,43.3c-0.1-1.3-0.1-2.6-0.2-3.8c-0.3-2.2-0.7-4.5-0.9-6.7c-0.3-3.3,0.5-6.5,0.9-9.7
		c0.1-0.4,0.3-0.8,0.5-1.2c1.4-2.3,1.4-4.7,0-7c-0.5-0.8-1.7-1.3-2.5-2c-0.5-0.4-1-0.9-1.6-1.5c3.6-0.9,6.3,0.7,7.4,4.8
		c0.8,3.1,0.2,6-0.6,8.9c-0.2,0.7-0.2,1.5-0.2,2.3c-0.1,3.1-0.3,6.2-0.4,9.3c0,2.3,0.1,4.7,0.2,7c0,1.5,0,3,0.1,4.4
		c0,0.7,0.4,1.4,0.3,2c0,0.6-0.3,1.2-0.5,1.8c-0.5-0.2-1.2-0.2-1.4-0.5c-1.3-2-2.4-4.1-3.7-6.1c-1-1.6-2.2-3.2-3.4-4.7
		c-1-1.2-2-2.2-3.2-3.2c-0.5-0.4-1.4-0.5-2.1-0.7c-0.1,0-0.5,0.7-0.4,1c0.1,0.5,0.5,0.8,0.9,1.2c1,1.3,0.5,2.5-0.2,3.6
		c-0.9,1.3-2.2,0.8-3.4,0.7c-1.1-0.1-1.9-1-2.1-2.1c0-0.1,0-0.3,0-0.3c-0.8-1.1-0.9-2.1,0.5-3.1c-0.4-0.2-0.7-0.3-0.8-0.2
		c-1.5,1-2.9,1.9-4.3,3c-0.2,0.2,0,1.1,0.2,1.6c0.5,1,1.1,2,1.7,3c1.9,3,2.4,6.3,1.8,9.8c-0.6,3.8-1.5,7.7-2.1,11.5
		c-0.4,2.2-0.7,4.5-0.7,6.8c0.1,2.6,1.2,4.9,3.1,6.8c1.5,1.5,3,2.9,4.5,4.4c1.6,1.5,3.3,3,4.7,4.6c1,1.1,1.5,2.5,2.4,3.8
		c0.4,0.5,1,0.8,1.5,1.2c0.4,0.3,0.9,0.6,1.1,0.9c1.2,1.9,2.9,2.9,5,3.6c1.4,0.4,2.6,1.3,3.9,2c0.2,0.1,0.3,0.4,0.5,0.4
		c0.8,0.2,1.5,0.7,1.2,1.5c-0.3,0.7-1,1.4-1.7,1.7c-1.6,0.9-3.2,0.6-4.7-0.5c-2.2-1.6-4.6-3-6.6-4.9c-1.5-1.4-2.4-3.4-3.5-5.1
		c-1.2-1.8-2.2-4-3.8-5.3c-1.7-1.4-2.5-3.6-4.8-4.5c-1-0.4-1.6-2.2-2.3-3.4c-2.3-3.7-2.6-7.8-2.4-11.9c0.2-4.3,1-8.6,1.3-12.9
		c0.1-1.7-0.5-3.3-0.6-5c-0.2-2.4-1.4-4.3-2.7-6.2c-0.6-0.8-1.1-1.7-1.7-2.5C9,41,8.9,40.4,9.7,39.7c1.4-1.3,2.5-3,3.9-4.3
		c1.2-1,2.4-2.2,4.2-2.3c2.1-0.2,1.8-0.3,1.9-2.3c0.1-2.2,0.6-4.5,1.3-6.5c1.1-2.9,2.5-5.5,3.9-8.3c0.2-0.4,0.6-0.6,0.9-0.9
		c0.3,0.4,0.7,0.9,0.8,1.3c0,0.7-0.2,1.5-0.4,2.2c-0.5,1.8-1,3.7-1.5,5.5c-0.6,1.9-1.4,3.7-2,5.6c-0.4,1.2,0.3,2.8,1.5,3.1
		c4.1,1.1,6.2,4.3,8.3,7.6c0.7,1.1,1.5,2,2.2,3C34.9,43.4,35.1,43.4,35.3,43.3L35.3,43.3z"/>
	<path class="st0" d="M29.3,12.6c-0.3,0.2-0.5,0.4-0.7,0.6c-0.1-0.2-0.3-0.4-0.3-0.5c0-0.2,0.2-0.4,0.4-0.5
		C28.9,12.2,29.1,12.4,29.3,12.6L29.3,12.6z"/>
	<path class="st0" d="M63.8,99.2c-0.7-0.4-1.6-0.8-2-1.4c-0.5-0.9-0.3-1.9,0.6-2.6c0.8-0.6,1.5-1.2,2.3-1.8c0.8-0.7,1.6-0.4,2.3,0.2
		c0.7,0.7,0.8,1.4,0.2,2.2c-0.7,0.9-1.3,1.9-2.1,2.8C64.9,98.8,64.4,98.9,63.8,99.2L63.8,99.2z"/>
</g>
<g>
	<path class="st0" d="M97.5,52.7c0,0-0.2,0-0.3,0c0,0-0.2,0-0.2,0c-0.1,0-0.1,0-0.2-0.2c0,0-0.2-0.1-0.3-0.1h-0.2l0.1-0.2
		c0.1-0.1,0-0.2-0.1-0.4l-0.1-0.2l-0.3,0.4l-0.5,0l-0.1,0.3c-0.1,0.2-0.2,0.2-0.2,0.2c-0.1,0-0.7-0.4-0.7-0.5
		c-0.1-0.2-0.1-0.3-0.2-0.3s-0.1-0.2-0.1-0.3c0-0.1-0.1-0.2-0.2-0.2c-0.1,0-0.4-0.4-0.4-0.6c0,0,0-0.2-0.1-0.2
		c-0.1,0-0.1-0.4-0.1-0.7c-0.1-0.8-0.1-0.9-0.3-0.9l-0.1,0l0.1-0.4c0.1-0.3,0.1-0.6,0.1-0.9c0-0.4-0.1-0.6-0.2-0.7
		c-0.1,0-0.2-0.4-0.2-0.9l-0.1-0.5c0-0.4,0.1-0.9,0.4-1.1c0.1,0,0.2-0.3,0.2-0.3c0-0.1,0.1-0.2,0.1-0.2c0.2,0,0.2-0.5,0.1-0.7
		c0,0-0.1-0.1-0.1-0.3l-0.2-0.3l-0.2-0.2l0.1-0.5c0.1-0.2,0.2-0.5,0.2-0.8l0.1-0.3l-0.4-0.2c-0.3,0-0.5-0.2-0.5-0.2
		s-0.2-0.5-0.2-1.4c0.1-0.5-0.1-1.6-0.2-2.1c-0.1-0.2-0.1-0.5-0.1-0.7c0-0.1,0-0.4-0.1-0.6C92,35.4,92,34.9,92,34.5l-0.1-0.8
		l-0.3-0.5l0.1-1l-0.1-0.4L91.4,31c-0.1-0.3-0.2-0.5-0.2-0.5s-0.1-0.2-0.1-0.3s-0.1-0.3-0.1-0.4l-0.2-0.1v-0.7
		c0.1-0.4,0.1-0.8,0-0.9v-0.4l0.1-0.3l-0.2-0.2c0,0-0.2-0.3-0.2-0.4l-0.1-0.6c-0.1-0.3-0.1-0.5-0.1-0.7v-0.2l-0.2-0.2
		c-0.2-0.2-0.3-0.5-0.2-0.7c0-0.2-0.1-0.3-0.1-0.3c-0.1-0.1-0.1-0.4-0.1-0.6c-0.1-0.3-0.1-0.8-0.1-1c-0.1-0.3-0.1-0.6-0.1-0.8v-0.2
		c0-0.2-0.1-0.4-0.1-0.6c-0.1-0.3-0.1-0.6-0.1-0.8c0-0.2,0-0.4-0.1-0.6c-0.1-0.2-0.1-0.6-0.1-1.3l-0.1-1.2v-0.5
		c0-0.3-0.1-0.5-0.3-0.6c-0.3,0-0.2-0.2,0.1-0.2h0.1c0.1,0,0.4-0.2,0.4-0.2c0.2-0.1,0.4-0.2,0.6-0.2l0.4-0.1l0.6-0.6h0.4
		c0.3,0,0.7-0.2,0.9-0.3l0.2-0.2h0.8l0.3,0.2c0.2,0.1,0.4,0.2,0.6,0.3s0.4,0.2,0.5,0.3c0.1,0.2,0.3,0.4,0.5,0.5
		c0.2,0.1,0.4,0.3,0.5,0.3c0.1,0.1,0.5,0.3,0.9,0.5c1,0.5,1.5,0.9,1.6,1.1c0.1,0.2,0.1,0.3,0.2,0.4c0.1,0.1,0.3,0.3,0.4,0.6l0.2,0.5
		v0.6c0,0.3-0.1,0.7-0.1,1.1c-0.1,0.8-0.2,2.1-0.2,5.2v0.4c0,0.4,0,0.6,0.1,0.8s0.1,0.6,0.1,1.2l0.1,2.1l0.2,1.9
		c0.1,0.4,0.1,0.7,0.1,0.8v0l0.2,0c0.1,0,0.3-0.4,0.5-0.9c0.8-1.6,1.3-2.5,1.5-2.7c0.1,0,0.3-0.2,0.4-0.2l0.2-0.2l0.3-0.3
		c0.3-0.5,0.8-1.7,1.1-2.4c0.1-0.3,0.4-0.9,0.6-1.2c0.2-0.4,0.4-0.9,0.5-1c0.2-0.5,0.5-1,0.6-1h0.1l0.1-0.4c0-0.4,0.2-0.8,0.5-1.3
		c0.1-0.2,0.2-0.5,0.2-0.6c0-0.3,0.1-0.5,0.3-0.8c0.1,0,0.1-0.1,0.1-0.2c-0.1,0,0.3-0.5,0.6-0.6h0.2c0.2,0,0.4,0,0.5,0.2
		c0.2,0.2,0.3,0.2,0.6,0l0.2-0.2l0.2,0c0,0,0.2,0.1,0.3,0.1h0.3l0.3-0.2c0.4-0.4,0.5-0.6,0.5-0.8c0,0,0.1-0.2,0.2-0.3
		c0.3-0.3,0.8-1,0.8-1s0.1-0.2,0.2-0.3l0.2-0.3l0.3,0c0.4,0.3,0.6,0.2,0.8,0s0.6-0.4,0.8-0.4c0.1,0,0.3,0.1,0.4,0.2
		c0.1,0,0.3,0,0.5,0.1h0.3l0.1,0.5l0.2,0.1c0.2,0.1,0.3,0.2,0.4,0.2c0.1,0,0.2,0,0.3,0.2c0.1,0.1,0.2,0.3,0.3,0.3
		c0.1,0,0.2,0.2,0.3,0.3l0.2,0.3c0,0.2,0.1,0.3,0.1,0.4c0.1,0.2,0.2,1.2,0.2,1.9v0.9c0,0.6,0,0.8,0.1,0.8c0.1,0.2,0.2,0.9,0.2,1
		c0,0,0,0.3,0.1,0.6c0.1,0.3,0,0.5,0,0.6l-0.1,0.2l0.1,0.3c0.1,0.2,0.2,0.4,0.2,0.4c0,0,0,0.2-0.1,0.4c-0.1,0.1-0.2,0.4-0.2,0.4v0.3
		l0.3,0.1l-0.1,1.2c0,0.6-0.1,1.2,0,1.3c0.1,0.1,0.1,0.2,0.1,0.5v0.2h0.3l-0.1,0.1l-0.1,0.3v0.2c0,0.3,0.1,0.8,0.2,1l0.1,0l-0.4,0.2
		v0.3c0.1,0.1,0,0.3,0,0.4l-0.1,0.1l0.1,0.2c0.1,0.1,0.2,0.2,0.2,0.3l0.1,0l-0.1,0.5c0.1,0.4,0.1,1.5,0.1,1.8c0,0.1,0.1,0.2,0.1,0.3
		c0.1,0.1,0.1,0.5,0.2,1c0,0,0.1,0.5,0,0.8l0.1,0.5l0.1,0.1c0.1,0,0.1,0.1,0.1,0.3c0,0.3,0.2,0.3,0.3,0.1c0.1-0.3,0.3-0.2,0.3,0
		c0.1,0.1,0.1,0.5,0.1,0.6c0.2,0.5,0.3,0.7,0.7,0.9h0.3l0.3-0.2c0.1-0.1,0.3-0.3,0.3-0.5c0.1-0.2,0.1-0.3,0.2-0.3
		c0.1,0,0.2,0.3,0.2,0.5l-0.1,0.2h0.2c0.1,0,0.3,0,0.4,0c0.2-0.2,0.3-0.2,0.4,0c0.2,0.4,0.3,0.6,0.4,0.6c0.1,0,0.1,0,0.2,0l0.1,0
		v0.1c0.1,0,0.1,0.3,0.1,0.5c0,0.1,0.1,0.4,0.2,0.4l0.1,0.2l-0.2,0.6l0.1,0.3l-0.4,0.5v0.2c0.1,0,0.1,0.2,0.2,0.3
		c0.1,0,0.2,0.3,0.2,0.5c0,0.2-0.1,0.4-0.1,0.6c-0.1,0.6-0.2,1.5-0.1,1.5c0.1,0.1,0.7-1.1,0.8-2c0.1-0.4,0.1-0.8,0.2-0.9
		c0.2-0.2,0.2-0.5,0.3-0.8l0.1-0.6l0.1-0.2l0.1,0.1c0.1,0.1,0.4,0.1,0.5-0.1l0.2-0.5l0.2-0.3l0.2-1.1c0-0.6,0.1-1.2,0.1-1.3l0.2-0.6
		c0.1-0.3,0.2-0.5,0.2-0.7c0.1,0,0.1-0.4,0.1-0.6c0-0.3,0.1-0.5,0.2-0.6l0.4-1.2l0.3-0.9l-0.2-0.5l-0.2-0.1
		c-0.1-0.1-0.3-0.2-0.3-0.2c-0.1,0.1-0.3,0.6-0.3,0.9c0,0.3,0,0.4-0.1,0.4c-0.1,0-0.1,0.2-0.2,0.3c0,0.1-0.1,0.2-0.1,0.4
		c-0.2,0.3-0.3,0.7-0.4,1.1c-0.1,0.4-0.3,0.7-0.4,0.6c-0.1,0-0.4,0.2-0.6,0.4l-0.3,0.2l-0.2-0.1h-0.1c-0.2,0-0.3,0.1-0.3,0.3v0.1
		l-0.1-0.2c0-0.2-0.1-0.3-0.2-0.2c-0.1,0-0.3,0-0.5,0c-0.4,0-0.5,0-0.5,0.3c0,0.1-0.6,0.7-0.7,0.7c-0.1,0-0.1-0.1-0.2-0.2l-0.1-0.3
		c-0.1,0-0.1-0.1-0.1-0.3c0-0.2,0.1-0.4,0.1-0.7c0.1-0.3,0.1-0.8,0.1-1.1v-0.8l0.2-0.1c0.1-0.1,0.2-0.3,0.2-0.4
		c0-0.2,0.1-0.3,0.3-0.4l0.2-0.1l0.2-0.5l0.3-0.8c0.1,0,0.1-0.3,0.1-0.4c-0.1-0.2,0-0.4,0.1-0.5s0.1-0.6,0.2-0.8s0.2-0.5,0.2-0.7
		l0.5-1.9c0-0.2,0.1-0.5,0.2-0.8c0.1-0.3,0.2-0.6,0.2-0.7c0-0.2,0.1-0.4,0.1-0.6c0.2-0.4,0.3-1.2,0.5-1.7l0.2-1.3l0.1-1l0.4-0.5
		l-0.1-0.8c0-0.5,0-0.9,0.1-1l0.1-0.1v-0.6c-0.1-0.3-0.1-0.8-0.1-1l0.1-0.4l0.1,0c0.2,0,0.6-0.3,0.6-0.4s0.2-0.2,0.4,0
		c0.3,0.2,0.5,0.2,0.8,0c0.1-0.2,0.3-0.3,0.5-0.3s0.3-0.1,0.4-0.1c0.3,0.2,0.9,0.2,1.1,0.2l0.3,0l0.2,0.2c0.1,0.2,0.3,0.3,0.5,0.4
		c0.1,0,0.2,0.1,0.2,0.1c0,0,0.2,0.2,0.3,0.4c0.3,0.2,0.4,0.3,0.5,0.3c0.1,0,0.2-0.1,0.4-0.3c0.1,0,0.2-0.1,0.2-0.1
		c0.2,0,0.1,0.3-0.2,0.3l-0.2,0v0.3c-0.1,0.3,0,0.4,0.1,0.5c0.1,0.2,0.3,0.2,0.4,0.1c0,0,0.1-0.1,0.1-0.1c0.1,0,0.1,0.2-0.1,0.3
		l-0.1,0l0.1,0.1c0.1,0,0.2,0.2,0.3,0.2c0.3,0,0.4,0.2,0.4,0.4c0,0,0.1,0.2,0.2,0.3c0.1,0.2,0,0.3,0,0.4c-0.1,0.2,0.1,0.2,0.4,0
		l0.4-0.3c0.1,0,0,0.2-0.1,0.3c-0.1,0.2-0.1,0.5-0.1,0.8c-0.1,0.2-0.1,0.5-0.2,0.6c-0.1,0-0.1,0.3-0.1,0.4c0.1,0.1,0,0.3-0.1,0.4
		l-0.1,2.1c0.1,1.1-0.4,3.4-0.8,4.7c-0.3,1.2-0.6,1.7-1.1,2.2c-0.2,0.1-0.3,0.3-0.3,0.4c-0.1,0-0.2,0.2-0.4,0.4
		c-0.4,0.3-0.6,0.7-0.7,0.9v0.4c0,0.1-0.1,0.3-0.1,0.3l-0.1,0.1l0.1,0.1c0.1,0.1,0.1,0.2-0.1,0.3c-0.2,0-0.2,0.4-0.1,0.7l0.1,0.3
		l-0.3,0.3l0.1,0.4l-0.2,0.3c-0.1,0.3-0.2,0.4-0.2,0.4c0,0,0,0.1-0.1,0.2c-0.2,0.3-0.4,1.2-0.4,1.9c0,0.3-0.1,0.5-0.1,0.5
		c-0.1,0-0.2,0.3-0.3,0.6c-0.1,0.3-0.2,0.6-0.3,0.6c-0.1,0-0.1,0-0.1,0.1s0.1,0.1,0.1,0.2c0,0.3-0.1,0.6-0.3,0.7
		c-0.1,0-0.2,1.1-0.3,2c0,0.4-0.1,0.6-0.2,0.8c-0.1,0-0.2,0.4-0.2,1.1c-0.2,1.1-0.3,1.9-0.4,1.9l-0.1,0.3c0,0.3-0.2,0.9-0.3,1.3
		l-0.1,0.2l-0.2,0c-0.1,0-0.2,0.1-0.3,0.3l-0.2,0.1c-0.2,0-0.2,0.2-0.3,0.8c0,0.3-0.1,0.6-0.1,0.6s-0.3,0-0.8-0.2l-0.2-0.2l0.1-0.2
		v0c0-0.2-0.4,0.1-0.4,0.1l-0.3,0.1l-0.1-0.2c-0.1-0.2-0.2-0.3-0.3,0c0,0.1-0.1,0.1-0.1,0.1h-0.1v-0.5c0-0.4-0.3-0.7-0.9-0.8
		c-0.3,0-0.2-0.3-0.2-0.3l0.3-0.6V49l-0.3,0.2l-0.1-0.2c-0.1-0.1-0.4-0.2-0.4,0.1c0,0.2-0.1,0.3-0.1,0.3c-0.1,0-0.2,0.2-0.2,0.2
		s-0.1,0.2-0.2,0.4l-0.2,0.3l0.2,0.2c0,0,0.1,0.2,0.2,0.2c0,0,0.2,0.1,0.2,0.3l0.1,0.3l0.5,0.2l-0.1,0c-0.1,0-0.1,0-0.1,0
		c-0.2,0-0.4-0.2-1-0.7c-0.1,0-0.2-0.2-0.3-0.3c-0.2-0.2-0.3-0.4-0.4-0.5c-0.1,0-0.1-0.1-0.1-0.2l-0.1-0.4l-0.1-0.2l0.1,0.1
		c0,0,0.4,0.2,0.5,0c0,0,0.2-0.1,0.2-0.1h0.2v-0.3c-0.1-0.1-0.1-0.3-0.1-0.5c0-0.3-0.2-0.5-0.3-0.2c-0.1,0.1-0.1,0.1-0.3,0
		c-0.1,0-0.1-0.1-0.1-0.4c0-0.2-0.1-0.4-0.1-0.6l-0.1-0.3l0.1,0c0.1,0,0.3-0.1,0.3-0.1l0.1-0.1l-0.4-0.4c-0.1-0.2-0.3-0.5-0.4-0.6
		c-0.1-0.2-0.2-0.4-0.3-0.4s-0.2-0.3-0.3-0.4c-0.1-0.3-0.3-0.6-0.4-0.8l-0.3-0.3l-0.1,0c-0.2,0-0.5-0.2-0.6-0.5
		c-0.1-0.2-0.1-0.3-0.2-0.4c-0.1-0.1-0.2-0.2-0.2-0.3s-0.1-0.3-0.1-0.3c-0.1,0-0.2-0.2-0.2-0.3s-0.1-0.2-0.1-0.3
		c-0.1-0.1-0.5-1.3-0.5-1.7l-0.1-0.3l0.2-0.1c0.1,0,0.1-0.2,0.1-0.2c0-0.2-0.3-0.4-0.4-0.5c-0.2,0-0.3-0.2-0.4-0.9l-0.2-0.8
		c-0.2-0.9-0.3-2.1-0.2-2.1c0,0,0.1,0,0.1,0l-0.1,0l-0.1,0l-0.2-0.6c0-0.3-0.1-0.6-0.2-0.8c0-0.1-0.1-0.3-0.2-0.4
		c-0.1,0-0.1,0-0.1-0.1s-0.1-0.1-0.1-0.2c-0.1,0-0.2-0.2-0.2-0.3c-0.1-0.2-0.2-0.3-0.2-0.3c-0.1,0-0.2-0.1-0.2-0.1
		c-0.1,0-0.2,0-0.4,0.2c-0.3,0.2-0.6,0.5-1.2,0.7c-0.2,0-0.4,0.3-0.6,0.4c-0.2,0-0.4,0.1-0.4,0.1c-0.1,0-0.9,0.6-0.9,0.8
		c0,0-0.2,0.2-0.3,0.5l-0.3,0.3l-0.1,0.5c-0.1,0.3-0.2,0.8-0.5,1.1l-0.4,0.9c-0.1,0.2-0.2,0.5-0.3,0.6l-0.3,0.9
		c-0.1,0.3-0.3,0.5-0.3,0.6s-0.1,0.1-0.1,0.2v0c0,0.1-0.1,0.3-0.2,0.5l-0.3,0.5c-0.1,0-0.1,0.3-0.1,0.4c0,0.2-0.1,0.6-0.3,0.9
		l-0.4,0.9c-0.1,0.3-0.3,0.8-0.4,1.1c-0.2,0.2-0.3,0.5-0.3,0.7c-0.2,0.6-0.4,1.1-0.5,1.2c-0.1,0.1-0.2,0.3-0.2,0.4
		c-0.2,0.6-0.3,1.3-0.4,1.4c-0.1,0.1-0.2,0.3-0.2,0.4c0,0.2-0.2,0.5-0.3,0.9c-0.1,0-0.2,0.2-0.2,0.2c0,0.1-0.5,0.6-0.5,0.6
		c-0.3,0.2-0.5,0.5-0.6,0.6c0,0-0.1,0.1-0.1,0.1c0,0-0.1,0.1-0.1,0.3s-0.2,0.2-0.5,0.2l-0.3,0l-0.2,0.3l-0.3-0.2c-0.1,0-0.2,0-0.3,0
		c-0.2,0-0.4,0.2-0.4,0.2c-0.1,0.1-0.2,0.3-0.3,0.3c-0.2,0-0.6,0.1-0.7,0c0,0-0.1,0-0.2,0l-0.1,0.2l-0.2-0.1
		C97.6,52.8,97.5,52.7,97.5,52.7L97.5,52.7z M107.6,30.7c0,0-0.3,0-0.4,0c-0.1,0-0.1,0.4-0.1,0.4C107.2,31.1,107.6,30.9,107.6,30.7z
		 M110.9,32.2c0-0.1-0.2,0-0.3,0c0,0,0,0.1,0.1,0.1C110.8,32.5,110.9,32.4,110.9,32.2L110.9,32.2z M117.8,48.9c0,0,0-0.1,0.1-0.1
		c0.1,0,0.2,0.2,0.2,0.3l-0.1,0.2l-0.1-0.1C117.8,49,117.8,48.9,117.8,48.9L117.8,48.9z M120.8,51.8L120.8,51.8l0.2,0
		c0.3,0.1,0.4,0.3,0.4,0.4C121.4,52.2,120.8,51.9,120.8,51.8L120.8,51.8z M122.6,39.4l0.1-0.1l0.1,0.1c0.1,0.1,0,0.3-0.1,0.3
		C122.5,39.7,122.5,39.5,122.6,39.4L122.6,39.4z M125,35.9c0.1,0,0.1,0,0,0.5l-0.1,0.4l0.1-0.5C125,36.2,125,36,125,35.9L125,35.9z
		 M126.3,39.9c0-0.3,0.1-0.5,0.1-0.8c0.1-0.1,0.1-0.2,0-0.2c-0.1,0-0.2,0.1-0.2,0.5c0,0.1-0.1,0.2-0.1,0.2c-0.1,0-0.1-0.1-0.1-0.4
		v-0.5l-0.1,0.1c-0.1,0.1-0.4,1-0.4,1.1s0.1,0.3,0.2,0.3c0.1,0,0.2,0.1,0.2,0.2s0.1,0.2,0.1,0.2C126.1,40.7,126.2,40.3,126.3,39.9z
		 M126.5,37.8c-0.1-0.2-0.2-0.2-0.3,0l-0.1,0.2l0.2,0.2l0.1,0C126.4,38,126.5,37.9,126.5,37.8z M126.9,36.5c0.2-0.2,0.2-0.4,0.1-0.7
		s-0.2-0.3-0.3,0.1c-0.1,0.3-0.1,0.5-0.1,0.8c0.1,0.2,0.1,0.2,0.1,0.1C126.6,36.7,126.7,36.5,126.9,36.5L126.9,36.5z M127.1,40
		c0,0-0.1-0.1-0.1-0.1s-0.1,0.1-0.1,0.2C126.8,40.2,127.1,40.1,127.1,40L127.1,40z M129.5,17.5c0,0,0.1-0.1,0.1-0.1
		c0,0,0.1,0.1,0.1,0.2c0,0.1-0.1,0.1-0.1,0.1C129.5,17.7,129.5,17.6,129.5,17.5z"/>
	<path class="st0" d="M143.8,52.7c-0.1,0-0.4-0.1-0.6-0.2c-0.2,0-0.6-0.1-0.8-0.2c-0.2-0.1-0.5-0.2-0.6-0.2c-0.4,0-0.8-0.2-1-0.4
		c-0.1-0.1-0.2-0.3-0.3-0.3l-0.1-0.1l-0.3,0.1l-0.5-0.2l0.2-0.2l-0.2-0.2c0,0-0.2-0.3-0.3-0.5l-0.1-0.3l-0.2,0c-0.1,0-0.2,0-0.3,0
		c-0.1,0-0.7-0.5-0.6-0.5l0.2-0.1c0.2-0.1,0.2-0.2-0.1-0.4l-0.2-0.2l-0.1-0.6l-0.4-0.4c-0.2-0.3-0.4-0.4-0.4-0.4c0,0,0-0.1,0.1-0.2
		l0.1-0.2l-0.1-0.2l-0.2-0.4c0-0.2-0.1-0.3-0.2-0.5c-0.1-0.2-0.2-0.4-0.2-0.5c-0.1-0.1-0.2-0.3-0.3-0.5c-0.1-0.2-0.2-0.4-0.2-0.5
		L136,44c-0.1-0.1-0.2-0.4-0.2-1c-0.1-0.5-0.2-1-0.2-1c-0.1-0.2-0.3-0.9-0.3-1.5c-0.1-0.3-0.2-0.7-0.2-0.7l-0.1-0.3
		c0-0.2-0.4-0.6-0.6-0.7h-0.1v-0.1l0.2-1.4l0.1-0.6c0.1,0,0.1-0.2,0.1-0.4v-0.5c0.1-0.1,0.1-0.2,0.1-0.3s0.1-0.2,0.1-0.3l0.1-0.3
		c0,0,0-0.3,0.1-0.5s0.2-0.5,0.1-0.6c0-0.1,0.1-0.3,0.1-0.3c0.1-0.1,0.1-0.3,0.1-0.4s0.1-0.4,0.2-0.5c0.1-0.2,0.3-0.8,0.3-1.3
		c0-0.2,0.1-0.5,0.1-0.6c0.1-0.1,0.1-0.3,0.1-0.3c0.1-0.1,0.1-0.3,0.2-0.5c0.1-0.2,0.2-0.4,0.2-0.6c0-0.2,0.1-0.4,0.1-0.5
		c0.1-0.2,0.3-0.8,0.4-1.6c0.1-0.1,0.1-0.4,0.2-0.6l0.1-0.4l-0.1-0.4c-0.1-0.2-0.1-0.4-0.2-0.5c0-0.3,0.1-1.2,0.2-1.4l1.3-2.4
		c0,0,0.2-0.3,0.3-0.5c0.1-0.1,0.3-0.4,0.5-0.6c0.4-0.6,0.8-1.1,1.6-2c0.4-0.4,0.8-1,0.9-1.2c0.1-0.3,0.3-0.5,0.4-0.5
		c0.2-0.1,0.4-0.3,0.5-0.5c0.2-0.2,0.4-0.4,0.5-0.4l0.2-0.1l0.8,0.2l0.5-0.2l1.4,0.2l0.3-0.2c0.2-0.1,0.4-0.1,0.6,0
		c0.2,0.1,0.3,0.1,0.4,0.1c0.2,0,0.3,0.1,0.4,0.2l0.1,0.1h0.3c0.2,0,0.4,0.1,0.6,0.1c0.1,0,0.2,0,0.2,0c0.2,0,0.3-0.1,0.4-0.2
		c0.1-0.1,0.2-0.2,0.3-0.2l0.4-0.1l0.3-0.1l0.2,0.2c0.1,0.1,0.3,0.2,0.3,0.2c0.1,0.1,0.2,0.2,0.3,0.2c0,0,0.3,0.2,0.5,0.3
		c1,0.5,1.5,0.9,1.7,1.2c0.1,0.1,0.2,0.3,0.3,0.3c0.1,0,0.3,0.1,0.4,0.2c0.1,0.1,0.3,0.3,0.5,0.4c0.1,0.1,0.2,0.2,0.2,0.3l0.1,0.1
		h0.8l0.3-0.4l0.2,0.2c0.2,0.1,0.4,0.1,0.5,0c0.1-0.1,0.3-0.2,0.3-0.1c0.1,0,0.3,0.4,0.4,0.6c0.1,0.2,0.2,0.4,0.3,0.5
		c0.1,0.2,0.2,0.3,0.2,0.3v0h-0.3c-0.1,0-0.2,0-0.2,0.3c0,0.6,0.3,1.1,0.5,1.3l0.2,0.2l0.1,0.3v0.2l0.2,0.2c0.1,0.1,0.3,0.2,0.4,0.2
		h0.2l0.1,0.2c0.1,0.2,0.3,0.2,0.3,0c0,0,0.2-0.2,0.3-0.2c0.2,0,0.3-0.1,0.4-0.2c0.1,0,0.1,0,0.1,0c0.2,0.3,0.3,0.5,0.4,0.6
		c0,0.1,0.1,0.2,0.1,0.4c0.1,0.1,0.2,0.3,0.2,0.5c0.1,0.3,0.2,0.2,0.1-0.2l-0.1-0.3l0.2-0.2l0.1,0.1c0,0.1,0.1,0.2,0.1,0.3
		s0.1,0.5,0.2,1c0.3,1,0.5,2.8,0.5,3.9v0.9c0,0-0.1,0.4-0.1,0.8c0,0.8-0.2,2.4-0.3,2.6c0,0-0.1,0.2-0.1,0.2s-0.1,0.1-0.2,0.2
		l-0.2,0.3l0.1,0.2c0.2,0.3,0.2,0.3-0.1,0.6c-0.1,0.1-0.1,0.3-0.1,0.3s0,0.2-0.1,0.3c-0.1,0.2-0.1,0.3-0.1,0.4s-0.1,0.3-0.2,0.4
		c-0.1,0.2-0.1,0.3-0.1,0.4c0,0,0,0.2-0.1,0.3c-0.1,0.1-0.1,0.3-0.1,0.4s0,0.2-0.1,0.2l-0.2,0.6c-0.1,0.3-0.3,0.6-0.3,0.7
		c-0.1,0-0.2,0.4-0.3,0.8c-0.1,0.3-0.2,0.5-0.3,0.5c-0.1,0-0.2,0.3-0.2,0.6c0,0.2-0.1,0.3-0.1,0.3c-0.1,0-0.2,0.1-0.2,0.3
		c-0.1,0.3-0.2,0.4-0.2,0.2c-0.1-0.2-0.2,0-0.3,0.2l-0.1,0.2l0.1,0c0.1,0.1,0.3,0,0.3-0.2c0-0.1,0.1-0.2,0.2,0v0.1
		c0,0.2-0.2,0.8-0.6,1.2c-0.1,0.2-0.2,0.3-0.2,0.4s-0.1,0.2-0.2,0.4c-0.1,0.2-0.2,0.3-0.2,0.3c0,0-0.1,0.1-0.1,0.2s-0.2,0.3-0.3,0.5
		l-0.5,0.8l-0.4,0.5c-0.4,0.6-0.8,1.1-0.9,1.2c-0.2,0.2-0.3,0.4-0.4,0.6c-0.1,0.1-0.1,0.2-0.2,0.2c0,0-0.2,0.2-0.2,0.3
		c-0.1,0.3-1.3,1.7-2.1,2.3c-0.3,0.2-0.6,0.6-0.6,0.6l-1.2,1l-1,0.4c-0.5,0.1-1.1,0.5-1.1,0.5l-0.3,0.2h-0.5c-0.3,0-0.6,0.2-0.6,0.2
		s-0.6,0.2-1.4,0.2C144.9,52.9,144.1,52.8,143.8,52.7L143.8,52.7z M145,48.2l1-1.1c0.8-0.9,1.1-1.3,1.1-1.5c0,0,0.2-0.2,0.4-0.4
		c0.2-0.2,0.5-0.5,0.7-0.7c0.1-0.2,0.3-0.4,0.4-0.5c0.2-0.1,0.7-0.6,0.6-0.6c0,0,0.3-0.4,1.4-1.7c0.2-0.2,0.4-0.5,0.4-0.8
		c0.1-0.2,0.3-0.5,0.4-0.7c0.1-0.2,0.3-0.4,0.3-0.5c0-0.2,0.1-0.4,0.2-0.5c0.1-0.1,0.2-0.3,0.2-0.3c0-0.1,0-0.2,0.1-0.2
		s0.1-0.2,0.1-0.3l0.1-0.3l-0.2-0.2v-0.3c0.1-0.6,0.6-1.9,0.9-2c0.3-0.2,0.5-0.5,0.6-1.2c0-0.2,0.1-0.4,0.2-0.5
		c0.1-0.2,0.1-0.3,0.1-0.3c0-0.1,0.5-0.7,0.6-0.7c0.2,0,0.3,0,0.3-0.2c0-0.2,0.1-0.4,0.1-0.5c0.1,0,0.2-0.2,0.3-0.3l0.1-0.2l0.1-0.5
		V30l0.3-0.4l-0.3-0.8l0.2-0.3c0.1-0.1,0.2-0.3,0.2-0.3v0c0-0.1,0.1-0.3,0.1-0.4l0.2-0.4l-0.1-0.4c0-0.2,0-0.4,0.1-0.5
		c0-0.1,0-0.5-0.1-1c-0.1-1.2-0.2-1.9-0.1-2.1v-0.2c0-0.2-0.1-0.4-0.1-0.5c-0.1-0.1-0.2-0.3-0.2-0.5c-0.1-0.2-0.2-0.6-0.4-0.9
		c-0.2-0.2-0.3-0.5-0.3-0.7c0-0.1-0.1-0.3-0.2-0.4c-0.1-0.1-0.2-0.2-0.1-0.2c0.1-0.1-0.2-0.4-0.5-0.6l-0.2-0.2l-0.2,0
		c-0.1,0-0.1,0.2-0.2,0.3l-0.1,0.3l0.2,0.3c0.1,0,0.2,0.3,0.1,0.3c0,0.1,0.1,0.3,0.2,0.4c0.1,0.1,0.2,0.2,0.2,0.3
		c0.1,0,0.1,0.1,0.1,0.1s0.1,0,0.1,0.1c0,0,0,0.1-0.1,0.1s-0.8-0.6-0.9-0.8c-0.1-0.2-0.3-0.3-0.5-0.4c-0.2,0-0.4-0.2-0.4-0.3
		c-0.1-0.1-0.2-0.3-0.2-0.3l-0.1-0.1l0.1,0c0.1-0.1,0.1-0.3,0-0.4c-0.1,0-0.2-0.1-0.3-0.2l-0.2-0.2h-0.8l-0.2-0.2
		c-0.2-0.2-0.5-0.3-0.6-0.2c-0.1,0-0.2,0.4-0.2,0.6V19c0,0.3-0.2,0.8-0.4,1.1c-0.2,0.1-0.4,0.4-0.5,0.5c-0.2,0.2-0.5,0.3-0.6,0.4
		c-0.2,0.1-0.3,0.2-0.4,0.2c-0.1,0-0.2,0.2-0.3,0.3c-0.1,0.1-0.2,0.3-0.4,0.5l-0.5,0.6c-0.1,0.2-0.3,0.5-0.4,0.6
		c-0.1,0.1-0.2,0.4-0.3,0.6c-0.1,0.3-0.2,0.5-0.3,0.8l-0.4,0.8c-0.2,0.2-0.3,0.5-0.4,0.6c-0.1,0.1-0.2,0.2-0.2,0.3l-0.6,1.1
		l-0.9,1.5c-0.1,0.3-0.3,0.5-0.3,0.6s-0.2,0.2-0.2,0.4c-0.1,0.2-0.2,0.4-0.2,0.4c-0.1,0.1-0.2,0.4-0.4,0.9s-0.4,0.8-0.4,0.9
		c-0.1,0-0.2,0.2-0.2,0.3l-0.3,0.7c-0.3,0.8-0.4,0.8-0.5,1.2c-0.2,0.6-0.3,1.1-0.3,1.3c0,0,0,0.3-0.1,0.5c-0.2,0.9-0.2,1-0.2,1.3
		c0,0.2-0.1,0.3-0.1,0.4c-0.1,0.2-0.2,1-0.1,1.6c0,0.3,0,0.5-0.1,0.6s0.1,0.8,0.2,1.9c0.2,1.2,0.3,1.8,0.2,1.9l-0.1,0l0.1,0.2
		c0.1,0.1,0.2,0.3,0.2,0.3l0.2,0.5l0.2,0.4v0.8h0.1c0.1,0,0.2,0.1,0.2,0.3l0.2,0.2l-0.2,0.2l0.2,0.1c0.2,0.1,0.3,0.4,0.4,0.8
		c0.1,0.3,0.4,0.8,0.8,1l0.3,0.2l0.4,0C144.2,48.5,144.7,48.4,145,48.2L145,48.2z M148.3,16.1c-0.1-0.1-0.3-0.1-0.3,0
		s0.3,0.2,0.4,0.2C148.4,16.3,148.4,16.2,148.3,16.1L148.3,16.1z M152.1,16.1c0-0.1-0.1-0.2-0.3-0.3c-0.1-0.1-0.2-0.2-0.2-0.3
		l-0.1-0.2h0.2c0.1,0,0.2,0.1,0.2,0.2l0.1,0.2l0.4-0.1l-0.2,0.3h0.6l-0.4,0.1l-0.1,0.4l-0.2,0C152.1,16.3,152.1,16.2,152.1,16.1
		L152.1,16.1z M154.9,22.2c0,0-0.1-0.2-0.1-0.2c-0.1,0-0.1-0.2-0.2-0.3l-0.2-0.2l0.2,0.1c0.1,0.1,0.2,0.2,0.3,0.3l0.2,0.1v0.2
		C155.1,22.5,155,22.5,154.9,22.2L154.9,22.2z M157.2,21.7c0.2-0.2,0.1-0.6-0.1-0.6l-0.3-0.2l-0.2-0.3l-0.2,0.2l0.1,0.4
		c0.1,0.2,0.2,0.5,0.2,0.5C156.8,21.8,157.1,21.8,157.2,21.7L157.2,21.7z M157,23c0,0-0.1-0.1-0.1-0.1s-0.1,0-0.1,0.2
		C156.8,23.2,157,23.1,157,23L157,23z M157.2,24.2c0-0.1,0-0.2-0.1-0.2c-0.2,0-0.2,0.1-0.2,0.2C157,24.5,157.2,24.4,157.2,24.2z
		 M157.3,25c0-0.2-0.2-0.2-0.2,0v0.2C157.3,25.2,157.4,25.2,157.3,25z"/>
	<path class="st0" d="M170.1,52.7l-2.3-0.4c-0.3,0-0.5-0.1-0.6-0.2C167.2,52,167,52,167,52c-0.1,0-0.3,0-0.3,0
		c-0.1-0.1-0.3-0.2-0.5-0.3c-0.2,0-0.4-0.2-0.5-0.2c0,0-0.3-0.1-0.5-0.2h-0.3l-0.2-0.3c-0.1-0.2-0.2-0.3-0.3-0.4
		c0,0-0.1-0.2-0.1-0.4s0-0.5,0.1-0.7c0.1-0.2,0.2-0.4,0.2-0.6c0-0.1-0.1-0.3,0-0.4l0.1-0.3l-0.1-0.2c-0.2-0.4-0.2-0.5,0-0.6
		c0.2-0.3,0.2-0.8,0.2-1.1c0-0.2,0-0.3,0.1-0.4c0,0,0.1-0.2,0.1-0.3c0-0.2,0-0.5-0.1-0.9c0-0.5,0-1.2,0.1-1.5v-0.7
		c0-1.2,0-1.6,0.2-2.2c0.1-0.3,0.2-0.6,0.2-0.6c0,0-0.1-0.2-0.1-0.3c0-0.4,0.1-1,0.2-1.3l0.1-0.8c-0.1-0.2,0-0.3,0-0.3l0.1-0.6v-0.2
		c0-0.3,0.1-0.4,0.1-0.4V35c0-0.3,0.1-0.5,0.1-0.5l0.1,0l-0.3-0.9l0.1-0.6l0.1-1.1l0.2-1.2l0.1-1.2c0-0.5,0.1-1.5,0.2-2.1
		c0.1-0.2,0.1-0.4,0.1-0.5s0-0.4,0.1-0.8c0.2-1,0.3-1.8,0.4-3.4c0-0.2,0.1-0.5,0.1-0.6c0.1-0.1,0.1-0.5,0.1-1l0.1-1.6
		c0.1-0.3,0.1-1,0.1-1.4c0-0.4,0.1-0.7,0.1-0.8c0-0.1,0.1-0.3,0.1-0.4c-0.1-0.6-0.2-0.9-0.5-1.2l-0.3-0.3c0-0.1,0.8,0.1,1.1,0.3
		l0.3,0.1l0.6-0.2l0.4,0.2c0.2,0.1,0.4,0.1,0.5,0.1c0.2,0,0.4-0.1,0.6-0.2l0.3-0.2l0.3,0.1c0.5,0.1,1.1,0.4,1.5,0.9l0.4,0.4l0.3,0
		l0.5,0.3l0.6,0.4c0.3,0.1,0.5,0.3,0.7,0.4c0.1,0.1,0.3,0.3,0.5,0.4l0.6,0.5c0.7,0.9,1.1,1.8,0.9,2.4l-0.8,1.9
		c-0.1,0.2-0.2,1.1-0.2,2.2c-0.1,0.3-0.1,1-0.3,1.4c-0.2,0.9-0.3,1.6-0.4,3.2l-0.2,1.2l-0.2,2l-0.3,2.8l-0.2,1.8
		c0,0.3-0.1,0.5-0.1,0.6c-0.1,0-0.1,0.4-0.1,0.9c0,0.5-0.1,0.9-0.2,0.9c0,0.2-0.1,0.4-0.2,0.8l-0.2,2l-0.2,1.7
		c0.1,0.2,0,0.3-0.1,0.4l-0.1,0.2l0.1,0.9l0.1,0.8l-0.1,0.2c0,0-0.2,0.5-0.1,0.8c0.1,0.2,0.2,0.3,0.5,0.3c0.3,0,2.4-0.4,2.8-0.5
		c0.3,0,0.9-0.5,1.2-0.9c0.4-0.3,0.9-0.6,1.2-0.6c0.6,0,1.4-0.1,1.9-0.2c0.3-0.1,0.6-0.1,0.9-0.1h0.5l-0.3,0
		c-0.2,0.1-0.3,0.3-0.3,0.4s0.2,0.4,0.3,0.5l0.3,0.3l0.2-0.1c0.3-0.2,0.3-0.2,0.2,0c-0.1,0.2-0.2,0.3-0.2,0.4c0,0.2,0.2,0.4,0.4,0.5
		l0.1,0l-0.1,0.2c0,0.1,0.1,0.3,0.2,0.6c0.1,0.2,0.2,0.4,0.1,0.4c-0.2,0.1-0.2,0.2-0.3,0.4l-0.1,0.3l0.8-0.2v0.2
		c0,0.2-0.3,0.3-0.9,0.6c-0.6,0.2-0.8,0.3-0.8,0.5c0,0.1-0.1,0.2-0.1,0.2l-0.6,0.2c-0.7,0.3-2.7,0.9-3.1,0.9c-0.1,0-0.2,0-0.2,0
		l-1.4,0.3l-0.8,0.1c-0.5,0.1-1.9,0.2-3.2,0.2C171.4,52.8,170.5,52.7,170.1,52.7L170.1,52.7z"/>
	<path class="st0" d="M189.6,53.2c-0.2,0-0.5,0-0.7-0.1c-1.8,0-2.5-0.2-2.6-0.3c-0.1,0-0.1-0.3-0.1-0.5c0.1-0.3,0-0.5-0.1-0.6
		c-0.1-0.1-0.1-0.4-0.1-0.5c0-0.2-0.1-0.4-0.2-0.4l-0.2-0.2v-0.6c0-0.3,0-0.6-0.1-0.7c0,0,0.1-0.3,0.1-0.3c0.1-0.2,0.1-0.4,0.2-1.1
		c0.1-0.1,0.1-0.2,0.1-0.2s0.2,0,0.2-0.1c0.2-0.1,0.2-0.1,0.2,0.1s0.4,0.6,0.8,0.7h0.3l0.2-0.2c0.2-0.2,0.3-0.9,0.4-1.7l0.1-2
		c0-0.9,0.1-1.7,0.2-2c0.1-0.2,0.2-0.6,0.2-1.1c0.1-1.1,0.2-2,0.3-2.2c0.1,0,0.1-0.1,0.1-0.3c-0.1-0.2-0.1-0.5,0-0.9
		c0-0.2,0-0.7,0.1-1c0-0.3,0.1-0.7,0.2-0.9l0.1-0.4l-0.1-0.4c-0.1-0.2-0.1-0.5-0.1-0.5c0.1-0.3,0.2-1,0.2-1.5V33
		c0-0.2,0-0.4,0.1-0.5l0.1-0.6c0,0-0.1-0.2,0-0.4c0.1-0.3,0.1-1.3,0.1-1.8c0-0.2,0.1-0.3,0.1-0.4c0,0,0.1-0.2,0-0.3
		c-0.1-0.2-0.2-0.6-0.1-1.2V26c0,0-0.1-0.3-0.2-0.6c-0.2-0.6-0.2-1.3-0.2-1.7l0.1-0.3l-0.2-0.4l0.1-0.5c0.1-0.3,0.1-0.6,0.2-0.8
		s0-0.6,0-0.9s0.1-0.8,0.1-1c0-0.3,0.1-0.8,0.1-1.1c-0.1-0.4-0.1-0.9,0-1.1c0-0.6-0.1-1-0.1-1l-0.1-0.1l0.2-0.1
		c0.1,0,0.4-0.1,0.5-0.1c0.2,0,0.3-0.1,0.3-0.2c0.1-0.1,0.2-0.2,0.2-0.2c0.1,0,0.3-0.1,0.5-0.1c0.2-0.1,0.4-0.2,0.8-0.2l0.6-0.1
		c0.1,0,0.2,0,0.4,0.1c0.5,0.1,0.7,0.2,2,1c0.6,0.3,1.4,1,1.5,1.1c0,0,0.1,0.1,0.1,0.1c0.2,0,0.6,0.6,1.1,1.1l0.4,0.6l0.4,0.3
		c0.2,0,0.4,0.3,0.4,0.4c0.1,0.1,0.3,0.3,0.3,0.4l0.3,0.4c0.1,0.2,0.2,0.5,0.3,0.6c0.2,0.2,1.1,2.2,1.3,3c0.2,0.8,0.3,1,0.5,1.5
		c0.5,1,0.6,1.3,1,2.4l0.6,1.9l0.2,0.4l-0.1,0.3c-0.1,0.2-0.1,0.3-0.1,0.5c0,0.3,0.1,0.6,0.4,1.3c0.1,0.1,0.2,0.4,0.2,0.7
		s0.2,0.4,0.3,0.4s0.3-0.4,0.5-1.4c0.3-1.8,0.4-2,0.4-2.4l0.2-0.6c0.1-0.2,0.2-0.3,0.2-0.4s0.1-0.2,0.2-0.2s0.2,0,0.2-0.2l0.2-0.2
		h0.3c0.1,0,0.3,0,0.4,0c0.1,0,0.4-0.8,0.4-1.1c0,0,0.1-0.4,0.2-0.7l0.2-0.6h0.4l0.1-0.2c0.1-0.1,0.1-0.3,0-0.4l-0.1-0.2l0.5-0.2
		l0.2-0.3c0.1-0.2,0.2-0.4,0.3-0.5c0.2-0.4,0.7-1.7,0.8-2.3c0-0.5,0.2-1.1,0.5-1.8l0.2-0.2l-0.1-0.3l-0.1-0.3l0.1,0
		c0.2-0.1,0.2-0.2-0.1-0.4l-0.1-0.1l0.1,0c0.1,0,0.2,0,0.3,0c0.5,0,0.6-0.4,0.2-0.5l-0.3-0.1V18c0-0.2-0.1-0.2-0.2-0.2
		c-0.1,0-0.2,0-0.3-0.2c-0.2-0.3-0.6,0-0.5,0.2l0.1,0.2l-0.3,0l-0.2-0.2c-0.1-0.1-0.2-0.2-0.2-0.2c0.1-0.1,0.3,0,0.4,0l0.1,0.1
		l0.1,0c0.1,0,0-0.2,0-0.2l-0.1-0.2l0.2-0.1c0.1-0.2,0.1-0.3-0.3-0.4l-0.2,0l0.2-0.1c0.2,0,0.3-0.1,0.1-0.2l-0.1-0.1h0.2
		c0.1,0,0.3,0,0.5-0.1c0.1,0,0.3,0,0.4,0s0.3-0.2,0.4-0.3c0.2-0.1,0.3-0.3,0.4-0.3c0.1,0,0.2-0.1,0.3-0.3l0.1-0.3l0.3,0.1
		c0.1,0,0.3,0.1,0.3,0.2c0.3,0.2,0.5,0.3,0.7,0.3s0.5,0.2,0.5,0.4c0,0-0.2,0.2-0.3,0.4c-0.4,0.3-0.5,0.5-0.3,0.5c0,0,0.1,0,0.1,0
		c0-0.1,0.3,0,0.3,0c0.1,0.3,0.2,0.5,0.2,0.6s-0.1,0.3-0.2,0.4c-0.2,0.1-0.2,0.3,0,0.5l0.1,0.2l0.4-0.2l0.4-0.9l0.1,0
		c0.1,0,0.2,0.1,0.2,0.2h0.1c0.2,0,0.4-0.3,0.6-0.6c0.1-0.2,0.1-0.3,0.2-0.3c0.1,0,0.2,0.5,0.1,0.7c-0.2,0.2-0.2,0.4-0.1,0.5
		c0.1,0,0.1,0.4,0.1,0.5c-0.1,0.2-0.1,0.4,0,0.4c0,0,0.2,0,0.4-0.2l0.3-0.1l0.1,0c0.1,0,0.1,0.1,0.2,0.1c0.2,0,0.1,0.3-0.1,0.4
		l-0.1,0.1l0.1,0.3c0,0.2,0,0.2-0.1,0.2h-0.1c0,0,0,0-0.1,0c-0.1,0-0.1,0-0.1,0c0,0-0.1,0.3-0.1,0.5c-0.1,0.2-0.2,0.5-0.2,0.6
		s-0.1,0.4-0.2,0.7l-0.3,0.7c-0.1,0.2-0.2,0.4-0.2,0.4s-0.2-0.2-0.3-0.2c-0.1,0-0.2,0-0.2-0.1l-0.1-0.1h0.2c0.1,0,0.2,0,0.2,0
		c0.1,0,0-0.1,0,0c-0.1,0-0.2-0.4-0.1-0.5c0.1,0,0-0.3-0.1-0.3c-0.1,0-0.1,0-0.1,0.1c0.1,0,0.1,0.1,0,0.1s-0.1,0.1-0.1,0.2
		c0.1,0.1,0,0.2-0.1,0.3c-0.1,0-0.1,0.3-0.1,0.4s0,0.2-0.1,0.2c-0.2,0.2-0.4,0.6-0.5,1.3l-0.1,0.6l0.1,0c0.2,0.1,0.3,0,0.3,0
		c0,0,0-0.1,0.1-0.1c0,0,0.1,0,0.1,0c0,0,0.1,0,0.1,0c0.1,0,0.1,0,0,0.3c-0.1,0.2-0.2,0.3-0.4,0.1h-0.1l-0.1,0
		c0,0.1-0.1,0.2-0.2,0.2c-0.1,0-0.1,0-0.2,0.2c-0.2,0.3,0.1,0.4,0.3,0c0.2-0.2,0.4-0.3,0.5-0.2c0,0-0.1,0.3-0.2,0.7
		c-0.1,0.1-0.1,0.3-0.1,0.4l-0.1,0.4c-0.1,0.2-0.1,0.4-0.1,0.6c0.1,0.2,0,0.4,0,0.5c-0.1,0.1-0.1,0.3-0.1,0.3v0.2c0,0.3-0.1,1-0.2,1
		c0,0-0.1,0.1,0,0.2c0,0,0.1,0.3-0.1,0.5c-0.1,0.2-0.1,0.4-0.1,0.6c0,0.1-0.1,0.3,0,0.3c-0.1,0-0.1,0.2-0.1,0.3
		c0,0.1-0.1,0.5-0.2,0.8c0,0.3-0.1,0.8-0.2,1c0,0.2,0,0.4-0.1,0.5c0,0.2-0.1,0.4-0.1,0.6c-0.1,0.4-0.4,2-0.5,2.3l-0.2,0.2l0.1,0.5
		c0.1,0.3,0.1,0.5,0,0.6c-0.2,0.3-0.2,0.8-0.2,1.1v0.6c-0.2,0.5-0.3,1.4-0.2,1.8c0.1,0.5-0.1,1.8-0.2,2.2c-0.1,0.2-0.1,0.5-0.1,0.7
		c0,0.3-0.1,0.8-0.1,1.1c0.1,0.4,0.1,1,0.1,1.5c0.1,0.4,0,0.9,0,1v0.2c0,0.3,0,0.6,0.1,1.1l0.1,1.1l-0.1,0.3c0,0-0.2,0.3-0.2,0.3
		c0.1,0.1-0.1,0.2-0.1,0.2l-0.1,0.1l0.2,0.4l-0.2,0.2c-0.1,0-0.3,0.2-0.3,0.2c-0.1,0-0.2,0-0.2,0s-0.2,0.1-0.4,0.1l-0.6,0.1
		c-0.3,0.1-0.7,0.1-0.7,0.1c-0.2-0.1-0.8-0.1-0.8,0l-0.1,0.1l-0.5-0.4l-0.4,0c-0.2,0-0.5,0-0.6,0.2c0,0-0.2,0.1-0.3,0.1
		s-0.3,0-0.5-0.2c-0.2-0.1-0.8-0.2-0.9-0.1l-0.1,0.1l-0.3-0.2l-0.1-0.3v-0.4l-0.3-0.5l-0.1-0.4c-0.1-0.7-0.1-0.8-0.6-1l-0.4-0.1
		l-0.3-0.6l0.1-0.3c0.1-0.2,0.1-0.3,0.1-0.4c0-0.2-0.1-0.4-0.3-0.5c-0.2-0.2-0.7-1.2-0.9-1.7l-0.6-1.6c-0.2-0.4-1-2.2-1-2.3
		c0,0-0.1-0.2-0.1-0.2c-0.1-0.1-0.4-1-0.5-1.3c0-0.1-0.1-0.3-0.1-0.3c-0.1,0-0.2-0.5-0.3-0.9c-0.1-0.4-0.3-0.8-0.4-1
		c-0.3-0.9-0.4-1.1-0.4-1.3c0-0.1-0.1-0.2-0.1-0.3c-0.1,0-0.2-0.2-0.3-0.5c-0.1-0.3-0.2-0.5-0.3-0.6l-0.2-0.2h-0.2
		c-0.2,0.1-0.3,0.1-0.3,0.7l-0.1,0.8c-0.1,0.2-0.2,0.5-0.2,0.9c0,0.3-0.1,0.8-0.1,1c-0.1,0.2-0.1,0.6-0.2,1l-0.1,0.9l-0.1,0.9
		C195,41.6,195,42,195,42c-0.1,0-0.1,0.2-0.1,0.3l-0.1,0.5c-0.1,0.2-0.1,0.5-0.1,0.7c0,0.3-0.1,0.8-0.1,1c-0.2,0.6-0.2,1.3-0.2,1.6
		c0,0.1-0.1,0.2-0.1,0.3c-0.1,0-0.1,0.1-0.1,0.3s-0.1,0.4-0.1,0.5c-0.1,0.3-0.2,1.5-0.1,1.8c0,0.2,0,0.4-0.1,0.5
		c0,0-0.1,0.3-0.1,0.5c-0.1,0.4-0.1,0.7-0.2,1.1v0.3c0,0,0,0.2-0.1,0.3s-0.1,0.2-0.1,0.2c0,0.2-0.2,0.3-0.3,0.1
		c-0.1-0.1-0.2,0-0.1,0.2c0,0-0.1,0.2-0.1,0.2c0,0-0.1,0.2-0.1,0.2c0,0.2-0.1,0.2-0.2,0c0,0-0.1-0.1-0.2-0.1c-0.2,0-0.4,0.2-0.5,0.4
		l-0.1,0.2l-0.9,0.1l-0.1-0.1c-0.1-0.2-0.3-0.2-0.4,0c-0.1,0.1-0.3,0.2-0.6,0.2c-0.2,0-0.4,0-0.6,0L189.6,53.2z M208.4,34.6
		c0-0.2-0.2-0.1-0.2,0c-0.1,0.1-0.1,0.2,0,0.2S208.4,34.8,208.4,34.6z M208.6,19.9c0-0.3,0.2-0.2,0.2,0l0.1,0.2l-0.1,0
		C208.6,19.9,208.5,19.9,208.6,19.9L208.6,19.9z M208.7,19v-0.3l0.2,0c0.1,0,0.1,0,0.2,0.1l-0.2,0.4l-0.2,0.3v-0.2
		C208.7,19.3,208.7,19.1,208.7,19z M214.2,21.6l0.2-0.2l-0.1-0.6l0.3-0.4l-0.1-0.2c-0.1-0.1-0.1-0.2-0.1-0.3c0,0,0.1-0.1,0.1-0.2
		v-0.3h-0.1c-0.1,0-0.2,0-0.3,0l-0.2,0.1l0.1,0.2v0.2l-0.1-0.1c-0.1-0.1-0.1-0.2-0.2-0.2c-0.2,0-0.8,0.2-1,0.4l-0.5,0.3
		c-0.2,0-0.3,0.2-0.1,0.3c0.1,0,0.1,0.1,0.1,0.2c0,0,0,0,0.1,0c0.1,0,0.3,0,0.4-0.1c0.2-0.1,0.3-0.2,0.3-0.3c0,0,0.1-0.1,0.1-0.1
		l0.1,0.1c0,0,0,0.1,0.1,0.1c0.1,0,0.1,0.1,0.1,0.2c0,0,0.1,0.2,0.1,0.2c0.1,0,0.1,0.2-0.1,0.2l-0.2,0.1l0.1,0.1h0.4v0.3
		c0,0.2,0,0.3,0.1,0.3l0.1,0l0.1,0C214.1,21.9,214.2,21.8,214.2,21.6L214.2,21.6z M212.8,21.2c0-0.2-0.1-0.3-0.2-0.1l-0.1,0.1l0.1,0
		C212.7,21.3,212.8,21.3,212.8,21.2z M212.8,22.2c-0.1,0-0.2,0.1-0.2,0.2v0.1l0.2-0.1C212.9,22.3,212.8,22.2,212.8,22.2z
		 M213.4,22.8v-0.2h0.3l-0.1,0.1c-0.1,0-0.1,0.1-0.1,0.2c0.1,0,0.1,0.1,0,0.1C213.5,23,213.5,22.9,213.4,22.8L213.4,22.8z"/>
	<path class="st0" d="M225.8,52.7c-0.1,0-0.4-0.1-0.6-0.2c-0.2,0-0.6-0.1-0.8-0.2c-0.2-0.1-0.5-0.2-0.6-0.2c-0.4,0-0.8-0.2-1-0.4
		c-0.1-0.1-0.2-0.3-0.3-0.3l-0.1-0.1l-0.3,0.1l-0.5-0.2l0.2-0.2l-0.2-0.2c0,0-0.2-0.3-0.3-0.5l-0.1-0.3l-0.2,0c-0.1,0-0.2,0-0.3,0
		c-0.1,0-0.7-0.5-0.6-0.5l0.2-0.1c0.2-0.1,0.2-0.2-0.1-0.4l-0.2-0.2l-0.1-0.6l-0.4-0.4c-0.2-0.3-0.4-0.4-0.4-0.4c0,0,0-0.1,0.1-0.2
		l0.1-0.2l-0.1-0.2l-0.2-0.4c0-0.2-0.1-0.3-0.2-0.5c-0.1-0.2-0.2-0.4-0.2-0.5c-0.1-0.1-0.2-0.3-0.3-0.5c-0.1-0.2-0.2-0.4-0.2-0.5
		l-0.2-0.3c-0.1-0.1-0.2-0.4-0.2-1c-0.1-0.5-0.2-1-0.2-1c-0.1-0.2-0.3-0.9-0.3-1.5c-0.1-0.3-0.2-0.7-0.2-0.7l-0.1-0.3
		c0-0.2-0.4-0.6-0.6-0.7h-0.1v-0.1l0.2-1.4l0.1-0.6c0.1,0,0.1-0.2,0.1-0.4v-0.5c0.1-0.1,0.1-0.2,0.1-0.3s0.1-0.2,0.1-0.3l0.1-0.3
		c0,0,0-0.3,0.1-0.5s0.2-0.5,0.1-0.6c0-0.1,0.1-0.3,0.1-0.3c0.1-0.1,0.1-0.3,0.1-0.4s0.1-0.4,0.2-0.5c0.1-0.2,0.3-0.8,0.3-1.3
		c0-0.2,0.1-0.5,0.1-0.6c0.1-0.1,0.1-0.3,0.1-0.3c0.1-0.1,0.1-0.3,0.2-0.5c0.1-0.2,0.2-0.4,0.2-0.6c0-0.2,0.1-0.4,0.1-0.5
		c0.1-0.2,0.3-0.8,0.4-1.6c0.1-0.1,0.1-0.4,0.2-0.6l0.1-0.4l-0.1-0.4c-0.1-0.2-0.1-0.4-0.2-0.5c0-0.3,0.1-1.2,0.2-1.4l1.3-2.4
		c0,0,0.2-0.3,0.3-0.5c0.1-0.1,0.3-0.4,0.5-0.6c0.4-0.6,0.8-1.1,1.6-2c0.4-0.4,0.8-1,0.9-1.2c0.1-0.3,0.3-0.5,0.4-0.5
		c0.2-0.1,0.4-0.3,0.5-0.5c0.2-0.2,0.4-0.4,0.5-0.4l0.2-0.1l0.8,0.2l0.5-0.2l1.4,0.2l0.3-0.2c0.2-0.1,0.4-0.1,0.6,0
		c0.2,0.1,0.3,0.1,0.4,0.1c0.2,0,0.3,0.1,0.4,0.2l0.1,0.1h0.3c0.2,0,0.4,0.1,0.6,0.1c0.1,0,0.2,0,0.2,0c0.2,0,0.3-0.1,0.4-0.2
		c0.1-0.1,0.2-0.2,0.3-0.2l0.4-0.1l0.3-0.1l0.2,0.2c0.1,0.1,0.3,0.2,0.3,0.2c0.1,0.1,0.2,0.2,0.3,0.2c0,0,0.3,0.2,0.5,0.3
		c1,0.5,1.5,0.9,1.7,1.2c0.1,0.1,0.2,0.3,0.3,0.3c0.1,0,0.3,0.1,0.4,0.2c0.1,0.1,0.3,0.3,0.5,0.4c0.1,0.1,0.2,0.2,0.2,0.3l0.1,0.1
		h0.8l0.3-0.4l0.2,0.2c0.2,0.1,0.4,0.1,0.5,0c0.1-0.1,0.3-0.2,0.3-0.1c0.1,0,0.3,0.4,0.4,0.6c0.1,0.2,0.2,0.4,0.3,0.5
		c0.1,0.2,0.2,0.3,0.2,0.3v0h-0.3c-0.1,0-0.2,0-0.2,0.3c0,0.6,0.3,1.1,0.5,1.3l0.2,0.2l0.1,0.3v0.2l0.2,0.2c0.1,0.1,0.3,0.2,0.4,0.2
		h0.2l0.1,0.2c0.1,0.2,0.3,0.2,0.3,0c0,0,0.2-0.2,0.3-0.2c0.2,0,0.3-0.1,0.4-0.2c0.1,0,0.1,0,0.1,0c0.2,0.3,0.3,0.5,0.4,0.6
		c0,0.1,0.1,0.2,0.1,0.4c0.1,0.1,0.2,0.3,0.2,0.5c0.1,0.3,0.2,0.2,0.1-0.2l-0.1-0.3l0.2-0.2l0.1,0.1c0,0.1,0.1,0.2,0.1,0.3
		s0.1,0.5,0.2,1c0.3,1,0.5,2.8,0.5,3.9v0.9c0,0-0.1,0.4-0.1,0.8c0,0.8-0.2,2.4-0.3,2.6c0,0-0.1,0.2-0.1,0.2s-0.1,0.1-0.2,0.2
		l-0.2,0.3l0.1,0.2c0.2,0.3,0.2,0.3-0.1,0.6c-0.1,0.1-0.1,0.3-0.1,0.3s0,0.2-0.1,0.3c-0.1,0.2-0.1,0.3-0.1,0.4s-0.1,0.3-0.2,0.4
		c-0.1,0.2-0.1,0.3-0.1,0.4c0,0,0,0.2-0.1,0.3c-0.1,0.1-0.1,0.3-0.1,0.4s0,0.2-0.1,0.2l-0.2,0.6c-0.1,0.3-0.3,0.6-0.3,0.7
		c-0.1,0-0.2,0.4-0.3,0.8c-0.1,0.3-0.2,0.5-0.3,0.5c-0.1,0-0.2,0.3-0.2,0.6c0,0.2-0.1,0.3-0.1,0.3c-0.1,0-0.2,0.1-0.2,0.3
		c-0.1,0.3-0.2,0.4-0.2,0.2c-0.1-0.2-0.2,0-0.3,0.2l-0.1,0.2l0.1,0c0.1,0.1,0.3,0,0.3-0.2c0-0.1,0.1-0.2,0.2,0v0.1
		c0,0.2-0.2,0.8-0.6,1.2c-0.1,0.2-0.2,0.3-0.2,0.4s-0.1,0.2-0.2,0.4c-0.1,0.2-0.2,0.3-0.2,0.3c0,0-0.1,0.1-0.1,0.2s-0.2,0.3-0.3,0.5
		l-0.5,0.8l-0.4,0.5c-0.4,0.6-0.8,1.1-0.9,1.2c-0.2,0.2-0.3,0.4-0.4,0.6c-0.1,0.1-0.1,0.2-0.2,0.2c0,0-0.2,0.2-0.2,0.3
		c-0.1,0.3-1.3,1.7-2.1,2.3c-0.3,0.2-0.6,0.6-0.6,0.6l-1.2,1l-1,0.4c-0.5,0.1-1.1,0.5-1.1,0.5l-0.3,0.2h-0.5c-0.3,0-0.6,0.2-0.6,0.2
		s-0.6,0.2-1.4,0.2C226.9,52.9,226.1,52.8,225.8,52.7L225.8,52.7z M227,48.2l1-1.1c0.8-0.9,1.1-1.3,1.1-1.5c0,0,0.2-0.2,0.4-0.4
		c0.2-0.2,0.5-0.5,0.7-0.7c0.1-0.2,0.3-0.4,0.4-0.5c0.2-0.1,0.7-0.6,0.6-0.6c0,0,0.3-0.4,1.4-1.7c0.2-0.2,0.4-0.5,0.4-0.8
		c0.1-0.2,0.3-0.5,0.4-0.7c0.1-0.2,0.3-0.4,0.3-0.5c0-0.2,0.1-0.4,0.2-0.5c0.1-0.1,0.2-0.3,0.2-0.3c0-0.1,0-0.2,0.1-0.2
		s0.1-0.2,0.1-0.3l0.1-0.3l-0.2-0.2v-0.3c0.1-0.6,0.6-1.9,0.9-2c0.3-0.2,0.5-0.5,0.6-1.2c0-0.2,0.1-0.4,0.2-0.5
		c0.1-0.2,0.1-0.3,0.1-0.3c0-0.1,0.5-0.7,0.6-0.7c0.2,0,0.3,0,0.3-0.2c0-0.2,0.1-0.4,0.1-0.5c0.1,0,0.2-0.2,0.3-0.3l0.1-0.2l0.1-0.5
		V30l0.3-0.4l-0.3-0.8l0.2-0.3c0.1-0.1,0.2-0.3,0.2-0.3v0c0-0.1,0.1-0.3,0.1-0.4l0.2-0.4l-0.1-0.4c0-0.2,0-0.4,0.1-0.5
		c0-0.1,0-0.5-0.1-1c-0.1-1.2-0.2-1.9-0.1-2.1v-0.2c0-0.2-0.1-0.4-0.1-0.5c-0.1-0.1-0.2-0.3-0.2-0.5c-0.1-0.2-0.2-0.6-0.4-0.9
		c-0.2-0.2-0.3-0.5-0.3-0.7c0-0.1-0.1-0.3-0.2-0.4c-0.1-0.1-0.2-0.2-0.1-0.2c0.1-0.1-0.2-0.4-0.5-0.6l-0.2-0.2l-0.2,0
		c-0.1,0-0.1,0.2-0.2,0.3l-0.1,0.3l0.2,0.3c0.1,0,0.2,0.3,0.1,0.3c0,0.1,0.1,0.3,0.2,0.4c0.1,0.1,0.2,0.2,0.2,0.3
		c0.1,0,0.1,0.1,0.1,0.1s0.1,0,0.1,0.1c0,0,0,0.1-0.1,0.1s-0.8-0.6-0.9-0.8c-0.1-0.2-0.3-0.3-0.5-0.4c-0.2,0-0.4-0.2-0.4-0.3
		c-0.1-0.1-0.2-0.3-0.2-0.3l-0.1-0.1l0.1,0c0.1-0.1,0.1-0.3,0-0.4c-0.1,0-0.2-0.1-0.3-0.2l-0.2-0.2h-0.8l-0.2-0.2
		c-0.2-0.2-0.5-0.3-0.6-0.2c-0.1,0-0.2,0.4-0.2,0.6V19c0,0.3-0.2,0.8-0.4,1.1c-0.2,0.1-0.4,0.4-0.5,0.5c-0.2,0.2-0.5,0.3-0.6,0.4
		c-0.2,0.1-0.3,0.2-0.4,0.2c-0.1,0-0.2,0.2-0.3,0.3c-0.1,0.1-0.2,0.3-0.4,0.5l-0.5,0.6c-0.1,0.2-0.3,0.5-0.4,0.6
		c-0.1,0.1-0.2,0.4-0.3,0.6c-0.1,0.3-0.2,0.5-0.3,0.8l-0.4,0.8c-0.2,0.2-0.3,0.5-0.4,0.6c-0.1,0.1-0.2,0.2-0.2,0.3l-0.6,1.1
		l-0.9,1.5c-0.1,0.3-0.3,0.5-0.3,0.6s-0.2,0.2-0.2,0.4c-0.1,0.2-0.2,0.4-0.2,0.4c-0.1,0.1-0.2,0.4-0.4,0.9c-0.2,0.4-0.4,0.8-0.4,0.9
		c-0.1,0-0.2,0.2-0.2,0.3l-0.3,0.7c-0.3,0.8-0.4,0.8-0.5,1.2c-0.2,0.6-0.3,1.1-0.3,1.3c0,0,0,0.3-0.1,0.5c-0.2,0.9-0.2,1-0.2,1.3
		c0,0.2-0.1,0.3-0.1,0.4c-0.1,0.2-0.2,1-0.1,1.6c0,0.3,0,0.5-0.1,0.6s0.1,0.8,0.2,1.9c0.2,1.2,0.3,1.8,0.2,1.9l-0.1,0l0.1,0.2
		c0.1,0.1,0.2,0.3,0.2,0.3l0.2,0.5l0.2,0.4v0.8h0.1c0.1,0,0.2,0.1,0.2,0.3l0.2,0.2l-0.2,0.2l0.2,0.1c0.2,0.1,0.3,0.4,0.4,0.8
		c0.1,0.3,0.4,0.8,0.8,1l0.3,0.2l0.4,0C226.2,48.5,226.7,48.4,227,48.2L227,48.2z M230.3,16.1c-0.1-0.1-0.3-0.1-0.3,0
		s0.3,0.2,0.4,0.2C230.4,16.3,230.4,16.2,230.3,16.1L230.3,16.1z M234.1,16.1c0-0.1-0.1-0.2-0.3-0.3c-0.1-0.1-0.2-0.2-0.2-0.3
		l-0.1-0.2h0.2c0.1,0,0.2,0.1,0.2,0.2l0.1,0.2l0.4-0.1l-0.2,0.3h0.6l-0.4,0.1l-0.1,0.4l-0.2,0C234.1,16.3,234.1,16.2,234.1,16.1
		L234.1,16.1z M236.9,22.2c0,0-0.1-0.2-0.1-0.2c-0.1,0-0.1-0.2-0.2-0.3l-0.2-0.2l0.2,0.1c0.1,0.1,0.2,0.2,0.3,0.3l0.2,0.1v0.2
		C237.1,22.5,237,22.5,236.9,22.2L236.9,22.2z M239.2,21.7c0.2-0.2,0.1-0.6-0.1-0.6l-0.3-0.2l-0.2-0.3l-0.2,0.2l0.1,0.4
		c0.1,0.2,0.2,0.5,0.2,0.5C238.8,21.8,239.1,21.8,239.2,21.7L239.2,21.7z M239,23c0,0-0.1-0.1-0.1-0.1s-0.1,0-0.1,0.2
		C238.8,23.2,239,23.1,239,23L239,23z M239.2,24.2c0-0.1,0-0.2-0.1-0.2c-0.2,0-0.2,0.1-0.2,0.2C239,24.5,239.2,24.4,239.2,24.2z
		 M239.3,25c0-0.2-0.2-0.2-0.2,0v0.2C239.3,25.2,239.4,25.2,239.3,25z"/>
	<path class="st0" d="M253.9,52.5c0,0-0.3-0.1-0.4-0.1c-0.2,0-0.4-0.1-0.4-0.1s-0.3-0.2-0.5-0.2c-0.4,0-0.5,0-0.7-0.1h-0.1l0.2-0.2
		l-0.1-0.1c0,0-0.2-0.1-0.2-0.1l-0.6-0.2c-0.3-0.1-0.6-0.2-0.8-0.2s-0.4-0.2-0.4-0.3c0,0,0.1-0.2,0.3-0.2c0.2-0.1,0.3-0.2,0.3-0.3
		c0-0.2-0.2-0.3-0.4-0.3c-0.1,0-0.3-0.1-0.3-0.1l-0.1-0.1h0.5l-0.1-0.2v-0.3c-0.1-0.2-0.1-0.2-0.4,0l-0.2,0v-0.6l-0.1,0
		c-0.1,0-0.3,0-0.3,0c-0.2,0.1-0.4,0-0.6-0.1c-0.1-0.1-0.2-0.2-0.3-0.3l-1.2-0.2c-0.3,0-0.4-0.4-0.7-0.5h-0.3l-0.1,0.2
		c0.1,0-0.1,0.2-0.1,0.2c0,0-0.1,0.1-0.1,0.2c0,0.1,0.5,0.5,0.6,0.5c0.2,0,0.5,0.1,0.7,0.2h0.2c0.2,0,0.6,0,0.7-0.1
		c0.1,0,0.1,0,0.1,0c0.2,0.2,0.6,0.4,0.8,0.4c0.3,0,0.3,0.1,0.1,0.2c-0.1,0-0.2,0-0.1,0.2v0.1l-0.2,0h-0.2c-0.1,0.2-0.3,0.1-0.4,0
		l-0.1-0.2l-0.2,0.2c-0.1,0.1-0.3,0.2-0.4,0.2h-0.3l-0.1-0.2c-0.1-0.1-0.2-0.2-0.2-0.2s-0.3-0.2-0.5-0.3c-0.2-0.2-0.3-0.3-0.4-0.3
		s-0.2-0.1-0.4-0.3c-0.4-0.4-0.6-0.8-0.6-0.9s-0.4-0.5-0.6-0.5c-0.1,0-0.2-0.1-0.2-0.2s-0.3-0.3-0.4-0.4c-0.8-0.6-1-0.9-0.8-1l0.1,0
		l-0.1-0.1c-0.1-0.1-0.1-0.4,0.1-0.4l0.2,0.1c0,0,0.4,0.2,0.4,0c0-0.1,0.1-0.2,0.2-0.1c0.1,0,0.2,0,0.3,0l0.2,0l0.1-0.4l0.3,0.3
		c0.2,0.1,0.3,0.2,0.4,0.2c0.3,0,0.6,0,0.8,0.2c0,0,0.6,0.2,0.8,0.1c0.1,0,0.1-0.1,0.1-0.2c-0.1-0.2,0.1-0.2,0.2,0
		c0.1,0,0.2,0.1,0.3,0.1s0.3,0.1,0.5,0.3l0.7,0.5l0.5,0.3c0.3,0.3,1.6,0.8,1.9,0.6c0,0,0.5-0.1,1.1-0.1h0.9l0.5-0.4h0.9
		c0.9,0,1.3-0.1,1.5-0.2c0,0,0.3,0,0.6,0c0.6,0,1.2-0.3,1.6-0.5c0.1-0.1,0.4-0.3,0.5-0.3c0.2,0,0.3-0.2,0.4-0.2
		c0-0.1,0.2-0.2,0.4-0.3c0.2-0.1,0.4-0.3,0.6-0.5c0.2-0.2,0.3-0.4,0.4-0.4s0-0.1,0-0.2c0-0.1,0-0.2,0-0.2c0,0,0-0.2,0-0.3l0.3-0.7
		c0.1-0.3,0.2-0.7,0.3-0.9c0-0.2,0.1-0.5,0.2-0.6c0-0.1,0-0.2,0-0.3c0-0.2-0.1-0.4-0.3-0.8c-0.3-0.5-1.2-1.3-1.6-1.5
		c-0.2,0-0.3-0.2-0.4-0.3c-0.1-0.3-0.4-0.4-0.5-0.4c0,0-0.2,0-0.4,0c-0.1,0-0.4-0.2-0.6-0.2c-0.2-0.1-0.5-0.2-0.6-0.3
		c0,0-0.2-0.1-0.3-0.1l-0.4-0.1l-0.9-0.3l-1.5-0.6c-0.2-0.1-0.4-0.2-0.4-0.2c-0.1,0-0.2-0.1-0.4-0.2c-0.1-0.2-0.3-0.3-0.4-0.3
		c-0.1,0-0.3-0.1-0.5-0.2c-0.4-0.3-0.8-0.5-1.1-0.5l-0.2,0l-2.9-2.7l-0.2-0.5l0.3-0.2l-0.1-0.3c-0.1-0.5-0.3-0.8-0.4-0.9l-0.1-0.1
		v-0.3c0.1-0.2,0.1-0.3,0.1-0.4c0.1-0.1,0.1-0.2,0.1-0.4c0,0-0.1-0.3-0.2-0.6l-0.1-0.4l0.1-0.5c0.1-0.2,0.2-0.5,0.2-0.6
		c0,0,0.1-0.3,0.1-0.5v-0.3c0-0.5,0.1-1,0.2-1.1c0.1,0,0.1-0.1,0.1-0.3c0.1-0.3,0.5-1,1-1.4c0.3-0.3,0.5-0.8,0.6-0.9
		c0.1-0.2,0.3-0.4,0.4-0.5c0.2-0.1,0.4-0.3,0.6-0.5c0.1-0.2,0.4-0.4,0.5-0.5l0.9-0.6l0.7-0.5l-0.1-0.2c0-0.1,0.1-0.2,0.2-0.3
		c0.1-0.2,0.9-0.5,1.2-0.6c0.3-0.1,0.5-0.3,0.5-0.6c0.1-0.4,0.2-0.6,0.6-0.8c0.2-0.1,0.4-0.2,0.5-0.2c0.1,0,0.2,0,0.2,0l0.7-0.3
		c0.2-0.1,0.5-0.2,0.6-0.3l0.5-0.2c0.2,0,0.3-0.1,0.4-0.2c0,0,0.2,0,0.4-0.1c0.1,0,0.4-0.1,0.6-0.3c0.3-0.1,0.5-0.2,0.6-0.2
		s0.3-0.1,0.3-0.1c0.1-0.1,0.3-0.1,0.4-0.1s0.3-0.1,0.3-0.1c0-0.1,0.1-0.1,0.2-0.1s0.2-0.1,0.3-0.1c0.1-0.1,0.3-0.2,0.6-0.2l1.7-0.3
		c0.1-0.1,0.3-0.1,0.4-0.1c0.2,0,0.3,0,0.3-0.1c0-0.1,0.3-0.1,0.5-0.1c0.2,0,0.4,0,0.6-0.1c0.2,0,0.6-0.1,1,0h0.6l1,1h0.6l0.3,0.2
		c0.3,0.2,0.5,0.2,0.6,0.2h0.2c0.3,0,0.4,0.1,0.6,0.4l0.3,0.3l0.4,0.8c0.3,0.8,0.4,1,0.2,1.3c0,0.1,0,0.2,0,0.3c0,0,0,0.2,0,0.4
		c-0.1,0.3-0.5,1-0.6,1c0,0,0,0,0,0.1s-0.2,0.2-0.3,0.4c-0.3,0.3-1,0.6-1.3,0.6c-0.1,0-0.3,0-0.4,0.1l-0.2,0.1l-1,0
		c-1.2,0-1.7,0.1-2.8,0.5c-0.4,0.1-0.7,0.3-0.8,0.3c0,0-0.1,0-0.2,0s-0.3,0-0.5,0.2c-0.2,0.1-0.4,0.2-0.5,0.2l-0.4,0.2
		c0,0-0.4,0.3-0.8,0.4c-0.4,0.2-0.9,0.5-1.1,0.6c-0.3,0.2-0.6,0.4-0.9,0.5c-0.3,0.2-0.5,0.3-0.5,0.4s-0.3,0.1-0.4,0.2l-0.5,0.2
		c0,0.1-0.6,0.4-1.2,0.7c-1.4,0.8-1.7,1-2.1,1.3c-0.1,0.2-0.3,0.3-0.3,0.3s-0.3,0.3-0.7,0.7c-0.9,0.9-1.3,1.7-1.2,2.2v0.2l0.4,0.3
		l1.3,0.5c0.3,0.1,0.5,0.2,0.5,0.3s0.3,0.1,0.5,0.2c0.2,0,0.5,0.2,0.5,0.3c0.1,0,0.3,0.2,0.4,0.2c0.4,0.1,0.6,0.2,1,0.5
		s1.3,0.8,1.5,0.8c0.2,0,0.5,0.2,0.5,0.3s0.3,0.3,0.5,0.3h0.2l0,0.2c0,0,0.3,0.3,0.5,0.4l1.5,1.1l1,0.8h0.2c0.2,0,0.5,0.2,0.6,0.3
		c0,0.1,0.5,0.6,1,1.1c0.3,0.2,0.5,0.5,0.6,0.8l0.6,1l0.4,0.6l0,0.2v0.2l0.3,0.2V41c0,0.1,0,0.3,0.2,0.4c0,0,0.2,0.3,0.2,0.4v0.3
		l0.3,0.3c0.1,0.2,0.3,0.3,0.4,0.4c0,0,0,0.2,0,0.3s0.2,0.4,0.3,0.7l0.3,0.5l0.1,1.1v1.1c0,0,0,0.2,0,0.3l0,0.3l-0.4,0.4
		c-0.5,0.4-0.6,0.5-0.6,0.8c0,0-0.1,0.1-0.2,0.2c-0.3,0.2-0.4,0.4-0.2,0.4c0,0,0.2,0,0.2,0.2V49c0-0.2-0.4-0.1-0.5,0
		c0,0-0.2,0-0.3,0h-0.2l-0.3,0.2c0,0.2-0.3,0.4-0.4,0.4c-0.2,0.1-0.2,0.3-0.2,0.3c0,0.3-0.5,0.6-0.9,0.5c-0.1,0-0.3,0.1-0.3,0.1
		c-0.2,0.3-0.9,0.6-2.2,1c-1.1,0.4-2,0.6-2.8,0.6l-1.2,0.2c-0.6,0.1-1.7,0.2-2.5,0.2C254.6,52.7,254,52.6,253.9,52.5L253.9,52.5z
		 M253.4,48.9l0.2-0.3h0.6c1.2,0,1.4-0.2,1.4-0.2l0.2-0.1l0.9,0l0.2-0.2c0.3-0.2,0.1-0.5,0-0.6l-0.2-0.2l-0.1,0l-0.6,0.1l-0.5,0
		l-0.1-0.1c0,0-0.2-0.2-0.4,0c-0.1,0-0.2,0-0.3,0s-0.4,0-0.8,0l-0.3,0l-0.4,0.2c-0.2,0-0.4,0.2-0.5,0.2c-0.1,0-0.2,0-0.2,0
		s-0.1,0.1-0.1,0.1s-0.1,0-0.2,0l-0.2,0l-0.1-0.2c-0.1-0.2-0.3-0.2-0.3,0c0,0.2-0.4,0.3-0.6,0.3c-0.1,0-0.2,0.1-0.2,0.1l-0.1,0.1
		l0.2,0.1c0,0,0.1,0.1,0.2,0.1s0.3,0,0.5,0.2c0.8,0.3,1,0.3,1.4,0.3L253.4,48.9L253.4,48.9z"/>
	<path class="st0" d="M278.5,53.1l-0.7-0.3c-0.1,0-0.2-0.1-0.3-0.1s-0.2-0.1-0.4-0.2l-0.8-0.5c-0.5-0.2-1.1-0.7-1.2-1
		c0,0-0.1-0.2-0.2-0.3c0,0-0.2-0.2-0.3-0.3l-0.3-0.9l-0.3-0.6l-0.3-0.2c-0.1-0.1-0.4-0.3-0.6-0.4l-0.4-0.1l-0.1,0
		c0,0-0.2,0.2-0.3,0.3c-0.2,0-0.2,0.2-0.2,0.3c0,0.1,0,0.2,0,0.2c-0.2,0.1-0.4-0.6-0.6-1.7l-0.2-0.7c0-0.2,0-0.5-0.1-0.7
		c0-0.2,0-0.4,0-0.4c0,0,0-0.5,0-1.2c0-1.4,0-1.7,0-2.1c0-0.2,0-0.4,0-0.4s0.2-1,0.3-1.7V40c0-0.5,0.2-1.3,0.2-1.3c0,0,0-0.3,0-0.6
		c0-0.5,0.1-0.9,0.3-1.2c0-0.1,0-0.2,0-0.3l0.2-0.5c0.1-0.2,0.2-0.5,0.2-0.5s0-0.2,0.1-0.2l0-0.1l0-0.3v-0.3c0,0,0.1-0.2,0.1-0.3
		c0,0,0.1-0.3,0.2-0.5c0.1-0.2,0.2-0.5,0.2-0.8c0.2-0.5,0.3-1.1,0.5-1.5c0-0.2,0.2-0.5,0.3-0.9c0-0.3,0.2-0.6,0.3-0.7
		c0.1-0.1,0.2-0.2,0.2-0.3s0.1-0.3,0.2-0.5c0.1-0.2,0.2-0.5,0.2-0.5c0-0.1,0.3-0.8,0.6-1.6c0.4-0.8,0.6-1.4,0.6-1.6l0-0.3l-0.2-0.5
		l0.1-0.3c0-0.2,0.3-0.6,0.4-0.7c0.2-0.2,0.4-0.5,0.4-0.6c0-0.1,0.2-0.4,0.4-0.5c0.3-0.2,0.5-0.5,0.6-1c0-0.1,0.2-0.4,0.3-0.6
		c0.2-0.3,0.4-0.5,0.4-0.6c0-0.1,0.3-0.3,0.4-0.4c0.2-0.2,0.3-0.3,0.3-0.4s0-0.3,0.1-0.3c0.4-0.4,0.7-0.9,0.7-0.9s0.4-0.6,0.9-1
		c0.2-0.2,0.8-0.8,0.8-0.8s0.2,0,0.3-0.2c0.7-0.6,0.9-0.8,1.3-1.1c0.3-0.1,0.5-0.3,0.5-0.3c0.3-0.3,1.2-0.5,2.1-0.5l0.8-0.1l0.5-0.2
		c0.3-0.2,0.6-0.2,0.6-0.3h0.5l0.3,0.1l0.4,0.4l0.6,0.4c0.1,0.1,0.4,0.3,0.6,0.5c0.2,0.2,0.4,0.3,0.5,0.3s0.6,0.4,0.7,0.6l0.9,0.8
		c0.4,0.4,0.8,0.9,1,1.1l0.2,0.3l0,0.5v0.5l-0.2,0.3c-0.3,0.3-0.7,0.4-1,0.3c-0.1,0-0.3,0-0.5,0c-0.4,0-1,0-1.2,0.2l-0.5,0.2
		c-0.2,0-0.4,0.2-0.5,0.4c-0.2,0.1-0.3,0.3-0.4,0.3c0,0-0.2,0.2-0.3,0.3c-0.3,0.2-0.8,0.6-0.9,0.6c0,0-0.3,0.3-0.8,0.8
		c-0.1,0.1-0.2,0.2-0.2,0.2c-0.1,0-1.6,1.6-1.6,1.7c0,0-0.2,0.3-0.4,0.5c-0.3,0.4-0.6,0.8-1.6,2.2l-0.3,0.5c0,0-0.2,0.3-0.5,0.6
		c-0.4,0.7-0.7,1.2-0.9,1.5c0,0-0.2,0.4-0.3,0.6c0,0.3-0.2,0.6-0.3,0.9c-0.2,0.2-0.4,0.6-0.5,1l-0.4,0.8c0,0-0.2,0.3-0.2,0.4v0
		c0,0.2-0.1,0.5-0.2,0.6c-0.1,0.2-0.2,0.5-0.3,0.7c0,0.2-0.1,0.4-0.2,0.5c0,0-0.2,0.3-0.2,0.6c-0.1,0.2-0.2,0.6-0.3,0.9
		c-0.1,0.3-0.3,0.6-0.3,0.9c0,0.2-0.1,0.6-0.2,0.8c-0.1,0.2-0.2,0.4-0.2,0.6l-0.2,1.2c-0.3,1.4-0.4,2.5-0.4,3.1c0,0.3,0,0.4,0,0.5
		c0,0.1,0.2,0.8,0.2,1.4c0.2,2.6,0.4,3.1,0.9,3.2l0.4,0.2l0.2,0c0.2,0,0.4,0,0.6,0c0.2,0,0.4-0.1,0.5-0.2c0.1,0,0.4-0.2,0.5-0.2
		c0.4,0,1.3-0.6,1.7-0.9c0,0,0.4-0.3,0.6-0.4c0.3-0.1,0.4-0.3,0.4-0.4c0.1-0.2,0.4,0,0.4,0s0.1,0.1,0.2,0.1l0.4,0.1l0.5,0.3h0.2
		l0.5-0.2c0.3-0.1,0.6-0.1,0.6-0.1l0.1,0l-0.3,0.3c-0.1,0.2-0.3,0.3-0.3,0.3c-0.1,0,0,0.3,0.1,0.4l0.1,0.2l0,0.2
		c0,0.1,0,0.3,0.1,0.4c0,0.1,0.2,0.3,0.2,0.4c0,0.1,0,0.3,0,0.3v0.2c0,0.1,0,0.3,0.1,0.4l0.2,0.3l-0.2,0.2c-0.2,0.2-0.2,0.3,0,0.4
		l0.2,0l-0.3,0.3c-0.2,0.2-0.4,0.4-0.5,0.4c-0.5,0.2-0.8,0.5-0.8,0.5c0,0.1-0.2,0.2-0.3,0.2l-0.4,0.2c0,0-0.3,0.2-0.4,0.2
		c-0.1,0-0.2,0.1-0.3,0.1c0,0-0.3,0.1-0.5,0.1s-0.5,0-0.6,0.1c0,0-0.7,0.2-0.9,0.2c0,0-0.2-0.1-0.6-0.2c-0.3,0-0.6-0.1-0.7-0.2
		l-0.2-0.1l0,0.1c0,0-0.2,0-0.2,0c-0.1,0-0.2,0.1-0.3,0.2l-0.2,0.2L278.5,53.1L278.5,53.1z M273.4,29.4l0.4-0.9l0.5-0.9l0-0.3
		l0.2-0.4c0.1,0,0.2-0.2,0.3-0.3c0-0.1,0.2-0.3,0.2-0.3L275,26c0-0.1,0.1-0.1,0.1,0c0,0-0.2,0.8-0.3,1l-0.2,0.3
		c0,0.1-0.1,0.3-0.2,0.4c-0.1,0.1-0.2,0.4-0.3,0.6c0,0.4-0.2,0.6-0.4,1.1c0,0-0.1,0.2-0.1,0.2c0,0.2-0.3,0.2-0.3,0L273.4,29.4
		L273.4,29.4z"/>
	<path class="st0" d="M90.1,102.1l0.1-0.4l-0.1-0.3c-0.1-0.2-0.2-0.3-0.2-0.4s-0.1-0.2-0.1-0.2l-0.2-0.2l0.1-0.7
		c-0.1-0.4,0-1.2-0.1-1.7v-0.9l0.1-0.7c0.3-1.3,0.4-1.5,0.6-0.9c0.2,0.3,0.3,0.5,0.6,0.5c0.3,0,0.5-0.3,0.6-1l0.3-1.2
		c0.1-0.4,0.2-0.9,0.2-1.1c0.1-0.5,0.2-1.9,0.4-2.5l0.1-1.9c0-0.9,0.1-1.6,0.1-1.7c0.1-0.3,0.3-1.4,0.3-1.9c0-0.2,0-0.3-0.1-0.4
		s0-0.2,0.1-0.4l0.1-0.3L93,83.6C93,83.5,93,83.4,93,83.3c0,1.1,0.5-3.9,0.4-4c0-0.1-0.2-0.1-0.3-0.1l-0.2-0.1l-0.2-0.2
		c0-0.2-0.2-0.3-0.3-0.3c-0.2-0.1-0.3-0.2-0.3-0.3l-0.1-0.2l0.2-0.6l-0.1-0.1c0-0.1-0.1-0.3-0.1-0.7l0.2-2.2c0-0.9,0.2-2,0.2-2.6
		c0.1-0.5,0.2-1.3,0.2-1.8l0.1-1c0.1-0.1,0.1-0.3,0.1-0.4s0.1-0.4,0.1-0.5c0-0.1,0-0.4-0.1-0.5l-0.1-0.3l0.2-0.9l0.2-1.2l0.2-0.3
		h0.2c0.2,0,0.4-0.1,0.5-0.2l0.8-0.3c0.4-0.1,0.7-0.2,0.8-0.3c0.2-0.2,0.5-0.1,0.6,0c0.1,0.1,0.3,0.1,0.4,0.1s0.4,0.1,0.6,0.2
		c0.2,0.1,0.4,0.1,0.5,0.1c0.2,0,1.6,0.5,1.9,0.7c0.2,0.2,0.4,0.2,0.6,0.3c0.3,0.1,0.9,0.6,1,0.9c0.1,0.1,0.2,0.5,0.1,0.9l0.1,0.6
		l-0.3,0.5c-0.1,0.3-0.3,0.6-0.3,0.7c0,0.1-0.1,0.3-0.1,0.4c-0.1,0.2-0.1,0.5-0.1,0.9c-0.1,0.4-0.2,0.8-0.2,0.9
		c-0.1,0.2-0.1,0.4-0.1,0.4c0,0.1-0.1,0.5-0.2,1L99.5,76l-0.1,1c-0.1,0.2-0.1,0.6-0.2,1.1c0,0.4-0.1,1-0.2,1.2
		c-0.1,0.2-0.1,1-0.2,1.8c0,0.8-0.1,2-0.2,2.7l-0.4,3.9c-0.1,1.4-0.2,2.8-0.2,3c-0.1,0.2-0.1,1-0.2,1.8c0,0.8-0.1,1.5-0.2,1.6
		l-0.1,1.4c0,0.9-0.1,1.7-0.2,1.8c-0.1,0.3-0.1,0.7-0.1,0.9c-0.1,0.8-0.2,1.6-0.3,1.8c-0.1,0.2-0.3,0.4-0.3,0.4s-0.2,0.3-0.2,0.4
		c-0.1,0.1-0.1,0.1-0.2,0.1c-0.1,0-0.1,0.1-0.2,0.2l-0.1,0.1l-0.1-0.1c0,0-0.2-0.1-0.3,0.2c-0.2,0.3-0.4,0.4-1.1,0.4l-0.5,0.1
		l-0.1-0.5h-0.1c-0.1,0-0.1,0.1-0.2,0.2c-0.1,0.2-0.3,0.3-1.1,0.5l-0.8,0.2h-0.7c-0.4,0-0.8,0-0.9,0.1l-0.1,0.1L90.1,102.1
		L90.1,102.1z M91.4,94.3c0-0.1,0.1-0.1,0.1-0.1s0.1,0.1,0.1,0.1s-0.1,0.1-0.1,0.1S91.4,94.4,91.4,94.3z"/>
	<path class="st0" d="M126.3,102.1c0,0-0.4-0.3-0.5-0.3c-0.1,0-0.2,0.1-0.2,0.1c0,0.1-0.1,0.1-0.2,0.1s-0.3-0.1-0.5-0.2
		c-0.2,0-0.6-0.1-0.8-0.2l-0.4-0.2l0.3-3.2l0.2-0.1c0.4-0.1,0.5-0.4,0.5-1.7v-0.6l-0.3-0.6l0.1-0.5c0-0.5,0.3-1.3,0.5-1.9l0.2-0.3
		l-0.1-0.2c0,0-0.1-0.3-0.1-0.4s-0.1-0.4-0.1-0.7v-0.5c0.1,0,0.1-0.2,0.1-0.4c0.1-0.2,0.1-0.5,0.2-0.6l0.1-0.2l-0.1-0.2v-0.3
		c0.2-0.5,0.3-1.3,0.3-3.5c0.1-1.1,0.2-1.4,0.4-2.2l0.1-0.3l-0.3-0.8l0.1-0.4c0-0.2,0.1-0.6,0.1-0.9l0.2-0.5l-0.3-0.8l-0.2-0.1
		c-0.2-0.1-0.3-0.2-0.3-0.2c0,0-0.1-0.2-0.1-0.6c0-0.3,0-0.9,0.1-1.6c0.1-0.8,0.2-1.8,0.2-2.2c0.1-1.9,0.2-3.3,0.4-4.8l0.1-0.2
		l-0.3-0.2l0.2-2.2l0.4-0.4v-0.2c0-0.2,0.1-0.4,0.1-0.5l0.2-0.3l-0.1-0.2c-0.1-0.2,0-0.2,0.3-0.2h0.2c0.4,0,0.9-0.1,1.2-0.3
		c0.4-0.2,0.8-0.3,1.2-0.2l0.4,0.1l0.3-0.2c0.4-0.3,0.9-0.4,1.2-0.4h0.3c0.5,0,1.1-0.1,1.3-0.1c0.1-0.1,0.3-0.1,0.4-0.1
		c0.1,0,0.3-0.1,0.5-0.1l0.7-0.1l0.5-0.1l2.1,0.2c1.1,0.1,2.1,0.3,2.2,0.3l0.6,0.1c0.6,0.2,2.2,0.9,2.4,1.1c0.2,0.2,1.1,0.7,1.2,0.7
		c0.1,0,1.4,1.4,2,2.2c0.2,0.3,0.6,0.9,0.9,1.1c0.2,0.3,0.4,0.6,0.4,0.6c0,0.1,0.2,0.2,0.2,0.3c0.1,0.2,0.2,0.4,0.3,0.5
		s0.2,0.5,0.3,0.6c0.4,0.9,0.6,1.9,0.7,3.2c0,0.7-0.3,3.4-0.4,3.7c-0.1,0.1-0.2,0.4-0.2,0.8c-0.1,0.3-0.2,0.6-0.3,0.7
		s-0.2,0.2-0.2,0.3s0,0.2-0.1,0.3c-0.2,0.3-0.3,0.6-0.4,0.8c0,0.1-0.1,0.2-0.2,0.3s-0.2,0.3-0.3,0.4c-0.3,0.5-0.4,0.6-0.5,0.6
		c-0.2-0.1-0.7,0.5-0.6,0.8c0,0.1-0.1,0.2-0.2,0.2c-0.1,0.1-0.2,0.2-0.2,0.2c-0.1,0.2-0.3,0.4-0.5,0.4c-0.1,0-0.2,0.1-0.2,0.2
		c-0.1,0.2-0.2,0.6-0.3,0.7c-0.1,0-0.2,0.1-0.3,0.3c-0.1,0.1-0.2,0.2-0.2,0.2c-0.2,0-0.6,0.3-0.6,0.4c0,0.2-1.8,1.6-2,1.7
		c-0.2,0.1-0.4,0.2-0.6,0.3c-0.2,0.1-0.4,0.3-0.6,0.3c-0.1,0-0.3,0.1-0.4,0.2c-0.1,0.1-0.3,0.2-0.4,0.2h-0.2c-0.2,0-0.4,0.1-0.6,0.2
		c-0.2,0.1-0.5,0.2-0.8,0.3c-0.9,0.2-1.3,0.3-1.8,0.3c-0.3,0-0.6,0-1.1-0.1l-0.7-0.1l-0.1,0.1c-0.2,0.2-0.3,0.1-0.3-0.1l0.1-0.1
		l-0.2,0.1c-0.1,0-0.3,0.1-0.4,0.1l-0.2,0.1l-0.1,0.5c-0.1,0.4-0.1,0.9-0.2,1.3c-0.1,0.3-0.1,0.6-0.2,0.6c0,0-0.1,0.1-0.2,0.3
		l-0.2,0.3l-0.2,1.8c-0.1,1-0.2,1.9-0.2,1.9s-0.1,0.2,0,0.3c0.1,0.2,0.1,0.4,0,0.5l-0.1,0.2l0.2,0.3l-0.3,0.3
		c-0.2,0.1-0.3,0.3-0.3,0.3s-0.1,0.2-0.1,0.3c0,0-0.1,0.2,0,0.3l0.1,0.2l-0.5,0.3l0.1,0.2c0,0.1-0.1,0.3-0.1,0.3
		c-0.1,0-0.1,0.1-0.1,0.2l-0.2,0.3c-0.1,0.1-0.3,0.2-0.3,0.2c-0.1,0.1-0.2,0.2-0.3,0.1c-0.3,0-0.5,0.2-0.5,0.4l-0.1,0.2l-0.2,0.1
		c-0.1,0.1-0.3,0.1-0.4,0.1c0,0-0.3,0.1-0.3,0.1c-0.1-0.1-0.2,0.1-0.4,0.2l-0.3,0.2l-0.5-0.1C126.5,102.2,126.3,102.1,126.3,102.1
		L126.3,102.1z M135.5,84.1c0.4-0.2,1.6-0.9,2-1.2c0.3-0.2,0.3-0.3,1.2-0.9c0.5-0.4,0.9-0.7,1-0.9c0.2-0.1,0.3-0.3,0.4-0.4
		c0.1-0.1,0.2-0.2,0.2-0.3c0.1-0.1,0.1-0.2,0.2-0.2c0.1,0,0.3-0.2,0.5-0.4l0.4-0.4v-0.2c0-0.2,0.1-0.4,0.2-0.5
		c0.1-0.2,0.2-0.3,0.1-0.4l0.2-0.4c0.2-0.2,0.2-0.3,0.3-0.5l0.3-0.4l0.1-0.3l-0.1-0.6l0.3-0.4l-0.1-0.2c0-0.1-0.1-0.3-0.1-0.5
		c0-0.4-0.1-0.8-0.4-0.9c-0.1-0.1-0.3,0-0.4,0.1l-0.3,0.1l-0.5-0.3c-0.2-0.2-0.4-0.3-0.4-0.4c-0.1-0.1-0.1-0.3,0-0.4l0.1-0.4
		l-0.2-0.2c-0.1-0.1-0.3-0.3-0.4-0.3s-0.2-0.1-0.2-0.2s-0.3-0.4-0.4-0.5c-0.2-0.1-0.3-0.2-0.2-0.3c0,0-0.3-0.2-0.4-0.4l-0.7-0.8
		c-0.2-0.2-0.4-0.4-0.5-0.5l-1.6,0.2c-0.1,0.1-0.4,0.1-0.5,0.1c-0.2,0.1-0.7,0.1-1.1,0.2l-0.8,0.2l-0.3,0.2
		c-0.3,0.3-0.3,0.6-0.2,0.9c0,0.2,0.1,0.4,0.1,0.7l0.3,1.8c0.1,0.2,0.2,0.5,0.1,0.6c0,0.1,0.1,0.3,0.1,0.5c0.1,0.2,0.1,0.4,0.1,0.5
		c0,0.2,0,0.5,0.1,0.6c0.1,0.2,0.1,0.4,0.1,0.5c0,0.1,0.1,0.4,0.1,0.5c0.1,0.2,0.1,0.5,0.1,0.9l0.1,1c0.1,0.3,0.1,0.5,0.1,0.6
		L134,81l-0.4,3.3l-0.1,0.2h0.1C133.8,84.6,135.1,84.3,135.5,84.1L135.5,84.1z"/>
	<path class="st0" d="M159.8,102c-0.1-0.1-0.4-0.1-0.6-0.2c-0.2,0-0.6-0.1-0.8-0.2c-0.2-0.1-0.5-0.2-0.6-0.2c-0.4,0-0.8-0.2-1-0.4
		c-0.1-0.1-0.2-0.3-0.3-0.3l-0.1-0.1l-0.3,0.1l-0.5-0.2l0.2-0.2l-0.2-0.2c0,0-0.2-0.3-0.3-0.5l-0.1-0.3l-0.2-0.1
		c-0.1-0.1-0.2-0.1-0.3-0.1c-0.1,0-0.7-0.5-0.6-0.5l0.2-0.1c0.2-0.1,0.2-0.2-0.1-0.4l-0.2-0.2l-0.1-0.6l-0.4-0.4
		c-0.2-0.3-0.4-0.4-0.4-0.4c0,0,0-0.1,0.1-0.2l0.1-0.2l-0.1-0.2l-0.2-0.4c0-0.2-0.1-0.3-0.2-0.5c-0.1-0.2-0.2-0.4-0.2-0.5
		c-0.1-0.1-0.2-0.3-0.3-0.5c-0.1-0.2-0.2-0.4-0.2-0.5l-0.2-0.3c-0.1-0.1-0.2-0.4-0.2-1c-0.1-0.5-0.2-1-0.2-1
		c-0.1-0.2-0.3-0.9-0.3-1.4c-0.1-0.3-0.2-0.7-0.2-0.7l-0.1-0.3c0-0.2-0.4-0.6-0.6-0.7h-0.1V88l0.2-1.4l0.1-0.6
		c0.1,0,0.1-0.2,0.1-0.4v-0.5c0.1-0.1,0.1-0.2,0.1-0.3s0.1-0.2,0.1-0.3l0.1-0.3c0-0.1,0-0.3,0.1-0.5c0.1-0.2,0.2-0.5,0.1-0.6
		c0-0.1,0.1-0.3,0.1-0.3c0.1-0.1,0.1-0.3,0.1-0.4s0.1-0.4,0.2-0.5c0.1-0.2,0.3-0.8,0.3-1.3c0-0.2,0.1-0.5,0.1-0.6
		c0.1-0.1,0.1-0.3,0.1-0.3c0.1-0.1,0.1-0.3,0.2-0.5c0.1-0.2,0.2-0.4,0.2-0.6c0-0.2,0.1-0.4,0.1-0.5c0.1-0.2,0.3-0.8,0.4-1.6
		c0.1-0.1,0.1-0.4,0.2-0.6l0.1-0.4l-0.1-0.4c-0.1-0.2-0.1-0.4-0.2-0.5c0-0.3,0.1-1.2,0.2-1.4l1.3-2.4c0-0.1,0.2-0.3,0.3-0.5
		c0.1-0.1,0.3-0.4,0.5-0.6c0.4-0.6,0.8-1.1,1.6-2c0.4-0.4,0.8-1,0.9-1.2c0.1-0.3,0.3-0.5,0.4-0.5c0.2-0.1,0.4-0.3,0.5-0.5
		c0.2-0.2,0.4-0.4,0.5-0.4l0.2-0.1L160,65l0.5-0.2L162,65l0.3-0.2c0.2-0.1,0.4-0.1,0.6,0c0.2,0.1,0.3,0.1,0.4,0.1
		c0.2,0,0.3,0.1,0.4,0.2l0.1,0.1h0.3c0.2,0,0.4,0.1,0.6,0.1c0.1,0.1,0.2,0.1,0.2,0.1c0.2,0,0.3-0.1,0.4-0.2c0.1-0.1,0.2-0.2,0.3-0.2
		l0.4-0.1l0.3-0.1l0.2,0.2c0.1,0.1,0.3,0.2,0.3,0.2c0.1,0.1,0.2,0.2,0.3,0.2c0,0.1,0.3,0.2,0.5,0.3c1,0.5,1.5,0.9,1.7,1.2
		c0.1,0.1,0.2,0.3,0.3,0.3c0.1,0,0.3,0.1,0.4,0.2c0.1,0.1,0.3,0.3,0.5,0.4c0.1,0.1,0.2,0.2,0.2,0.3l0.1,0.1h0.8l0.3-0.4l0.2,0.2
		c0.2,0.1,0.4,0.1,0.5-0.1c0.1-0.1,0.3-0.2,0.3-0.1c0.1,0.1,0.3,0.4,0.4,0.6c0.1,0.2,0.2,0.4,0.3,0.5s0.2,0.3,0.2,0.3v0.1h-0.3
		c-0.1,0-0.2,0.1-0.2,0.3c0,0.6,0.3,1.1,0.5,1.3l0.2,0.2l0.1,0.3v0.2l0.2,0.2c0.1,0.1,0.3,0.2,0.4,0.2h0.2l0.1,0.2
		c0.1,0.2,0.3,0.2,0.3,0c0-0.1,0.2-0.2,0.3-0.2c0.2-0.1,0.3-0.1,0.4-0.2c0.1-0.1,0.1-0.1,0.1-0.1c0.2,0.3,0.3,0.5,0.4,0.6
		c0,0.1,0.1,0.2,0.1,0.4c0.1,0.1,0.2,0.3,0.2,0.5c0.1,0.3,0.2,0.2,0.1-0.2l-0.1-0.3l0.2-0.2l0.1,0.1c0,0.1,0.1,0.2,0.1,0.3
		s0.1,0.5,0.2,1c0.3,1,0.5,2.8,0.5,3.9v0.9c0,0.1-0.1,0.4-0.1,0.8c0,0.8-0.2,2.4-0.3,2.6c0,0.1-0.1,0.2-0.1,0.2s-0.1,0.1-0.2,0.2
		l-0.2,0.3l0.1,0.2c0.2,0.3,0.2,0.3-0.1,0.6c-0.1,0.1-0.1,0.3-0.1,0.3s0,0.2-0.1,0.3c-0.1,0.2-0.1,0.3-0.1,0.4s-0.1,0.3-0.2,0.4
		c-0.1,0.2-0.1,0.3-0.1,0.4c0,0.1,0,0.2-0.1,0.3c-0.1,0.1-0.1,0.3-0.1,0.4s0,0.2-0.1,0.2l-0.2,0.6c-0.1,0.3-0.3,0.6-0.3,0.7
		c-0.1,0.1-0.2,0.4-0.3,0.8c-0.1,0.3-0.2,0.5-0.3,0.5c-0.1,0-0.2,0.3-0.2,0.6c0,0.2-0.1,0.3-0.1,0.3c-0.1,0-0.2,0.1-0.2,0.3
		c-0.1,0.3-0.2,0.4-0.2,0.2c-0.1-0.2-0.2-0.1-0.3,0.2l-0.1,0.2l0.1,0.1c0.1,0.1,0.3,0,0.3-0.2c0-0.1,0.1-0.2,0.2-0.1v0.1
		c0,0.2-0.2,0.8-0.6,1.2c-0.1,0.2-0.2,0.3-0.2,0.4s-0.1,0.2-0.2,0.4c-0.1,0.2-0.2,0.3-0.2,0.3c0,0.1-0.1,0.1-0.1,0.2
		s-0.2,0.3-0.3,0.5l-0.5,0.8l-0.4,0.5c-0.4,0.6-0.8,1.1-0.9,1.2c-0.2,0.2-0.3,0.4-0.4,0.6c-0.1,0.1-0.1,0.2-0.2,0.2
		c0,0-0.2,0.2-0.2,0.3c-0.1,0.3-1.3,1.7-2.1,2.3c-0.3,0.2-0.6,0.6-0.6,0.6l-1.2,1l-1,0.4c-0.5,0.1-1.1,0.5-1.1,0.5l-0.3,0.2h-0.5
		c-0.3,0.1-0.6,0.2-0.6,0.2s-0.6,0.2-1.4,0.2C160.9,102.2,160,102.1,159.8,102L159.8,102z M161,97.4l1-1.1c0.8-0.9,1.1-1.3,1.1-1.4
		c0,0,0.2-0.2,0.4-0.4c0.2-0.2,0.5-0.5,0.7-0.7c0.1-0.2,0.3-0.4,0.4-0.5c0.2-0.1,0.7-0.6,0.6-0.6c0-0.1,0.3-0.4,1.4-1.7
		c0.2-0.2,0.4-0.5,0.4-0.8c0.1-0.2,0.3-0.5,0.4-0.7c0.1-0.2,0.3-0.4,0.3-0.5c0-0.2,0.1-0.4,0.2-0.5s0.2-0.3,0.2-0.3
		c0-0.1,0-0.2,0.1-0.2s0.1-0.2,0.1-0.3l0.1-0.3l-0.2-0.2v-0.3c0.1-0.6,0.6-1.9,0.9-2c0.3-0.2,0.5-0.5,0.6-1.2c0-0.2,0.1-0.4,0.2-0.5
		c0.1-0.2,0.1-0.3,0.1-0.3c0-0.1,0.5-0.7,0.6-0.7c0.2,0,0.3-0.1,0.3-0.2c0-0.2,0.1-0.4,0.1-0.5c0.1-0.1,0.2-0.2,0.3-0.3l0.1-0.2
		l0.1-0.5v-1.3l0.3-0.4l-0.3-0.8l0.2-0.3c0.1-0.1,0.2-0.3,0.2-0.3v-0.1c0-0.1,0.1-0.3,0.1-0.4l0.2-0.4l-0.1-0.4c0-0.2,0-0.4,0.1-0.5
		c0-0.1,0-0.5-0.1-1c-0.1-1.2-0.2-1.9-0.1-2.1v-0.2c0-0.2-0.1-0.4-0.1-0.5c-0.1-0.1-0.2-0.3-0.2-0.5c-0.1-0.2-0.2-0.6-0.4-0.9
		c-0.2-0.2-0.3-0.5-0.3-0.7c0-0.1-0.1-0.3-0.2-0.4c-0.1-0.1-0.2-0.2-0.1-0.2c0.1-0.1-0.2-0.4-0.5-0.6l-0.2-0.2l-0.2,0.1
		c-0.1,0.1-0.1,0.2-0.2,0.3l-0.1,0.3l0.2,0.3c0.1,0.1,0.2,0.3,0.1,0.3c0,0.1,0.1,0.3,0.2,0.4s0.2,0.2,0.2,0.3
		c0.1,0.1,0.1,0.1,0.1,0.1s0.1,0,0.1,0.1c0,0.1,0,0.1-0.1,0.1s-0.8-0.6-0.9-0.8c-0.1-0.2-0.3-0.3-0.5-0.4c-0.2-0.1-0.4-0.2-0.4-0.3
		c-0.1-0.1-0.2-0.3-0.2-0.3l-0.1-0.1l0.1-0.1c0.1-0.1,0.1-0.3,0-0.4c-0.1,0-0.2-0.1-0.3-0.2l-0.2-0.2h-0.8l-0.2-0.2
		c-0.2-0.2-0.5-0.3-0.6-0.2c-0.1,0.1-0.2,0.4-0.2,0.6v0.1c0,0.3-0.2,0.8-0.4,1.1c-0.2,0.1-0.4,0.4-0.5,0.5c-0.2,0.2-0.5,0.3-0.6,0.4
		c-0.2,0.1-0.3,0.2-0.4,0.2c-0.1,0-0.2,0.2-0.3,0.3c-0.1,0.1-0.2,0.3-0.4,0.5l-0.5,0.6c-0.1,0.2-0.3,0.5-0.4,0.6
		c-0.1,0.1-0.2,0.4-0.3,0.6c-0.1,0.3-0.2,0.5-0.3,0.8l-0.4,0.8c-0.2,0.2-0.3,0.5-0.4,0.6s-0.2,0.2-0.2,0.3l-0.6,1.1l-0.9,1.4
		c-0.1,0.3-0.3,0.5-0.3,0.6c-0.1,0.1-0.2,0.2-0.2,0.4c-0.1,0.2-0.2,0.4-0.2,0.4c-0.1,0.1-0.2,0.4-0.4,0.9c-0.2,0.4-0.4,0.8-0.4,0.9
		c-0.1,0.1-0.2,0.2-0.2,0.3l-0.3,0.7c-0.3,0.8-0.4,0.8-0.5,1.2c-0.2,0.6-0.3,1.1-0.3,1.3c0,0.1,0,0.3-0.1,0.5
		c-0.2,0.9-0.2,1-0.2,1.3c0,0.2-0.1,0.3-0.1,0.4c-0.1,0.2-0.2,1-0.1,1.6c0,0.3,0,0.5-0.1,0.6c-0.1,0.1,0.1,0.8,0.2,1.9
		c0.2,1.2,0.3,1.8,0.2,1.9l-0.1,0.1l0.1,0.2c0.1,0.1,0.2,0.3,0.2,0.3l0.2,0.5l0.2,0.4v0.8h0.1c0.1,0,0.2,0.1,0.2,0.3l0.2,0.2
		l-0.2,0.2l0.2,0.1c0.2,0.1,0.3,0.4,0.4,0.8c0.1,0.3,0.4,0.8,0.8,1l0.3,0.2l0.4,0.1C160.2,97.8,160.7,97.6,161,97.4L161,97.4z
		 M164.3,65.4c-0.1-0.1-0.3-0.1-0.3,0s0.3,0.2,0.4,0.2C164.4,65.6,164.4,65.5,164.3,65.4L164.3,65.4z M168,65.4
		c0-0.1-0.1-0.2-0.3-0.3c-0.1-0.1-0.2-0.2-0.2-0.3l-0.1-0.2h0.2c0.1,0,0.2,0.1,0.2,0.2L168,65l0.4-0.1l-0.2,0.3h0.6l-0.4,0.1
		l-0.1,0.4l-0.2-0.1C168.1,65.5,168,65.5,168,65.4L168,65.4z M170.9,71.5c0-0.1-0.1-0.2-0.1-0.2c-0.1,0-0.1-0.2-0.2-0.3l-0.2-0.2
		l0.2,0.1c0.1,0.1,0.2,0.2,0.3,0.3l0.2,0.1v0.2C171.1,71.8,170.9,71.8,170.9,71.5L170.9,71.5z M173.1,70.9c0.2-0.2,0.1-0.6-0.1-0.6
		l-0.3-0.2l-0.2-0.3l-0.2,0.2l0.1,0.4c0.1,0.2,0.2,0.5,0.2,0.5C172.8,71.1,173,71.1,173.1,70.9L173.1,70.9z M173,72.2
		c0-0.1-0.1-0.1-0.1-0.1s-0.1,0.1-0.1,0.2C172.8,72.4,173,72.4,173,72.2L173,72.2z M173.2,73.5c0-0.1,0-0.2-0.1-0.2
		c-0.2,0-0.2,0.1-0.2,0.2C173,73.7,173.2,73.7,173.2,73.5z M173.3,74.3c0-0.2-0.2-0.2-0.2,0v0.2C173.2,74.5,173.3,74.4,173.3,74.3z"
		/>
	<path class="st0" d="M183.6,102.6L183.6,102.6c0-0.4-0.4-0.6-0.6-0.2c-0.2,0.2-0.4,0.3-0.5,0.1c0,0-0.2-0.1-0.3-0.1h-0.2v-0.1
		c-0.1-0.3-0.3-0.4-0.6-0.2l-0.2,0.1H181c-0.2-0.1-0.6-0.2-0.6-0.2l-0.7-0.2c-0.6-0.1-0.8-0.1-1-0.5l-0.2-0.3l0.1-0.2
		c0.1-0.1,0.1-0.3,0.1-0.3c-0.1-0.1-0.2-1.2-0.1-1.4c0-0.2,0.1-0.3,0-0.4c0-0.1,0-0.2,0.1-0.2c0.1-0.1,0.2-0.2,0.2-0.4
		c0.1-0.2,0.2-0.5,0.4-0.6l0.2-0.2l-0.1-0.3c0-0.2,0-0.4,0.1-0.6l0.2-2.7c0-0.1,0.2-1.5,0.2-1.7c0-0.1,0.1-0.3,0.1-0.3l0.1-0.1
		l0.2,0.1c0,0,0.3,0.1,0.3,0.1l0.2,0.1c0,0,0.1,0.1,0.2,0.1c0.2,0,0.3-0.4,0.3-1.1l0.1-0.8c0.1-0.2,0.1-0.4,0.1-0.6
		c0-0.3-0.1-0.4-0.3-0.4s-0.3-0.2-0.2-0.6l0.1-0.8c0.1-0.2,0.1-0.5,0.1-0.6c0.1-0.2,0.1-0.5,0.1-0.9v-0.5l-0.1-0.2
		c-0.1-0.1-0.5-1.4-0.4-1.7l0.1-0.3v-0.5c0-0.8,0.1-1.3,0.2-1.4c0,0,0.1-0.2,0.1-0.3v-0.1c0-0.2,0.2-0.4,0.5-0.5l0.2-0.1l0.1-0.4
		c0.1-0.9,0.1-1.3,0.1-1.6c-0.1-0.2-0.1-0.5-0.2-0.9c-0.1-0.5-0.1-0.6,0.2-0.6c0.2,0,0.3-0.2,0.2-0.5l-0.1-0.4l-0.4-0.3v-0.4
		c0-0.2,0.1-0.4,0.1-0.4l0.1-0.4l0.1-0.3L181,74v-0.4c0-0.9,0.1-1.4,0.3-1.7l0.1-0.2l-0.1-0.8c0-0.5,0-0.9,0.1-1.1
		c0.1-0.2,0.1-0.5,0.1-0.7v-0.2c0-0.2,0.1-0.4,0.1-0.4l0.1-0.5c-0.1-0.2,0-0.4,0.1-0.5c0.1-0.2,0.1-0.4,0.1-0.5s0-0.4,0.1-0.5
		c0-0.1,0.1-0.5,0-0.8l-0.1-0.5h0.2c0.1,0,0.2,0,0.4-0.1c0.2-0.1,0.4-0.1,0.7-0.1c0.2,0,0.5-0.1,0.6-0.1l0.6-0.2
		c0.2,0,0.4-0.1,0.6-0.2c0.2-0.2,0.5-0.2,0.6-0.1c0.1,0.1,0.3,0.2,0.5,0.3c0.2,0.1,0.6,0.4,0.8,0.6c0.4,0.4,0.5,0.5,1.6,1l0.9,0.3
		l0.3,0.3c0.8,0.8,1.3,1.6,1.3,2.2c0,0.2-0.1,0.6-0.2,1c-0.5,1.4-0.8,2.6-0.7,3.3c0,0.2,0,0.3-0.1,0.3c-0.1,0.1-0.1,0.2-0.1,0.4
		c-0.1,0.2-0.1,0.4-0.1,0.6c-0.1,0.3-0.1,0.4-0.2,1.4c0,0.3-0.1,0.6-0.1,0.7c0,0.1-0.1,0.3-0.1,0.5l-0.2,2.5
		c-0.1,0.3-0.1,0.8-0.1,1.1c0,0.3-0.1,0.5-0.1,0.6c-0.1,0.2-0.2,0.6-0.1,0.9c0.1,0.3,0,1.2-0.2,2.2l-0.2,0.5c0,0.1,0,0.2,0.1,0.3
		l0.1,0.1h0.6v0.2c0,0.2,0.1,0.3,0.3,0.3s0.3-0.2,0.4-0.4c0.2-0.3,0.5-0.7,0.6-0.7c0.2,0,0.5-0.4,0.6-0.8l0.1-0.3l0.4-0.5
		c0.2-0.3,0.4-0.6,0.5-0.8c0-0.1,0.1-0.3,0.2-0.4c0.2-0.2,0.4-0.9,0.4-1.1c0-0.1,0.1-0.3,0.2-0.4c0.2-0.2,0.5-1,0.5-1.1
		c0-0.1,0.1-0.3,0.9-1.3l0.3-0.5l0.1-0.2l-0.1-0.2c-0.2-0.3-0.2-0.4-0.1-0.7l0.2-0.5l0.8-1.4c0.1-0.3,0.4-0.9,0.5-0.9
		c0.1,0,0.1-0.1,0.2-0.2l0.2-0.5c0.1-0.1,0.2-0.3,0.2-0.5c0-0.2,0.2-0.5,0.3-0.9l0.2-0.6c0,0,0.1-0.1,0.2-0.2
		c0.1-0.1,0.2-0.2,0.2-0.3c0-0.1,0-0.2,0.1-0.2c0.1-0.1,0.2-0.2,0.4-0.4c0.1-0.1,0.2-0.2,0.2-0.2c0.2,0,0.4-0.4,0.5-0.8
		c0-0.2,0.1-0.4,0.1-0.5c0.1-0.1,0.1-0.3,0.1-0.4c0-0.5-0.2-1.1-0.2-1.2c-0.1-0.1-0.7-0.2-0.8-0.1c-0.1,0.1-0.2-0.1-0.1-0.2l0.1-0.2
		l-0.1-0.8l-0.1-0.8l0.2-0.3c0.1-0.2,0.1-0.3,0.2-0.3c0.1,0,0.3,0.1,0.5,0.3c0.3,0.2,0.6,0.4,0.8,0.4l0.3,0.2l0.3-0.1l0.5-0.1
		c0.1,0,0.2-0.1,0.3-0.2c0.1-0.1,0.2-0.2,0.3-0.2c0.1,0,0.3-0.1,0.3-0.1c0.1-0.2,0.3-0.1,0.3,0.1v0.2l0.2-0.1c0.1-0.1,0.2,0,0.4,0.1
		c0.2,0.1,0.3,0.1,0.5,0.1l0.3-0.1l0.3,0.3c0.2,0.2,0.4,0.4,0.5,0.4c0.1,0,0.3,0.2,0.6,0.4c0.2,0.3,0.6,0.6,0.8,0.8l0.4,0.4l0.4,0.5
		c0.2,0.4,0.3,0.6,0.3,0.9c0,0.6-0.9,1.9-1.1,2.2c-0.1,0.1-0.3,0.2-0.3,0.3l-0.3,0.4c-0.3,0.4-0.4,0.7-1,1.8l-0.6,1.2
		c-0.1,0.2-0.2,0.3-0.2,0.4l-0.4,0.8c-0.3,0.3-0.5,0.8-0.6,1c-0.2,0.2-0.3,0.5-0.4,0.5c-0.1,0.1-0.2,0.2-0.2,0.3
		c-0.1,0.1-0.3,0.4-0.5,0.7c-0.2,0.2-0.4,0.5-0.4,0.7l-0.6,1.1c-0.1,0.2-0.2,0.3-0.2,0.4l-0.5,0.7c-0.5,0.9-1.1,1.8-1.6,2.4
		c-0.2,0.3-0.4,0.6-0.5,0.7l-0.8,1c-0.4,0.4-0.8,0.8-0.8,0.9c-0.2,0.3-0.6,0.9-0.7,0.9s-0.4,0.3-0.4,0.4c0.1,0.1-0.3,0.5-0.5,0.6
		c-0.2,0.1-0.3,0.2-0.3,0.3c-0.1,0.1-0.2,0.3-0.3,0.4c-0.4,0.3-0.4,0.4-0.3,0.8c0.1,0.2,0.2,0.4,0.2,0.5c0.1,0.2,0.2,0.4,0.3,0.5
		c0.2,0.3,1.9,2,2.1,2.2c0.1,0.1,0.5,0.4,0.8,0.7l1,0.9l2,1.6c1,0.7,1.7,1.2,2.1,1.6l0.4,0.3l-0.2,0.2l-0.3-0.2
		c-0.2-0.1-0.3-0.1-0.4-0.1c-0.1,0.1-0.1,0.5,0.1,0.5l0.1,0.2v0.1l-0.2-0.1c-0.3-0.2-0.5,0.1-0.4,0.2l0.1,0.1l-0.2,0.2l-0.2-0.1
		c-0.1-0.1-0.3,0-0.3,0h-0.1l0.1,0.2c0.1,0.1,0.1,0.2,0.1,0.3c-0.1,0.1-0.4,0-0.4,0c-0.1-0.1-0.4,0.1-0.4,0.1c0,0.1-0.1,0.2-0.3,0.2
		h-0.3l-0.1-0.1c-0.1-0.1-0.1-0.2-0.3-0.2c-0.1,0-0.3,0-0.5-0.1l-0.3-0.1l-0.1,0.1h-0.2c-0.2,0-0.6-0.1-0.8-0.1
		c-0.1-0.1-0.1-0.2-0.1-0.3l-0.2-0.4l-0.1-0.2h0.2c0.1-0.1,0.2-0.1,0.2-0.2v-0.2l-0.4-0.2c-0.4-0.2-0.9-0.6-1.4-1.1
		c-0.3-0.2-0.6-0.4-0.7-0.5l-0.3-0.2l-0.1,0.1c-0.2,0.1-0.3,0.1-0.3-0.2l-0.1-0.2l-0.8-0.6c-0.5-0.3-1.1-0.9-1.5-1.2
		c-0.3-0.3-0.7-0.6-0.8-0.6s-0.2-0.1-0.3-0.2c-0.5-0.4-0.7-0.5-1.1-0.5c-0.2,0-0.5-0.1-0.6-0.1l-0.2-0.1l-0.1,0.1
		c-0.1,0.2-0.3,0.9-0.3,1.2c0,0.2,0,0.4-0.1,0.6c-0.1,0.2-0.1,0.5-0.1,0.7c-0.1,0.2-0.1,0.4-0.1,0.4c0,0-0.1,0.1-0.1,0.2
		c0.1,0.1,0,0.3-0.1,0.4l-0.1,0.3v0.5c-0.1,0.2-0.1,0.4-0.1,0.6c0,0.3-0.2,1.4-0.2,1.9l-0.1,0.6c-0.1,0.2-0.1,0.4,0,0.5
		c0,0.1,0,0.2-0.1,0.2l-0.1,0.4c0,0.2-0.2,0.5-0.2,0.5s-0.1,0.2-0.1,0.2c0,0.2-0.2,0.6-0.3,0.5l-0.4,0.1l-0.1,0.2l-0.7-0.1l-0.8,0.5
		l-0.1,0.2c0,0.1-0.1,0.2-0.2,0.2c-0.2,0.1-0.3,0-0.3-0.2L183.6,102.6z M198,68.7c0-0.1,0.1-0.1,0.1-0.1c0.1,0,0.1,0.3-0.1,0.3
		C198,68.9,197.9,68.8,198,68.7L198,68.7z"/>
	<path class="st0" d="M215,102c-0.1-0.1-0.4-0.1-0.6-0.2c-0.2,0-0.6-0.1-0.8-0.2c-0.2-0.1-0.5-0.2-0.6-0.2c-0.4,0-0.8-0.2-1-0.4
		c-0.1-0.1-0.2-0.3-0.3-0.3l-0.1-0.1l-0.3,0.1l-0.5-0.2l0.2-0.2l-0.2-0.2c0,0-0.2-0.3-0.3-0.5l-0.1-0.3l-0.2-0.1
		c-0.1-0.1-0.2-0.1-0.3-0.1c-0.1,0-0.7-0.5-0.6-0.5l0.2-0.1c0.2-0.1,0.2-0.2-0.1-0.4l-0.2-0.2l-0.1-0.6l-0.4-0.4
		c-0.2-0.3-0.4-0.4-0.4-0.4c0,0,0-0.1,0.1-0.2l0.1-0.2l-0.1-0.2l-0.2-0.4c0-0.2-0.1-0.3-0.2-0.5c-0.1-0.2-0.2-0.4-0.2-0.5
		c-0.1-0.1-0.2-0.3-0.3-0.5c-0.1-0.2-0.2-0.4-0.2-0.5l-0.2-0.3c-0.1-0.1-0.2-0.4-0.2-1c-0.1-0.5-0.2-1-0.2-1
		c-0.1-0.2-0.3-0.9-0.3-1.4c-0.1-0.3-0.2-0.7-0.2-0.7l-0.1-0.3c0-0.2-0.4-0.6-0.6-0.7h-0.1V88l0.2-1.4l0.1-0.6
		c0.1,0,0.1-0.2,0.1-0.4v-0.5c0.1-0.1,0.1-0.2,0.1-0.3s0.1-0.2,0.1-0.3l0.1-0.3c0-0.1,0-0.3,0.1-0.5c0.1-0.2,0.2-0.5,0.1-0.6
		c0-0.1,0.1-0.3,0.1-0.3c0.1-0.1,0.1-0.3,0.1-0.4s0.1-0.4,0.2-0.5c0.1-0.2,0.3-0.8,0.3-1.3c0-0.2,0.1-0.5,0.1-0.6
		c0.1-0.1,0.1-0.3,0.1-0.3c0.1-0.1,0.1-0.3,0.2-0.5c0.1-0.2,0.2-0.4,0.2-0.6c0-0.2,0.1-0.4,0.1-0.5c0.1-0.2,0.3-0.8,0.4-1.6
		c0.1-0.1,0.1-0.4,0.2-0.6l0.1-0.4l-0.1-0.4c-0.1-0.2-0.1-0.4-0.2-0.5c0-0.3,0.1-1.2,0.2-1.4l1.3-2.4c0-0.1,0.2-0.3,0.3-0.5
		c0.1-0.1,0.3-0.4,0.5-0.6c0.4-0.6,0.8-1.1,1.6-2c0.4-0.4,0.8-1,0.9-1.2c0.1-0.3,0.3-0.5,0.4-0.5c0.2-0.1,0.4-0.3,0.5-0.5
		c0.2-0.2,0.4-0.4,0.5-0.4l0.2-0.1l0.8,0.2l0.5-0.2l1.4,0.2l0.3-0.2c0.2-0.1,0.4-0.1,0.6,0c0.2,0.1,0.3,0.1,0.4,0.1
		c0.2,0,0.3,0.1,0.4,0.2l0.1,0.1h0.3c0.2,0,0.4,0.1,0.6,0.1c0.1,0.1,0.2,0.1,0.2,0.1c0.2,0,0.3-0.1,0.4-0.2c0.1-0.1,0.2-0.2,0.3-0.2
		l0.4-0.1l0.3-0.1l0.2,0.2c0.1,0.1,0.3,0.2,0.3,0.2c0.1,0.1,0.2,0.2,0.3,0.2c0,0.1,0.3,0.2,0.5,0.3c1,0.5,1.5,0.9,1.7,1.2
		c0.1,0.1,0.2,0.3,0.3,0.3c0.1,0,0.3,0.1,0.4,0.2c0.1,0.1,0.3,0.3,0.5,0.4c0.1,0.1,0.2,0.2,0.2,0.3l0.1,0.1h0.8l0.3-0.4l0.2,0.2
		c0.2,0.1,0.4,0.1,0.5-0.1c0.1-0.1,0.3-0.2,0.3-0.1c0.1,0.1,0.3,0.4,0.4,0.6c0.1,0.2,0.2,0.4,0.3,0.5s0.2,0.3,0.2,0.3v0.1h-0.3
		c-0.1,0-0.2,0.1-0.2,0.3c0,0.6,0.3,1.1,0.5,1.3l0.2,0.2l0.1,0.3v0.2l0.2,0.2c0.1,0.1,0.3,0.2,0.4,0.2h0.2l0.1,0.2
		c0.1,0.2,0.3,0.2,0.3,0c0-0.1,0.2-0.2,0.3-0.2c0.2-0.1,0.3-0.1,0.4-0.2c0.1-0.1,0.1-0.1,0.1-0.1c0.2,0.3,0.3,0.5,0.4,0.6
		c0,0.1,0.1,0.2,0.1,0.4c0.1,0.1,0.2,0.3,0.2,0.5c0.1,0.3,0.2,0.2,0.1-0.2l-0.1-0.3l0.2-0.2l0.1,0.1c0,0.1,0.1,0.2,0.1,0.3
		s0.1,0.5,0.2,1c0.3,1,0.5,2.8,0.5,3.9v0.9c0,0.1-0.1,0.4-0.1,0.8c0,0.8-0.2,2.4-0.3,2.6c0,0.1-0.1,0.2-0.1,0.2s-0.1,0.1-0.2,0.2
		l-0.2,0.3l0.1,0.2c0.2,0.3,0.2,0.3-0.1,0.6c-0.1,0.1-0.1,0.3-0.1,0.3s0,0.2-0.1,0.3c-0.1,0.2-0.1,0.3-0.1,0.4s-0.1,0.3-0.2,0.4
		c-0.1,0.2-0.1,0.3-0.1,0.4c0,0.1,0,0.2-0.1,0.3c-0.1,0.1-0.1,0.3-0.1,0.4s0,0.2-0.1,0.2l-0.2,0.6c-0.1,0.3-0.3,0.6-0.3,0.7
		c-0.1,0.1-0.2,0.4-0.3,0.8c-0.1,0.3-0.2,0.5-0.3,0.5c-0.1,0-0.2,0.3-0.2,0.6c0,0.2-0.1,0.3-0.1,0.3c-0.1,0-0.2,0.1-0.2,0.3
		c-0.1,0.3-0.2,0.4-0.2,0.2c-0.1-0.2-0.2-0.1-0.3,0.2l-0.1,0.2l0.1,0.1c0.1,0.1,0.3,0,0.3-0.2c0-0.1,0.1-0.2,0.2-0.1v0.1
		c0,0.2-0.2,0.8-0.6,1.2c-0.1,0.2-0.2,0.3-0.2,0.4s-0.1,0.2-0.2,0.4c-0.1,0.2-0.2,0.3-0.2,0.3c0,0.1-0.1,0.1-0.1,0.2
		s-0.2,0.3-0.3,0.5l-0.5,0.8l-0.4,0.5c-0.4,0.6-0.8,1.1-0.9,1.2c-0.2,0.2-0.3,0.4-0.4,0.6c-0.1,0.1-0.1,0.2-0.2,0.2
		c0,0-0.2,0.2-0.2,0.3c-0.1,0.3-1.3,1.7-2.1,2.3c-0.3,0.2-0.6,0.6-0.6,0.6l-1.2,1l-1,0.4c-0.5,0.1-1.1,0.5-1.1,0.5l-0.3,0.2h-0.5
		c-0.3,0.1-0.6,0.2-0.6,0.2s-0.6,0.2-1.4,0.2C216.1,102.2,215.3,102.1,215,102L215,102z M216.2,97.4l1-1.1c0.8-0.9,1.1-1.3,1.1-1.4
		c0,0,0.2-0.2,0.4-0.4c0.2-0.2,0.5-0.5,0.7-0.7c0.1-0.2,0.3-0.4,0.4-0.5c0.2-0.1,0.7-0.6,0.6-0.6c0-0.1,0.3-0.4,1.4-1.7
		c0.2-0.2,0.4-0.5,0.4-0.8c0.1-0.2,0.3-0.5,0.4-0.7c0.1-0.2,0.3-0.4,0.3-0.5c0-0.2,0.1-0.4,0.2-0.5s0.2-0.3,0.2-0.3
		c0-0.1,0-0.2,0.1-0.2s0.1-0.2,0.1-0.3l0.1-0.3l-0.2-0.2v-0.3c0.1-0.6,0.6-1.9,0.9-2c0.3-0.2,0.5-0.5,0.6-1.2c0-0.2,0.1-0.4,0.2-0.5
		c0.1-0.2,0.1-0.3,0.1-0.3c0-0.1,0.5-0.7,0.6-0.7c0.2,0,0.3-0.1,0.3-0.2c0-0.2,0.1-0.4,0.1-0.5c0.1-0.1,0.2-0.2,0.3-0.3l0.1-0.2
		l0.1-0.5v-1.3l0.3-0.4l-0.3-0.8l0.2-0.3c0.1-0.1,0.2-0.3,0.2-0.3v-0.1c0-0.1,0.1-0.3,0.1-0.4l0.2-0.4l-0.1-0.4c0-0.2,0-0.4,0.1-0.5
		c0-0.1,0-0.5-0.1-1c-0.1-1.2-0.2-1.9-0.1-2.1v-0.2c0-0.2-0.1-0.4-0.1-0.5c-0.1-0.1-0.2-0.3-0.2-0.5c-0.1-0.2-0.2-0.6-0.4-0.9
		c-0.2-0.2-0.3-0.5-0.3-0.7c0-0.1-0.1-0.3-0.2-0.4c-0.1-0.1-0.2-0.2-0.1-0.2c0.1-0.1-0.2-0.4-0.5-0.6l-0.2-0.2l-0.2,0.1
		c-0.1,0.1-0.1,0.2-0.2,0.3l-0.1,0.3l0.2,0.3c0.1,0.1,0.2,0.3,0.1,0.3c0,0.1,0.1,0.3,0.2,0.4s0.2,0.2,0.2,0.3
		c0.1,0.1,0.1,0.1,0.1,0.1s0.1,0,0.1,0.1c0,0.1,0,0.1-0.1,0.1s-0.8-0.6-0.9-0.8c-0.1-0.2-0.3-0.3-0.5-0.4c-0.2-0.1-0.4-0.2-0.4-0.3
		c-0.1-0.1-0.2-0.3-0.2-0.3l-0.1-0.1l0.1-0.1c0.1-0.1,0.1-0.3,0-0.4c-0.1,0-0.2-0.1-0.3-0.2l-0.2-0.2h-0.8l-0.2-0.2
		c-0.2-0.2-0.5-0.3-0.6-0.2c-0.1,0.1-0.2,0.4-0.2,0.6v0.1c0,0.3-0.2,0.8-0.4,1.1c-0.2,0.1-0.4,0.4-0.5,0.5c-0.2,0.2-0.5,0.3-0.6,0.4
		c-0.2,0.1-0.3,0.2-0.4,0.2c-0.1,0-0.2,0.2-0.3,0.3c-0.1,0.1-0.2,0.3-0.4,0.5l-0.5,0.6c-0.1,0.2-0.3,0.5-0.4,0.6
		c-0.1,0.1-0.2,0.4-0.3,0.6c-0.1,0.3-0.2,0.5-0.3,0.8l-0.4,0.8c-0.2,0.2-0.3,0.5-0.4,0.6s-0.2,0.2-0.2,0.3l-0.6,1.1l-0.9,1.4
		c-0.1,0.3-0.3,0.5-0.3,0.6c-0.1,0.1-0.2,0.2-0.2,0.4c-0.1,0.2-0.2,0.4-0.2,0.4c-0.1,0.1-0.2,0.4-0.4,0.9s-0.4,0.8-0.4,0.9
		c-0.1,0.1-0.2,0.2-0.2,0.3l-0.3,0.7c-0.3,0.8-0.4,0.8-0.5,1.2c-0.2,0.6-0.3,1.1-0.3,1.3c0,0.1,0,0.3-0.1,0.5
		c-0.2,0.9-0.2,1-0.2,1.3c0,0.2-0.1,0.3-0.1,0.4c-0.1,0.2-0.2,1-0.1,1.6c0,0.3,0,0.5-0.1,0.6c-0.1,0.1,0.1,0.8,0.2,1.9
		c0.2,1.2,0.3,1.8,0.2,1.9l-0.1,0.1l0.1,0.2c0.1,0.1,0.2,0.3,0.2,0.3l0.2,0.5l0.2,0.4v0.8h0.1c0.1,0,0.2,0.1,0.2,0.3l0.2,0.2
		l-0.2,0.2l0.2,0.1c0.2,0.1,0.3,0.4,0.4,0.8c0.1,0.3,0.4,0.8,0.8,1l0.3,0.2l0.4,0.1C215.4,97.8,215.9,97.6,216.2,97.4L216.2,97.4z
		 M219.5,65.4c-0.1-0.1-0.3-0.1-0.3,0s0.3,0.2,0.4,0.2C219.6,65.6,219.6,65.5,219.5,65.4L219.5,65.4z M223.3,65.4
		c0-0.1-0.1-0.2-0.3-0.3c-0.1-0.1-0.2-0.2-0.2-0.3l-0.1-0.2h0.2c0.1,0,0.2,0.1,0.2,0.2l0.1,0.2l0.4-0.1l-0.2,0.3h0.6l-0.4,0.1
		l-0.1,0.4l-0.2-0.1C223.3,65.5,223.3,65.5,223.3,65.4L223.3,65.4z M226.1,71.5c0-0.1-0.1-0.2-0.1-0.2c-0.1,0-0.1-0.2-0.2-0.3
		l-0.2-0.2l0.2,0.1c0.1,0.1,0.2,0.2,0.3,0.3l0.2,0.1v0.2C226.3,71.8,226.2,71.8,226.1,71.5L226.1,71.5z M228.4,70.9
		c0.2-0.2,0.1-0.6-0.1-0.6l-0.3-0.2l-0.2-0.3l-0.2,0.2l0.1,0.4c0.1,0.2,0.2,0.5,0.2,0.5C228,71.1,228.3,71.1,228.4,70.9L228.4,70.9z
		 M228.2,72.2c0-0.1-0.1-0.1-0.1-0.1s-0.1,0.1-0.1,0.2C228.1,72.4,228.2,72.4,228.2,72.2L228.2,72.2z M228.4,73.5
		c0-0.1,0-0.2-0.1-0.2c-0.2,0-0.2,0.1-0.2,0.2C228.2,73.7,228.4,73.7,228.4,73.5z M228.5,74.3c0-0.2-0.2-0.2-0.2,0v0.2
		C228.5,74.5,228.6,74.4,228.5,74.3z"/>
	<path class="st0" d="M231.8,101.9c-0.3-0.1-0.3-0.2,0-0.2l0.3-0.1l0.1-0.3c0.2-0.3,0.1-0.4-0.2-0.5l-0.2-0.1l-0.1-0.2
		c0-0.1-0.1-0.3-0.1-0.3c-0.2-0.1-0.3,0-0.3,0.2c0,0.1-0.1,0.2-0.3,0.2l-0.2,0.1l-0.5-0.2l-0.4,0.1c-0.3,0.1-0.5,0-0.5,0
		s-0.2-0.1-0.5-0.1c-0.1,0-0.1-0.1-0.1-0.1c0-0.1,0.1-0.4,0.2-0.6h-0.2v-0.4c0.1,0,0.2,0,0.4,0.1l0.4-0.7c0.1-0.2-0.1-0.4-0.1-0.4
		s-0.2-0.2-0.2-0.2c0,0,0.2,0,0.4,0.1l0.8,0.1c0.2,0,0.5,0.1,0.6,0.1c0.3,0.1,1.1,0.3,1.2,0.3c0-0.1,0.1,0,0.2,0.1l0.2,0.1h0.5
		c0.3-0.1,0.6-0.1,0.9-0.1l0.4-0.1l0.2-0.2c0,0,0.2-0.2,0.4,0l0.1,0.2l0.2-0.2c0,0,0.2-0.2,0.3-0.2s0.2-0.2,0.3-0.4
		c0.3-0.4,0.5-0.6,0.8-0.8c0.2-0.1,0.4-0.8,0.4-1.1c0-0.1,0.1-0.3,0.2-0.5l0.3-0.4c0-0.1,0.1-0.1,0.2-0.1c0.2,0,0.4-0.3,0.4-0.6
		c0-0.1,0.1-0.2,0.1-0.2l0.2-0.1v-0.6l0.3-0.6c0.2-0.3,0.3-0.6,0.3-0.8c0-0.1,0.1-0.4,0.2-0.6c0.1-0.2,0.2-0.8,0.3-1
		c0-0.3,0.1-0.7,0.2-0.8c0.1-0.2,0.1-0.5,0.1-0.9l0.1-0.7l0.3-0.6v-0.3c-0.1-0.3,0.1-1.5,0.2-2v-0.4c-0.1-0.1-0.1-0.3,0.1-0.5
		l0.2-0.5l-0.1-0.2c-0.1-0.1-0.1-0.4-0.1-0.7c0-0.7,0.1-1.7,0.2-2.5c0.1-0.2,0.1-0.4,0.1-0.6s-0.1-0.5-0.1-0.9
		c-0.1-1.2,0.1-5.3,0.3-6.1c0-0.1,0.1-0.4,0.1-0.8l0.1-1.6l0.1-1l-0.2-0.2l-0.1,0.1c-0.1,0-0.2,0.1-0.3,0.1c-0.2,0-0.4-0.3-0.4-0.5
		c0-0.1-0.1-0.2-0.2-0.3l-0.2-0.2V67c0-0.3,0-0.5-0.1-0.8c-0.1-0.3-0.1-0.5,0.1-0.5c0.2,0,0.2-0.1,0.1-0.4l-0.2-0.3l0.1-0.2v-0.4
		c-0.1-0.1-0.1-0.2-0.1-0.3l0.1-0.2l0.4,0.1c0.2,0,0.3,0.1,0.4,0.1c0.5,0,0.9-0.2,1.2-0.5c0.1,0,0.2,0,0.2,0l0.2,0l0.1-0.2
		c0.1-0.1,0.1-0.2,0.2-0.2c0,0,0.3,0.1,0.5,0.3c0.3,0.2,0.6,0.3,0.7,0.4c0.8,0.2,2,1.3,2.7,2.4c0.4,0.6,0.9,1.6,0.9,1.8l0.2,1
		l-0.1,1c0,0.5-0.1,1.1-0.1,1.2s-0.1,0.4-0.1,0.8c-0.1,0.3-0.1,0.7-0.1,0.9l-0.2,1.6c-0.1,0.6-0.1,1.2-0.2,1.3c0,0-0.1,0.4-0.1,1
		L246,80c-0.1,0.6-0.2,1.7-0.3,2.7c-0.1,1.2-0.2,2-0.2,2.2c-0.1,0.1-0.1,0.4-0.1,0.8l-0.1,1.2c-0.2,1.1-0.3,1.8-0.3,2.3
		c0,0.3-0.1,0.9-0.1,1.1l-0.2,1l-0.2,1.2l-0.2,1.3c-0.1,0.3-0.1,0.6-0.2,0.6L244,95c-0.1,0.3-0.2,0.6-0.2,0.7c0,0-0.2,0.4-0.3,0.7
		c-0.3,1.2-1.2,2.8-2.1,3.8c-0.4,0.4-1,1-1.2,1l-0.2,0.1c-0.2,0.2-1.6,0.6-1.8,0.6c-0.2,0-0.3,0.1-0.3,0.1s-1.2,0.2-1.8,0.2
		c-0.3,0-0.6-0.1-0.6-0.1c-0.1,0-0.1-0.1-0.1-0.1s-0.1-0.1-0.1-0.1c-0.1,0-0.2-0.1-0.3-0.1l-0.1-0.1l-0.5,0.1
		c-0.3,0.1-0.6,0.2-0.6,0.2c-0.2,0.1-0.8,0.2-1.2,0.2C232.4,102.1,232,102.1,231.8,101.9L231.8,101.9z"/>
</g>
</svg>
