<?xml version="1.0" encoding="UTF-8"?>
<svg id="_Слой_1" data-name="Слой 1" xmlns="http://www.w3.org/2000/svg" viewBox="0 0 80.43 115.99">
  <defs>
    <style>
      .cls-1 {
        fill: #e5e4e0;
      }

      .cls-1, .cls-2 {
        stroke-width: 0px;
      }

      .cls-2 {
        fill: none;
      }
    </style>
  </defs>
  <path class="cls-1" d="m52.29,94.65c.96-.74,1.95-1.44,2.87-2.23,2.39-2.05,4.71-4.19,7.14-6.19,1.92-1.57,2.82-3.79,4.06-5.79,2.08-3.35,2.08-7.03,1.86-10.78-.11-1.86-.48-3.54-1.47-5.18-1.35-2.26-4.27-3.13-6.49-1.65-1.02.68-2.06.27-2.71-1.08-.73-1.53-.1-3.5,1.01-4.81.98-1.15,1.51-2.67,2.28-4.01.54-.93,1.14-1.82,1.7-2.74.34-.56.72-1.11.97-1.7,1.18-2.81,2.26-5.66,3.49-8.45,1.52-3.46,3.15-6.88,4.72-10.32.86-1.89.92-3.87.48-5.85-.44-2.01-3.17-2.94-4.99-2.17-2.32.97-3.16,3.33-5.03,4.67-1.11.79-2.15,1.67-3.22,2.52-.12.1-.32.19-.34.31-.24,1.41-1.46,1.92-2.37,2.74-1.02.92-2.03,1.89-2.85,2.99-1.05,1.4-1.91,2.94-2.86,4.41-.35.55-.81,1.04-1.11,1.61-.84,1.63-1.62,3.28-2.42,4.93-.12.24-.14.54-.28.77-1.16,1.88-2.36,3.73-3.5,5.62-.34.56-.62,1.18-.82,1.8-.49,1.53-.84,3.1-1.38,4.6-.37,1.03-.7,2.36-2.12,2.32-1.76-.05-2.84-1.36-3.27-2.9-.44-1.59.44-2.7,1.08-3.81,1.78-3.1,3.69-6.14,5.73-9.09,1.58-2.29,3.48-4.36,5.11-6.62.87-1.2,1.45-2.61,2.17-3.92.15-.27.28-.57.49-.79,1.12-1.12,2.24-2.24,3.42-3.29.54-.48,1.3-.73,1.82-1.23.87-.85,1.6-1.83,2.43-2.72,1.45-1.56,2.78-3.27,4.43-4.57,1.4-1.1,3.13-2.23,4.82-2.41,2.14-.23,4.43.29,5.82,2.47,1.02,1.59,2.25,3.1,2.13,5.11-.11,1.73-.2,3.52-.72,5.15-.63,1.96-1.44,3.96-2.64,5.61-2.67,3.68-3.5,8.19-5.8,12.03-1.13,1.89-1.89,4.02-2.73,6.07-.65,1.58-.22,1.95,1.4,2.46,1.1.35,2.04,1.25,3.03,1.93,2.4,1.64,2.64,4.26,2.95,6.8.24,1.95.33,3.92.44,5.88.18,3.21-.44,6.23-2.1,9.02-.35.59-.43,1.34-.76,1.94-.55,1-1.19,1.95-1.83,2.9-.71,1.05-1.47,2.06-2.17,3.12-.09.13,0,.45.12.63.64,1.03,1.34,2.02,1.96,3.06.48.81,1.02.85,1.56.15.92-1.2,2.08-2.1,2.39-3.88.39-2.19,1.6-4.24,2.46-6.35.06-.15.18-.3.17-.43-.19-2.03-.39-4.06-.62-6.08-.05-.42-.34-.82-.35-1.24,0-.48.19-.97.29-1.46.51.35,1.02.69,1.52,1.04.05.03.05.15.06.22.31,2.24.73,4.48.89,6.73.37,5.13-1.24,9.71-4.21,13.85-2.58,3.59-7.71,5.53-11.97,4.45-.7-.18-1.36-.76-1.91-1.28-1.28-1.19-2.51-2.07-4.38-1.07-.61.33-1.54.13-2.31.09-1.55-.09-3.1-.2-4.64-.37-.6-.07-1.21-.26-1.75-.53-2-1.01-3.26-2.64-3.68-4.85-.09-.47.16-1.01.25-1.52.45.21.96.36,1.35.66.3.22.48.62.67.96.97,1.7,3.23,2.66,5.13,2.16,1.75-.46,4.01-5.68,3.14-7.25-1.1-1.98-4.46-2.4-6.19-.78-.99.93-1.99,1.85-3,2.75-.58.52-1.05.26-1.02-.4.05-.98.18-2.01.55-2.9.82-2.01,1.83-3.94,2.73-5.92.47-1.03.73-2.18,1.37-3.09.35-.49,1.36-.93,1.91-.78.95.27,2.18.81,1.57,2.24-.31.73-1.02,1.29-1.39,2-.24.47-.2,1.09-.28,1.64.48.01,1.05.19,1.43,0,.71-.35,1.13-.33,1.54.4.17.3.56.54.91.68,4.12,1.67,3.78,5.13,2.51,7.81-.43.91-.78,1.86-1.17,2.78.17.13.35.26.52.39Zm7.68,4.71c.64-.31,1.13-.4,1.37-.7.74-.89,1.37-1.86,2.06-2.79.6-.8.5-1.53-.23-2.18-.72-.64-1.48-.87-2.31-.19-.75.62-1.47,1.27-2.26,1.84-.97.7-1.18,1.7-.62,2.57.42.66,1.34.99,2,1.45Z"/>
  <path class="cls-1" d="m31.46,43.47c-.08-1.28-.1-2.57-.25-3.85-.26-2.24-.66-4.47-.9-6.72-.35-3.27.48-6.45.93-9.66.06-.41.3-.81.51-1.18,1.38-2.34,1.43-4.74-.04-6.98-.55-.84-1.68-1.3-2.51-1.97-.52-.42-.97-.92-1.6-1.52,3.6-.95,6.33.67,7.36,4.78.79,3.13.23,5.95-.56,8.88-.2.73-.15,1.54-.18,2.31-.13,3.08-.32,6.17-.36,9.26-.04,2.34.11,4.68.16,7.01.03,1.48.01,2.96.09,4.44.04.68.36,1.36.34,2.04-.02.59-.33,1.17-.51,1.75-.47-.17-1.16-.2-1.38-.54-1.29-2-2.42-4.1-3.71-6.1-1.04-1.61-2.16-3.18-3.38-4.65-.96-1.16-2.05-2.22-3.21-3.17-.53-.43-1.35-.53-2.06-.69-.07-.02-.48.69-.39.95.15.46.55.84.86,1.24.97,1.26.55,2.47-.22,3.58-.88,1.26-2.24.79-3.38.66-1.11-.13-1.85-.97-2.11-2.12-.03-.11.01-.26-.05-.35-.78-1.09-.89-2.12.53-3.06-.44-.15-.67-.3-.76-.24-1.46.97-2.95,1.91-4.31,3.01-.21.17.02,1.11.25,1.58.5,1.02,1.12,1.98,1.72,2.95,1.9,3.02,2.35,6.3,1.76,9.75-.65,3.85-1.45,7.67-2.07,11.52-.36,2.23-.73,4.51-.66,6.76.08,2.59,1.25,4.89,3.11,6.75,1.48,1.49,3.02,2.92,4.53,4.39,1.59,1.53,3.27,2.98,4.71,4.64.96,1.1,1.53,2.54,2.38,3.75.36.51,1,.82,1.51,1.23.39.31.9.55,1.15.95,1.19,1.91,2.93,2.91,5.03,3.59,1.38.44,2.62,1.31,3.91,2,.2.11.33.41.52.45.85.19,1.53.67,1.16,1.52-.31.7-.99,1.38-1.67,1.74-1.63.86-3.24.6-4.74-.52-2.19-1.64-4.6-3.04-6.57-4.9-1.47-1.39-2.37-3.37-3.54-5.09-1.23-1.81-2.17-3.97-3.79-5.31-1.68-1.39-2.52-3.58-4.82-4.46-1.05-.41-1.57-2.2-2.31-3.38-2.3-3.67-2.56-7.83-2.4-11.94.17-4.31.98-8.6,1.28-12.91.11-1.65-.47-3.34-.64-5.02-.24-2.36-1.43-4.28-2.69-6.18-.56-.84-1.11-1.69-1.72-2.49-.58-.77-.68-1.34.12-2.12,1.38-1.35,2.49-2.99,3.94-4.26,1.19-1.04,2.43-2.17,4.21-2.32,2.08-.17,1.82-.26,1.94-2.27.14-2.19.56-4.45,1.32-6.5,1.06-2.85,2.54-5.55,3.88-8.29.17-.35.57-.59.87-.89.27.43.74.86.76,1.31.03.72-.19,1.47-.38,2.18-.49,1.84-.96,3.69-1.55,5.5-.61,1.89-1.38,3.73-2.03,5.6-.41,1.19.34,2.82,1.54,3.13,4.15,1.07,6.24,4.3,8.31,7.62.66,1.06,1.49,2.02,2.24,3.03.17-.06.34-.13.51-.19Z"/>
  <path class="cls-1" d="m25.52,12.81c-.28.25-.47.41-.66.57-.12-.17-.34-.35-.33-.5.01-.18.22-.42.39-.47.12-.04.32.21.6.41Z"/>
  <path class="cls-2" d="m59.97,99.36c-.66-.45-1.58-.79-2-1.45-.55-.87-.34-1.86.62-2.57.79-.57,1.51-1.23,2.26-1.84.83-.68,1.6-.45,2.31.19.73.65.82,1.37.23,2.18-.69.93-1.32,1.9-2.06,2.79-.24.29-.73.38-1.37.7Z"/>
</svg>