<?xml version="1.0" encoding="UTF-8"?>
<svg id="_Слой_1" data-name="Слой 1" xmlns="http://www.w3.org/2000/svg" viewBox="0 0 56.69 56.69">
  <defs>
    <style>
      .cls-1 {
        fill: #f1efee;
        stroke-width: 0px;
      }
    </style>
  </defs>
  <rect class="cls-1" x="30.41" y="19.19" width="2.1" height="2.1"/>
  <rect class="cls-1" x="35.78" y="19.19" width="2.1" height="2.1"/>
  <rect class="cls-1" x="41.15" y="19.19" width="2.1" height="2.1"/>
  <rect class="cls-1" x="13.38" y="38.4" width="2.1" height="2.1"/>
  <rect class="cls-1" x="18.67" y="38.4" width="2.1" height="2.1"/>
  <rect class="cls-1" x="24.04" y="38.4" width="2.1" height="2.1"/>
  <path class="cls-1" d="m52.9,54.43h-19.22v-8.56h7.47c.59,0,1.09-.5,1.09-1.09v-10.66c0-.59-.5-1.09-1.09-1.09h-7.47v-6.38h13.93c.25,0,.59-.08.76-.34l5.37-5.37c.42-.42.42-1.09,0-1.51l-5.37-5.37c-.17-.17-.5-.34-.76-.34h-13.93v-7.47c0-.59-.5-1.09-1.09-1.09h-8.56c-.59,0-1.09.5-1.09,1.09v7.47h-7.47c-.59,0-1.09.5-1.09,1.09v10.66c0,.59.5,1.09,1.09,1.09h7.47v6.46h-13.84c-.25,0-.59.08-.76.34l-5.37,5.37c-.42.42-.42,1.09,0,1.51l5.37,5.37c.17.17.5.34.76.34h13.93v8.56H3.73c-.59,0-1.09.5-1.09,1.09s.5,1.09,1.09,1.09h49.17c.59,0,1.09-.5,1.09-1.09,0-.67-.5-1.17-1.09-1.17ZM25.13,7.44h6.38v6.38h-6.38v-6.38h0Zm-8.56,13.84h10.66c.59,0,1.09-.5,1.09-1.09s-.5-1.09-1.09-1.09h-10.66v-3.19h30.54l4.28,4.28-4.28,4.28h-30.54v-3.19Zm8.56,5.37h6.38v6.38h-6.38v-6.38h0Zm-19.89,12.84l4.28-4.28h30.54v3.19h-10.66c-.59,0-1.09.5-1.09,1.09s.5,1.09,1.09,1.09h10.66v3.19H9.52l-4.28-4.28Zm19.89,14.94v-8.56h6.38v8.56h-6.38Z"/>
</svg>