<?xml version="1.0" encoding="UTF-8"?>
<svg id="_Слой_1" data-name="Слой 1" xmlns="http://www.w3.org/2000/svg" viewBox="0 0 56.69 56.69">
  <defs>
    <style>
      .cls-1 {
        fill: #f1efee;
        stroke: #f1efee;
        stroke-miterlimit: 10;
      }
    </style>
  </defs>
  <path class="cls-1" d="m25.94,6.02h4.63c.28,0,.56-.27.56-.55s-.28-.55-.56-.55h-4.63c-.28,0-.56.27-.56.55s.18.55.56.55Z"/>
  <path class="cls-1" d="m30.57,50.67h-4.63c-.28,0-.56.27-.56.55s.28.55.56.55h4.63c.28,0,.56-.27.56-.55.09-.27-.19-.55-.56-.55Z"/>
  <path class="cls-1" d="m45.65,22.03h-1.76V6.66c0-2.84-2.31-5.22-5.28-5.22h-20.73c-2.87,0-5.28,2.29-5.28,5.22v15.37h-1.67c-3.52,0-6.39,2.84-6.39,6.31s2.87,6.31,6.39,6.31h1.67v15.37c0,2.84,2.31,5.22,5.28,5.22h20.83c2.87,0,5.28-2.29,5.28-5.22v-15.37h1.76c3.52,0,6.39-2.84,6.39-6.31-.09-3.48-2.96-6.31-6.48-6.31ZM17.89,2.64h20.83c2.22,0,4.07,1.83,4.07,4.03v1.65H13.81v-1.65c0-2.2,1.76-4.03,4.07-4.03Zm-4.07,6.86h28.97v12.63h-2.41c.65-2.01-1.2-3.93-3.33-3.48l-3.33.82-.28-1.01c-.28-1.19-1.39-2.1-2.68-2.1-1.76,0-3.15,1.65-2.68,3.38l.28,1.01-3.7.91-.83-3.29c-.28-1.19-1.39-2.1-2.68-2.1-1.76,0-3.15,1.65-2.68,3.39l.56,2.29h-5.18v-12.44h0Zm19.99,14.91l1.2,4.85c.09.27.37.46.74.46,1.57-.37,1.67-.46,1.94-.46.93,0,1.57.73,1.57,1.56,0,.73-.46,1.37-1.2,1.56l-1.57.37c-.28.09-.46.37-.46.73l.93,3.84c.28,1.01-.56,2.01-1.57,2.01-.74,0-1.39-.46-1.57-1.19l-.93-3.84c-.09-.27-.37-.46-.74-.46l-4.91,1.19c-.28.09-.46.37-.46.73l.37,1.56c.09.46,0,1.01-.28,1.37-.83,1.01-2.5.73-2.78-.55l-.37-1.56c-.09-.27-.37-.46-.74-.46-4.07,1.01-3.89,1.01-4.26,1.01-.93,0-1.57-.73-1.57-1.55,0-.73.46-1.37,1.2-1.56l3.89-.91c.28-.09.46-.37.46-.73l-1.11-4.94c-.09-.27-.37-.46-.74-.46-1.57.46-1.67.46-1.94.46-.93,0-1.57-.73-1.57-1.56,0-.73.46-1.37,1.2-1.56l1.57-.37c.28-.09.46-.37.46-.73l-.93-3.84c-.09-.46,0-1.01.28-1.37.83-1.01,2.5-.73,2.78.55l.93,3.84c.09.27.37.46.74.46l4.91-1.19c.28-.09.46-.37.46-.73l-.37-1.56c-.28-1.01.56-2.01,1.57-2.01.74,0,1.39.46,1.57,1.19l.37,1.56c.09.27.37.46.74.46,4.07-1.01,3.89-1.01,4.26-1.01.93,0,1.57.73,1.57,1.55,0,.73-.46,1.37-1.2,1.56l-4.07,1.1c-.19,0-.28.09-.37.27,0,.09-.09.27,0,.37Zm-28.04,3.93c0-2.84,2.31-5.12,5.18-5.12h7.4-.19c-1.2.27-2.13,1.37-2.13,2.65,0,1.74,1.67,3.11,3.42,2.65l1.02-.27.93,3.66-3.33.82c-.46.09-.93.37-1.3.73h-6.02c-2.68,0-5-2.29-5-5.12Zm32.86,25.71h-20.73c-2.22,0-4.07-1.83-4.07-4.03v-1.65h28.97v1.65c0,2.2-1.85,4.03-4.17,4.03Zm4.17-6.86H13.81v-1.19h14.53c.28,0,.56-.27.56-.55s-.28-.55-.56-.55h-14.53v-1.19h8.15c.28,0,.56-.27.56-.55s-.28-.55-.56-.55h-8.15v-1.19h5.28c.28,0,.56-.27.56-.55s-.28-.55-.56-.55h-5.28v-5.76h2.5c-.65,2.01,1.2,3.93,3.33,3.48l3.33-.82.28,1.01c.28,1.19,1.39,2.1,2.68,2.1,1.76,0,3.15-1.65,2.68-3.38l-.28-1.01,3.7-.91.83,3.29c.28,1.19,1.39,2.1,2.68,2.1,1.76,0,3.15-1.65,2.68-3.39l-.56-2.29h5.18v12.44h-.09Zm2.87-13.72h-7.5.19c1.2-.27,2.13-1.37,2.13-2.65,0-1.74-1.67-3.11-3.42-2.65l-1.02.27-.93-3.66,3.33-.82c.46-.09.93-.37,1.3-.73h6.02c2.87,0,5.18,2.29,5.18,5.12-.09,2.84-2.41,5.12-5.28,5.12Z"/>
  <path class="cls-1" d="m30.66,25.23c-.09-.27-.37-.46-.74-.46l-4.91,1.19c-.28.09-.46.37-.46.73l1.2,4.85c.09.27.37.46.74.46l4.91-1.19c.28-.09.46-.37.46-.73l-1.2-4.85Zm-3.79,5.4l-.93-3.66,3.7-.91.93,3.66-3.7.91Z"/>
</svg>