<?xml version="1.0" encoding="UTF-8"?>
<svg id="_Слой_1" data-name="Слой 1" xmlns="http://www.w3.org/2000/svg" viewBox="0 0 56.69 56.69">
  <defs>
    <style>
      .cls-1 {
        fill: #1d1e1b;
        stroke-width: 0px;
      }
    </style>
  </defs>
  <path class="cls-1" d="m52.64,5.39H4.05c-1.36,0-2.53,1.15-2.53,2.5v40.92c0,1.35,1.17,2.5,2.53,2.5h48.59c1.36,0,2.53-1.15,2.53-2.5V7.89c0-1.35-1.17-2.5-2.53-2.5Zm-2.33,12.1c0,1.35-1.17,2.5-2.53,2.5s-2.53-1.15-2.53-2.5v-7.3h4.86v7.3h.19Zm-9.72,0c0,1.35-1.17,2.5-2.53,2.5s-2.53-1.15-2.53-2.5v-7.3h4.86v7.3h.19Zm-9.72,0c0,1.35-1.17,2.5-2.53,2.5s-2.53-1.15-2.53-2.5v-7.3h4.86v7.3h.19Zm-9.72,0c0,1.35-1.17,2.5-2.53,2.5s-2.53-1.15-2.53-2.5v-7.3h4.86v7.3h.19Zm-14.58-7.3h4.86v7.3c0,1.35-1.17,2.5-2.53,2.5s-2.53-1.15-2.53-2.5v-7.3h.19Zm19.43,36.12v-7.3h4.86v7.3h-4.86Zm9.72,0v-9.61c0-1.35-1.17-2.5-2.53-2.5h-9.72c-1.36,0-2.53,1.15-2.53,2.5v9.61H6.39v-2.5h9.72c1.36,0,2.53-1.15,2.53-2.5s-1.17-2.5-2.53-2.5H6.39v-14.79c2.53.96,5.44.58,7.38-1.35,2.72,2.5,7,2.5,9.72,0,2.72,2.5,7,2.5,9.72,0,2.72,2.5,7,2.5,9.72,0,1.94,1.73,4.86,2.31,7.38,1.35v14.79h-9.72c-1.36,0-2.53,1.15-2.53,2.5s1.17,2.5,2.53,2.5h9.72v2.5h-14.58Z"/>
</svg>