<?xml version="1.0" encoding="utf-8"?>
<!-- Generator: Adobe Illustrator 28.0.0, SVG Export Plug-In . SVG Version: 6.00 Build 0)  -->
<svg version="1.1" id="Слой_1" xmlns="http://www.w3.org/2000/svg" xmlns:xlink="http://www.w3.org/1999/xlink" x="0px" y="0px"
	 viewBox="0 0 33.4 32.7" style="enable-background:new 0 0 33.4 32.7;" xml:space="preserve">
<style type="text/css">
	.st0{fill:#F1EFEE;}
	.st1{fill:#1D1E1B;}
	.st2{fill:#FFFFFF;}
</style>
<rect x="-0.3" y="-0.8" class="st0" width="34" height="34"/>
<g>
	<path class="st1" d="M20.9,28.9c0.3-0.3,0.7-0.5,1-0.8c0.8-0.7,1.6-1.4,2.5-2.1c0.7-0.5,1-1.3,1.4-2c0.7-1.2,0.7-2.4,0.6-3.7
		c0-0.6-0.2-1.2-0.5-1.8c-0.5-0.8-1.5-1.1-2.2-0.6c-0.4,0.2-0.7,0.1-0.9-0.4c-0.3-0.5,0-1.2,0.3-1.7c0.3-0.4,0.5-0.9,0.8-1.4
		c0.2-0.3,0.4-0.6,0.6-0.9c0.1-0.2,0.2-0.4,0.3-0.6c0.4-1,0.8-1.9,1.2-2.9C26.4,9,27,7.8,27.5,6.6c0.3-0.6,0.3-1.3,0.2-2
		c-0.2-0.7-1.1-1-1.7-0.7c-0.8,0.3-1.1,1.1-1.7,1.6c-0.4,0.3-0.7,0.6-1.1,0.9c0,0-0.1,0.1-0.1,0.1c-0.1,0.5-0.5,0.7-0.8,0.9
		c-0.4,0.3-0.7,0.6-1,1c-0.4,0.5-0.7,1-1,1.5c-0.1,0.2-0.3,0.4-0.4,0.6c-0.3,0.6-0.6,1.1-0.8,1.7c0,0.1,0,0.2-0.1,0.3
		c-0.4,0.6-0.8,1.3-1.2,1.9c-0.1,0.2-0.2,0.4-0.3,0.6c-0.2,0.5-0.3,1.1-0.5,1.6c-0.1,0.4-0.2,0.8-0.7,0.8c-0.6,0-1-0.5-1.1-1
		c-0.2-0.5,0.2-0.9,0.4-1.3c0.6-1.1,1.3-2.1,2-3.1c0.5-0.8,1.2-1.5,1.8-2.3c0.3-0.4,0.5-0.9,0.7-1.3c0.1-0.1,0.1-0.2,0.2-0.3
		c0.4-0.4,0.8-0.8,1.2-1.1c0.2-0.2,0.4-0.3,0.6-0.4c0.3-0.3,0.5-0.6,0.8-0.9c0.5-0.5,1-1.1,1.5-1.6c0.5-0.4,1.1-0.8,1.7-0.8
		c0.7-0.1,1.5,0.1,2,0.8c0.4,0.5,0.8,1.1,0.7,1.8c0,0.6-0.1,1.2-0.2,1.8c-0.2,0.7-0.5,1.4-0.9,1.9c-0.9,1.3-1.2,2.8-2,4.1
		c-0.4,0.6-0.6,1.4-0.9,2.1c-0.2,0.5-0.1,0.7,0.5,0.8c0.4,0.1,0.7,0.4,1,0.7c0.8,0.6,0.9,1.5,1,2.3c0.1,0.7,0.1,1.3,0.2,2
		c0.1,1.1-0.2,2.1-0.7,3.1c-0.1,0.2-0.1,0.5-0.3,0.7c-0.2,0.3-0.4,0.7-0.6,1c-0.2,0.4-0.5,0.7-0.7,1.1c0,0,0,0.2,0,0.2
		c0.2,0.4,0.5,0.7,0.7,1.1c0.2,0.3,0.4,0.3,0.5,0.1c0.3-0.4,0.7-0.7,0.8-1.3c0.1-0.8,0.5-1.5,0.8-2.2c0-0.1,0.1-0.1,0.1-0.1
		c-0.1-0.7-0.1-1.4-0.2-2.1c0-0.1-0.1-0.3-0.1-0.4c0-0.2,0.1-0.3,0.1-0.5c0.2,0.1,0.4,0.2,0.5,0.4c0,0,0,0.1,0,0.1
		c0.1,0.8,0.3,1.5,0.3,2.3c0.1,1.8-0.4,3.3-1.4,4.8c-0.9,1.2-2.6,1.9-4.1,1.5c-0.2-0.1-0.5-0.3-0.7-0.4c-0.4-0.4-0.9-0.7-1.5-0.4
		c-0.2,0.1-0.5,0-0.8,0c-0.5,0-1.1-0.1-1.6-0.1c-0.2,0-0.4-0.1-0.6-0.2c-0.7-0.3-1.1-0.9-1.3-1.7c0-0.2,0.1-0.3,0.1-0.5
		c0.2,0.1,0.3,0.1,0.5,0.2c0.1,0.1,0.2,0.2,0.2,0.3c0.3,0.6,1.1,0.9,1.8,0.7c0.6-0.2,1.4-2,1.1-2.5c-0.4-0.7-1.5-0.8-2.1-0.3
		c-0.3,0.3-0.7,0.6-1,0.9c-0.2,0.2-0.4,0.1-0.4-0.1c0-0.3,0.1-0.7,0.2-1c0.3-0.7,0.6-1.4,0.9-2c0.2-0.4,0.3-0.7,0.5-1.1
		c0.1-0.2,0.5-0.3,0.7-0.3c0.3,0.1,0.7,0.3,0.5,0.8c-0.1,0.3-0.4,0.4-0.5,0.7c-0.1,0.2-0.1,0.4-0.1,0.6c0.2,0,0.4,0.1,0.5,0
		c0.2-0.1,0.4-0.1,0.5,0.1c0.1,0.1,0.2,0.2,0.3,0.2c1.4,0.6,1.3,1.8,0.9,2.7c-0.1,0.3-0.3,0.6-0.4,1C20.7,28.9,20.8,28.9,20.9,28.9
		L20.9,28.9z M23.5,30.6c0.2-0.1,0.4-0.1,0.5-0.2c0.3-0.3,0.5-0.6,0.7-1c0.2-0.3,0.2-0.5-0.1-0.7c-0.2-0.2-0.5-0.3-0.8-0.1
		c-0.3,0.2-0.5,0.4-0.8,0.6c-0.3,0.2-0.4,0.6-0.2,0.9C23,30.3,23.3,30.4,23.5,30.6L23.5,30.6z"/>
	<path class="st1" d="M13.7,11.4c0-0.4,0-0.9-0.1-1.3c-0.1-0.8-0.2-1.5-0.3-2.3c-0.1-1.1,0.2-2.2,0.3-3.3c0-0.1,0.1-0.3,0.2-0.4
		c0.5-0.8,0.5-1.6,0-2.4c-0.2-0.3-0.6-0.4-0.9-0.7c-0.2-0.1-0.3-0.3-0.5-0.5c1.2-0.3,2.2,0.2,2.5,1.6c0.3,1.1,0.1,2-0.2,3.1
		c-0.1,0.3-0.1,0.5-0.1,0.8c0,1.1-0.1,2.1-0.1,3.2c0,0.8,0,1.6,0.1,2.4c0,0.5,0,1,0,1.5c0,0.2,0.1,0.5,0.1,0.7
		c0,0.2-0.1,0.4-0.2,0.6c-0.2-0.1-0.4-0.1-0.5-0.2c-0.4-0.7-0.8-1.4-1.3-2.1c-0.4-0.6-0.7-1.1-1.2-1.6c-0.3-0.4-0.7-0.8-1.1-1.1
		c-0.2-0.1-0.5-0.2-0.7-0.2c0,0-0.2,0.2-0.1,0.3C9.7,9.6,9.9,9.7,10,9.9c0.3,0.4,0.2,0.8-0.1,1.2c-0.3,0.4-0.8,0.3-1.2,0.2
		c-0.4,0-0.6-0.3-0.7-0.7c0,0,0-0.1,0-0.1c-0.3-0.4-0.3-0.7,0.2-1.1C8,9.4,8,9.3,7.9,9.3c-0.5,0.3-1,0.7-1.5,1
		c-0.1,0.1,0,0.4,0.1,0.5c0.2,0.4,0.4,0.7,0.6,1c0.7,1,0.8,2.2,0.6,3.4c-0.2,1.3-0.5,2.6-0.7,4c-0.1,0.8-0.3,1.5-0.2,2.3
		c0,0.9,0.4,1.7,1.1,2.3c0.5,0.5,1,1,1.6,1.5c0.5,0.5,1.1,1,1.6,1.6c0.3,0.4,0.5,0.9,0.8,1.3c0.1,0.2,0.3,0.3,0.5,0.4
		c0.1,0.1,0.3,0.2,0.4,0.3c0.4,0.7,1,1,1.7,1.2c0.5,0.2,0.9,0.5,1.3,0.7c0.1,0,0.1,0.1,0.2,0.2c0.3,0.1,0.5,0.2,0.4,0.5
		c-0.1,0.2-0.3,0.5-0.6,0.6c-0.6,0.3-1.1,0.2-1.6-0.2c-0.8-0.6-1.6-1-2.3-1.7c-0.5-0.5-0.8-1.2-1.2-1.7c-0.4-0.6-0.7-1.4-1.3-1.8
		c-0.6-0.5-0.9-1.2-1.7-1.5c-0.4-0.1-0.5-0.8-0.8-1.2c-0.8-1.3-0.9-2.7-0.8-4.1c0.1-1.5,0.3-3,0.4-4.4c0-0.6-0.2-1.1-0.2-1.7
		c-0.1-0.8-0.5-1.5-0.9-2.1c-0.2-0.3-0.4-0.6-0.6-0.9c-0.2-0.3-0.2-0.5,0-0.7c0.5-0.5,0.9-1,1.4-1.5c0.4-0.4,0.8-0.7,1.4-0.8
		c0.7-0.1,0.6-0.1,0.7-0.8c0-0.8,0.2-1.5,0.5-2.2c0.4-1,0.9-1.9,1.3-2.8c0.1-0.1,0.2-0.2,0.3-0.3c0.1,0.1,0.3,0.3,0.3,0.5
		c0,0.2-0.1,0.5-0.1,0.7c-0.2,0.6-0.3,1.3-0.5,1.9C9.8,5.4,9.6,6,9.4,6.7c-0.1,0.4,0.1,1,0.5,1.1c1.4,0.4,2.1,1.5,2.9,2.6
		c0.2,0.4,0.5,0.7,0.8,1C13.6,11.4,13.6,11.4,13.7,11.4L13.7,11.4z"/>
	<path class="st1" d="M11.7,0.8C11.6,0.9,11.5,1,11.4,1c0-0.1-0.1-0.1-0.1-0.2c0-0.1,0.1-0.1,0.1-0.2C11.5,0.7,11.6,0.8,11.7,0.8
		L11.7,0.8z"/>
	<path class="st2" d="M23.5,30.6c-0.2-0.2-0.5-0.3-0.7-0.5c-0.2-0.3-0.1-0.6,0.2-0.9c0.3-0.2,0.5-0.4,0.8-0.6
		c0.3-0.2,0.5-0.2,0.8,0.1c0.3,0.2,0.3,0.5,0.1,0.7c-0.2,0.3-0.5,0.7-0.7,1C23.9,30.4,23.7,30.5,23.5,30.6L23.5,30.6z"/>
</g>
</svg>
