<?xml version="1.0" encoding="utf-8"?>
<!-- Generator: Adobe Illustrator 28.0.0, SVG Export Plug-In . SVG Version: 6.00 Build 0)  -->
<svg version="1.1" id="Слой_1" xmlns="http://www.w3.org/2000/svg" xmlns:xlink="http://www.w3.org/1999/xlink" x="0px" y="0px"
	 viewBox="0 0 200 100" style="enable-background:new 0 0 200 100;" xml:space="preserve">
<style type="text/css">
	.st0{fill:#F1EFEE;}
</style>
<path class="st0" d="M26.3,17.7h15l-4.2,20.1l10.4,6.9l-4.1,19.5L19.9,48L26.3,17.7z M55.9,16.9H71L56.5,85.1L44.3,71.7L55.9,16.9z"
	/>
<path class="st0" d="M75,17.7h15l-4.2,20.1l10.4,6.9L92,64.3L68.6,48L75,17.7z M104.6,16.9h15.1l-14.5,68.2L93,71.7L104.6,16.9z"/>
<g>
	<path class="st0" d="M182.8,82.2c-0.6-0.2-1.1-0.6-1.4-1.2l-14.2-24.4c-1.1-1.8-1.5-4-1.2-6.1l4.5-36c0.1-0.4,0.4-0.8,0.8-1
		c-1-1.3-2.3-2.3-3.8-2.8c0.2,0.3,0.3,0.6,0.3,0.9c0.1,0.3,0.1,0.6,0,0.9l-4.9,36.2c-0.1,0.5-0.1,0.7-0.2,0.9
		c-0.5,1.6-2,2.8-3.7,2.9l-39,2.8c-1.2,0.1-2.2-0.5-2.8-1.4v0.2l0.2,0.1c-0.5,2.5-0.1,5.1,1.3,7.3c-0.1-1,0.3-2.1,1.2-2.8
		c0.4-0.3,1-0.5,1.5-0.6l36.9-3c2.7-0.2,5.3,1.1,6.7,3.4l6.1,10.1c-0.5-1-1-2-1.4-3c1,1.3,2,2.6,2.9,4c0.1,0.2,0.2,0.4,0.3,0.5
		c-0.1-0.2-0.2-0.4-0.3-0.6c-0.8-1.5-1.5-2.9-2.1-4.4c0.9,1.1,1.7,2.2,2.5,3.4c-0.7-1.2-1.3-2.5-1.8-3.8c1,1.3,2,2.6,2.9,4
		s1.8,2.7,2.6,4.1s1.6,2.8,2.4,4.2c0.8,1.4,1.5,3,2.1,4.5c-0.9-1.1-1.7-2.3-2.5-3.5c0.7,1.3,1.3,2.5,1.8,3.9c-1-1.3-2-2.6-2.9-4
		c-0.1-0.2-0.2-0.4-0.3-0.5c0.1,0.2,0.2,0.4,0.3,0.6c0.8,1.5,1.5,2.8,2.1,4.3c-0.7-1-1.5-2-2.2-3l2.4,4c0.4,0.7,0.5,1.5,0.3,2.3v0.1
		c1.7-0.6,3.2-1.9,4.1-3.4C183.7,82.4,183.3,82.4,182.8,82.2z"/>
	<path class="st0" d="M163.6,10.4L128,16.6c-1,0.2-1.9,0.7-2.6,1.5c-0.3,0.4-0.5,0.8-0.7,1.3c0,0.1-0.1,0.3-0.1,0.4l-6.3,28.5
		l-0.8,3.8c0,0.5,0.2,1.1,0.6,1.5c0.5,0.5,1.1,0.8,1.8,0.8l39-2.8c1.5-0.1,2.8-1.3,3-2.8l4.9-36.3c0.1-0.6-0.1-1.3-0.6-1.8
		c-0.2-0.2-0.3-0.3-0.5-0.4C165,10.3,164.3,10.3,163.6,10.4z M126,20.1c0-0.1,0-0.2,0.1-0.3c0.4-1.1,1.3-2,2.5-2.2l8.8-1.4
		c-0.3,0.1-9,2.3-10,4.1s-3.9,11.4-3.9,11.4L126,20.1z M135.3,26.3c-1.5,2.2-4,3.1-5.5,2c-1.5-1-1.5-3.7,0.1-5.8
		c1.5-2.2,4-3.1,5.5-2S136.8,24.1,135.3,26.3z M123.9,37.6l3.8-3.6c-0.2,0.1-0.5,0-0.7-0.3s-0.1-0.7,0.2-0.9
		c0.6-0.5,1.8-1.6,2.5-2.2l0,0c-0.3-0.2-0.6-0.5-0.9-0.9c-0.2-0.3-0.3-0.7-0.4-1.1c0.2,0.3,0.4,0.6,0.6,0.8c0.3,0.2,0.5,0.4,0.9,0.6
		c0.6,0.2,1.3,0.3,2,0.2c0.7-0.1,1.3-0.4,1.9-0.8c0.6-0.4,1.1-0.8,1.6-1.3c0.2-0.3,0.5-0.5,0.7-0.8c0.1-0.1,0.2-0.3,0.3-0.4l0.1-0.2
		c0-0.1,0.1-0.1,0.1-0.2c0.4-0.6,0.6-1.2,0.8-1.9c0.1-0.2,0.1-0.3,0.1-0.5s0.1-0.3,0.1-0.5c0-0.3,0-0.7,0-1s-0.1-0.7-0.1-1
		c-0.2-0.6-0.3-1-0.5-1.3c0.3,0.2,0.6,0.5,0.8,0.9c0.1,0.2,0.2,0.4,0.3,0.7l4.4-3.6l-4.2,4.8c0,0.5,0,1.1,0,1.6
		c0,0.2-0.1,0.4-0.1,0.6l-0.1,0.3l-0.1,0.3l-0.1,0.3c0,0.1-0.1,0.2-0.1,0.3l-0.1,0.3l-0.1,0.3c-0.1,0.1-0.1,0.2-0.1,0.3l-0.1,0.2
		c-0.1,0.2-0.2,0.3-0.3,0.5c-0.2,0.3-0.5,0.6-0.8,0.9s-0.6,0.6-0.9,0.8c-0.3,0.2-0.6,0.4-0.9,0.6l-1.2,1.2c0.2,0.1,0.3,0.2,0.4,0.3
		c0.3,0.4,0.2,1.1-0.2,1.4c-0.9,0.8-10.9,10.3-10.9,10.3L123.9,37.6z M144.6,30c1.5,1,1.5,3.7-0.1,5.8s-4,3.1-5.5,2
		c-1.5-1-1.5-3.7,0.1-5.8S143.1,28.9,144.6,30z M131.7,47.2c-1.5,2.2-4,3.1-5.5,2c-1.5-1-1.5-3.7,0.1-5.8c1.5-2.2,4-3.1,5.5-2
		C133.2,42.4,133.2,45,131.7,47.2z M119.9,52.9c-0.2,0-0.4-0.1-0.6-0.2c-0.1-0.2-0.2-0.4-0.2-0.6l1.6-7.4c-0.1,0.5-1,6.3-0.5,7.1
		s5.1,0.7,5.4,0.7L119.9,52.9z M131.7,50.8c-0.3,0.2-0.7,0.5-1,0.7c-0.4,0.2-0.7,0.4-1.1,0.5l-0.3,0.1l-0.3,0.1
		c-0.2,0-0.4,0.1-0.6,0.1h-0.6c-0.2,0-0.4,0-0.6-0.1c-0.4-0.1-0.8-0.3-1.2-0.5c-0.3-0.2-0.6-0.5-0.9-0.9c-0.2-0.3-0.3-0.7-0.4-1.1
		c0.2,0.3,0.4,0.6,0.6,0.8c0.3,0.2,0.5,0.4,0.9,0.6c0.6,0.2,1.3,0.3,2,0.2s1.3-0.4,1.9-0.8c0.6-0.4,1.1-0.8,1.6-1.3
		c0.2-0.2,0.5-0.5,0.7-0.8l0.3-0.4l0.1-0.2c0-0.1,0.1-0.1,0.1-0.2c0.3-0.6,0.6-1.2,0.8-1.9c0.1-0.2,0.1-0.3,0.1-0.5s0.1-0.3,0.1-0.5
		c0-0.3,0.1-0.7,0.1-1s-0.1-0.7-0.2-1c-0.1-0.8-0.2-1.1-0.4-1.5c0.3,0.2,0.6,0.5,0.8,0.9c0.2,0.3,0.3,0.7,0.4,1.1
		c0.1,0.4,0.2,0.8,0.2,1.2s0,0.8-0.1,1.2c0,0.2-0.1,0.4-0.1,0.6s-0.1,0.2-0.1,0.3l-0.1,0.3l-0.1,0.3l-0.1,0.3c0,0.1-0.1,0.2-0.1,0.3
		L134,48c0,0.1-0.1,0.2-0.1,0.3l-0.2,0.3c-0.1,0.2-0.2,0.3-0.3,0.5c-0.2,0.3-0.5,0.6-0.8,0.9C132.3,50.3,132,50.6,131.7,50.8z
		 M132.8,52l3.6-1.2l9.5-9.5l-8.1,9.7l2.3,0.4L132.8,52z M160.4,48.6c0,0.1,0,0.2-0.1,0.3c-0.2,0.7-0.8,1.1-1.5,1.2l-16.6,1.2
		l8.4-1.5l-4.5-0.3l2.9-0.6c-0.3-0.2-0.6-0.5-0.8-0.8s-0.3-0.7-0.4-1.1c0.3,0.6,0.8,1.1,1.5,1.4c0.4,0.1,0.9,0.2,1.4,0.2h0.2
		c0,0,0.7-0.1,1.5-0.3c0.3-0.1,0.5-0.3,0.8-0.5c0.6-0.4,1.1-0.8,1.6-1.3c0.2-0.3,0.5-0.5,0.7-0.8c0.1-0.1,0.2-0.3,0.3-0.4l0.1-0.2
		c0-0.1,0.1-0.1,0.1-0.2c0.4-0.6,0.6-1.2,0.8-1.9c0.1-0.2,0.1-0.3,0.1-0.5s0.1-0.3,0.1-0.5c0-0.3,0-0.7,0-1s-0.1-0.7-0.1-1
		c-0.2-0.8-0.3-1.1-0.5-1.5c0.3,0.2,0.6,0.5,0.8,0.9c0.2,0.3,0.3,0.7,0.4,1.1c0.1,0.4,0.1,0.8,0.2,1.2c0,0.4,0,0.8-0.1,1.2
		c0,0.2-0.1,0.4-0.1,0.6s-0.1,0.2-0.1,0.3l-0.1,0.3l-0.1,0.3c0,0.1-0.1,0.2-0.1,0.3l-0.1,0.3l-0.1,0.3c0,0,0,0.1-0.1,0.1
		c0,0,0,0,0,0.1v0.1l-0.1,0.3c0,0.1-0.1,0.1-0.1,0.2c-0.1,0.4-0.3,0.8-0.4,1.1c0,0,2.6-1.8,2.3-6.5l1.6-2.9l2.2-4.1L160.4,48.6z
		 M149.3,40.7c1.5-2.2,4-3.1,5.5-2c1.5,1,1.5,3.7-0.1,5.8c-1.5,2.2-4,3.1-5.5,2S147.8,42.9,149.3,40.7z M165.1,11.9
		c0.1,0.1,0.2,0.3,0.1,0.5l-2.1,15.9l-0.1-3.5l-5.8,6.7l-0.4-1.5l-7.6,7.1l9.4-10.8l0.4,1.1c1.4-1.6,2.2-3.6,2.4-5.6
		c0,0.1,0,0.1,0,0.1c-0.5,1.4-1.3,2.7-2.4,3.7c-0.6,0.5-1.2,0.9-1.9,1.2c-0.7,0.4-1.5,0.6-2.2,0.7c-0.4,0-0.8,0-1.2,0
		c-0.3,0-0.6-0.1-0.9-0.2l-4.5,4.4c0.1,0.5,0.1,0.9,0.1,1.4s-0.1,0.9-0.2,1.3c-0.1,0.4-0.3,0.9-0.4,1.3c-0.2,0.4-0.4,0.8-0.6,1.2
		l-0.2,0.3l-0.2,0.3l-0.2,0.3l-0.1,0.1l-0.1,0.1c-0.1,0.2-0.3,0.3-0.5,0.5l-0.2,0.2l-0.3,0.2L145,39l-0.3,0.2l-0.3,0.2l-0.3,0.2
		c-0.4,0.2-0.8,0.4-1.2,0.5s-0.9,0.2-1.3,0.2c-0.2,0-0.4,0-0.6,0h-0.3c-0.1,0-0.2,0-0.3-0.1l-0.3-0.1l-0.3-0.1l-0.1-0.1l-0.1-0.1
		l-0.3-0.2c0.8,0.2,1.5,0.2,2.3,0c0.4-0.1,0.7-0.2,1.1-0.4l0.5-0.3c0.2-0.1,0.3-0.2,0.5-0.3c0.6-0.4,1.2-1,1.7-1.5
		c0.5-0.6,0.9-1.3,1.2-2s0.5-1.5,0.6-2.2c0.1-0.8,0-1.6-0.2-2.3c-0.1-0.4-0.3-0.7-0.5-1s-0.5-0.6-0.8-0.9c-0.3-0.2-0.6-0.4-1-0.6
		c-0.3-0.1-0.7-0.1-1.1-0.2c0.2-0.1,0.4-0.1,0.6-0.1s0.4,0,0.6,0c0.4,0.1,0.9,0.2,1.3,0.4c0.2,0.1,0.3,0.2,0.5,0.3l3.5-3.5l-0.1-0.3
		c0-0.1-0.1-0.2-0.1-0.3c0-0.1,0-0.2-0.1-0.3c0-0.2-0.1-0.4-0.1-0.5v-0.3V23c0-0.2,0-0.4,0-0.5c0-0.3,0.1-0.7,0.2-1
		c0-0.2,0.1-0.3,0.2-0.5c0.1-0.2,0.1-0.3,0.2-0.5l0.2-0.5l0.3-0.4c-0.3,0.6-0.4,1.2-0.5,1.9c-0.1,0.6-0.1,1.3,0.1,1.9
		c0,0.2,0.1,0.3,0.1,0.5c0,0.1,0.1,0.2,0.1,0.2c0,0.1,0.1,0.2,0.1,0.2l0.1,0.2l0.1,0.1l0.1,0.1l0.1,0.2l0.1,0.2
		c0.4,0.5,1,0.9,1.6,1.1s1.3,0.2,1.9,0.1c0.6-0.1,1.3-0.3,1.8-0.6c1.1-0.6,2.1-1.5,2.8-2.6s1.2-2.3,1.3-3.6c0-0.7,0-1.3-0.2-1.9
		s-0.5-1.2-1-1.6s-1.1-0.8-1.7-0.9c-0.6-0.1-1.3-0.1-1.9,0c-1.2,0.5-2.3,1.2-3.2,2.1c0.6-0.9,1.4-1.7,2.3-2.2
		c-2.1,0.3-3.9,0.9-4,0.9l2.9-1.4l-8.1,0.4l19.2-3.2C164.9,11.7,165,11.8,165.1,11.9z M152.9,19c1.5-2.2,4-3.1,5.5-2
		c1.5,1,1.5,3.7-0.1,5.8s-4,3.1-5.5,2C151.3,23.8,151.3,21.2,152.9,19z"/>
	<path class="st0" d="M187.1,48.1c0.1-2.2-0.3-4.4-1.3-6.4L172,14.6c-0.1-0.1-0.1-0.2-0.2-0.3h-0.1c-0.2,0.1-0.4,0.2-0.4,0.4
		l-4.5,36c-0.2,1.9,0.2,3.8,1.1,5.5l14.2,24.4c0.5,0.8,1.6,1.1,2.4,0.6c0.1-0.1,0.2-0.1,0.3-0.2c0.3-0.7,0.4-1.5,0.5-2.3L187.1,48.1
		z M180.5,52.1l0.2,0.2l0.2,0.2l0.2,0.2c0.1,0.1,0.2,0.3,0.4,0.4c0.4,0.6,0.8,1.2,1.1,1.9c0.6,1.4,0.9,2.8,1,4.3c0,0.4,0,0.8,0,1.1
		c0,0.4,0,0.7-0.1,1.1c-0.1,0.8-0.3,1.5-0.6,2.2c-0.2,0.4-0.3,0.7-0.6,1c-0.1,0.2-0.3,0.3-0.4,0.5c-0.2,0.1-0.3,0.3-0.5,0.4
		c-0.4,0.2-0.8,0.3-1.2,0.2c-0.4-0.1-0.7-0.3-1-0.6c0.3,0.2,0.6,0.3,1,0.4h0.3l0.3-0.1c0.2-0.1,0.3-0.1,0.5-0.2
		c0.3-0.2,0.5-0.5,0.7-0.8s0.3-0.7,0.4-1c0.2-0.7,0.4-1.4,0.4-2.1c0.1-0.7,0.1-1.4,0-2.1c-0.1-1.4-0.4-2.8-0.8-4.2
		c-0.2-0.7-0.5-1.3-0.9-1.9c-0.4-0.6-0.8-1.1-1.3-1.6c0.2,0.1,0.3,0.2,0.5,0.3C180.4,52,180.5,52,180.5,52.1z M177.3,58.9
		c-0.2-1.3-0.3-2.7-0.1-4.1c0.2-1.3,0.7-2,1.3-2.1s1.2,0.5,1.8,1.6c0.6,1.2,1,2.5,1.2,3.9c0.3,1.7,0.3,3.4-0.1,5
		c-0.3,0.7-0.6,1.1-1.1,1.2C179,64.6,177.8,61.7,177.3,58.9z M179,34.8c0.5,1.1,0.8,2.2,0.9,3.4c0.1,1.2,0.1,2.4-0.2,3.5
		c-0.1,0.6-0.3,1.2-0.6,1.7c-0.1,0.3-0.3,0.5-0.5,0.8c-0.1,0.1-0.2,0.2-0.3,0.3s-0.2,0.2-0.4,0.3c0.4-0.4,0.7-0.9,0.9-1.5
		c0.2-0.5,0.3-1.1,0.4-1.7c0.1-1.1,0.1-2.3,0-3.4c-0.1-1.1-0.4-2.2-0.7-3.3c-0.4-1-1-2-1.7-2.8c0.5,0.3,0.9,0.7,1.3,1.2
		S178.8,34.3,179,34.8z M172.8,22c0-0.2,0.2-0.4,0.4-0.4c0.2,0.1,0.4,0.2,0.4,0.4c1.2,2.3,2.6,5.1,4,7.9l-3.8-5.1l-2.6,10L172.8,22z
		 M170,55c-0.8-1.4-1.1-3-0.9-4.5l0.4-3.7c0.3,1.8,0.7,4.6,0.8,5.7c0.2,1.6,4.1,10.1,4.2,10.2L170,55z M173.5,38.4
		c-0.5-2.5-0.3-4.8,0.4-5.7c0.2-0.2,0.4-0.4,0.8-0.5c1.4-0.1,2.7,2.8,3.2,5.7c0.4,1.6,0.4,3.3,0,4.9c-0.1,0.3-0.2,0.6-0.4,0.8
		c-0.2,0.3-0.5,0.5-0.8,0.5C175.3,44.2,174,41.3,173.5,38.4z M183.2,77L183.2,77l-0.2,0.2c-0.1,0-0.2,0-0.2-0.1l-6.4-11l5.9,8.2
		l1.7-9.6L183.2,77z"/>
	<path class="st0" d="M145.1,86.9l32.4-0.7c0.2,0,0.4,0,0.6,0c0.3-0.1,0.7-0.4,0.9-0.7c0.3-0.6,0.2-1.3-0.1-1.8L164.1,59
		c-1.2-2-3.4-3.2-5.8-3l-36.9,3c-0.7,0.1-1.4,0.5-1.7,1.2c-0.1,0.1-0.1,0.1-0.1,0.2c-0.2,0.6-0.1,1.3,0.3,1.8l12.3,16.1l3.5,4.3
		C138,85.4,141.4,87,145.1,86.9z M147.5,67c0.3,0,0.6-0.1,0.9-0.1s0.6,0,0.9,0s0.6,0,0.9,0.1c1,0.2,2,0.4,2.9,0.8l2.1-9.6l1.2,0.1
		c-0.7-0.1-1.5-0.1-2.8-0.2l0.5,0.1l-1.4,5.7l0.5-5.8c-0.3,0-0.7,0-1.1-0.1l-1.2-0.1l7.2-0.6c2,0,3.8,0.9,4.7,2.5L177.4,84
		c0.1,0.2,0.1,0.4,0.1,0.6c-0.1,0.2-0.4,0.2-0.6,0.2L158,85.2l7.4-1.2l-4.5-0.8l4.9-0.3c-0.2-0.1-0.4-0.1-0.6-0.2l-0.4-0.2
		c-0.1-0.1-0.3-0.1-0.4-0.2c-0.1-0.1-0.5-0.3-0.8-0.4s-0.5-0.3-0.7-0.5s-0.5-0.4-0.7-0.6s-0.4-0.4-0.6-0.6s-0.4-0.4-0.5-0.7
		c0.8,0.8,1.7,1.4,2.8,1.9c0.5,0.2,1,0.5,1.6,0.7c0.5,0.2,1.1,0.3,1.6,0.4c0.6,0.1,1.1,0.2,1.7,0.2c0.1,0,0.2,0,0.3,0
		c0.7-0.1,1.5-0.3,2.3-0.5c0.2-0.1,0.4-0.3,0.6-0.5c0.4-0.4,0.7-0.9,0.8-1.5s0-1.1-0.2-1.7c-0.2-0.5-0.5-1-0.9-1.4s-0.8-0.8-1.2-1.2
		c-0.5-0.3-0.9-0.7-1.4-0.9c-1-0.5-2.1-0.9-3.1-1.2c-1.3-0.4-2.5-0.4-3.6-0.3c0.3-0.1,0.5-0.2,0.8-0.2c0.3-0.1,0.6-0.1,0.9-0.1
		c0.3,0,0.6,0,0.9,0s0.6,0,0.9,0.1c1.2,0.2,2.3,0.5,3.4,1c0.6,0.3,1.1,0.6,1.6,0.9c0.1,0.1,0.2,0.2,0.3,0.2l-0.1-0.1l-2.8-2.1
		l0.3-1.8c-1.3-2.6-2.8-5.1-4.4-7.5l-0.5,3.1l-3.7,2.9l2-9.4c-0.4-0.4-0.8-0.9-1.3-1.2l-2.5,10.9c-0.5-0.7-1.2-1.3-1.9-1.8
		c1.5,2.6,1.7,3.6,1.5,4c0.1,0.5,0.1,1,0,1.5c-0.2,1-0.9,1.9-1.7,2.5l-2.1,7.8l-2.5,0.1l1.9-7.1c-0.2,0-0.4,0-0.6,0
		c-0.3,0-0.6,0-0.9-0.1l-0.5-0.1H151l-0.4-0.1l-0.4-0.1c-0.3-0.1-0.6-0.2-0.8-0.3c-0.1,0-0.3-0.1-0.4-0.2l-0.4-0.2
		c-0.3-0.2-0.5-0.3-0.8-0.4s-0.5-0.3-0.7-0.5s-0.5-0.4-0.7-0.6s-0.4-0.4-0.6-0.6s-0.4-0.4-0.5-0.7c0.8,0.8,1.7,1.4,2.8,1.9
		c0.5,0.2,1,0.5,1.6,0.6c0.5,0.2,1.1,0.3,1.6,0.4c0.6,0.1,1.1,0.2,1.7,0.2c0.6,0,1.1-0.1,1.7-0.2c0.1-0.1,0.3-0.1,0.4-0.2
		s0.3-0.1,0.4-0.2c0.2-0.1,0.5-0.3,0.7-0.5c0.4-0.4,0.7-0.9,0.8-1.5s0-1.1-0.2-1.7c-0.2-0.5-0.5-1-0.9-1.4s-0.8-0.8-1.2-1.2
		c-0.5-0.3-0.9-0.6-1.4-0.9c-1-0.5-2-0.9-3.1-1.2c-1.3-0.2-2.4-0.3-3.5-0.1C147,67.2,147.2,67.1,147.5,67z M160.8,75.9
		c0.2-0.5,0.5-0.8,1-1c1.2-0.6,3.1-0.4,5.2,0.4c3,1.2,4.9,3.2,4.4,4.7c-0.2,0.5-0.5,0.8-1,1c-1.2,0.6-3.1,0.4-5.2-0.4
		C162.2,79.4,160.3,77.4,160.8,75.9z M145,69.7c0.2-0.5,0.5-0.8,1-1c1.2-0.6,3.1-0.4,5.2,0.4c3.1,1.2,4.9,3.2,4.4,4.7
		c-0.2,0.5-0.5,0.8-1,1c-1.1,0.6-3.1,0.4-5.2-0.4C146.4,73.2,144.5,71.2,145,69.7z M121.3,61.6c-0.2-0.2-0.2-0.5-0.1-0.8
		s0.4-0.6,0.7-0.6l17.2-1.1l-15.9,2.3c-0.2,0-0.3,0.2-0.3,0.4v0.1l5.3,8.5l0.2,0.3L121.3,61.6z M129.2,63.4c1.2-0.6,3.1-0.4,5.2,0.4
		c3.1,1.2,4.9,3.2,4.4,4.7c-0.2,0.5-0.5,0.8-1,1c-1.2,0.6-3.1,0.4-5.2-0.4c-3-1.2-4.8-3.2-4.4-4.7C128.4,63.9,128.7,63.6,129.2,63.4
		z M137.9,74.4c-0.3-0.1-0.6-1.7,0.1-2.6l0,0c-0.7,0.2-1.3,0.2-2,0.2c-0.3,0-0.6,0-0.9-0.1l-0.4-0.1l-0.4-0.1l-0.4-0.1l-0.4-0.1
		c-0.3-0.1-0.6-0.2-0.8-0.3c-0.1-0.1-0.3-0.1-0.4-0.2l-0.4-0.2c-0.3-0.2-0.5-0.3-0.8-0.4s-0.5-0.3-0.7-0.5s-0.5-0.4-0.7-0.6
		s-0.4-0.4-0.6-0.6s-0.4-0.4-0.5-0.7c0.8,0.8,1.8,1.4,2.8,1.9c0.5,0.2,1,0.5,1.6,0.6c0.5,0.2,1.1,0.3,1.6,0.4
		c0.6,0.1,1.1,0.2,1.7,0.2s1.1-0.1,1.7-0.2c0.1,0,0.3-0.1,0.4-0.1s0.3-0.1,0.4-0.2c0.2-0.1,0.5-0.3,0.7-0.5c0.4-0.4,0.7-0.9,0.8-1.5
		s0-1.1-0.2-1.7c-0.2-0.5-0.5-1-0.9-1.4s-0.8-0.8-1.2-1.2c-0.5-0.3-0.9-0.6-1.4-0.9c-1-0.5-2.1-0.9-3.1-1.2
		c-1.4-0.3-2.5-0.4-3.6-0.2c0.3-0.1,0.5-0.2,0.8-0.3s0.6-0.1,0.9-0.1c0.3,0,0.6,0,0.9,0s0.6,0,0.9,0.1c1.2,0.2,2.3,0.5,3.4,1
		c0.6,0.3,1.1,0.6,1.6,0.9c0.1,0.1,0.1,0.1,0.2,0.2l0.6-3.3l3-0.3l-1.1,7.5c0,0.3,0,0.5-0.1,0.8l1-0.2c0.1-0.1,0.3-0.1,0.5-0.1
		c0.5,0,0.9,0.5,0.8,1l-1.6,14c0.3,0.2,0.7,0.4,1,0.5l1.2-10.1l0.1,10.6c0.9,0.3,1.8,0.6,2.9,0.8c1,0.2,2.1,0.3,3.4,0.4l-4.5,0.1
		c-2.2,0.2-4.4-0.3-6.4-1.3c-0.9-0.6-1.7-1.4-2.4-2.2c-1.8-2-3.4-4.1-4.8-6.3c1.7,1.8,3.6,3.4,5.6,4.8c0.2,0.1,0.4,0.3,0.5,0.4
		l0.8-6.3c0.4-0.7,0.8-1.4,1-2.1C140.1,72.6,138.7,74.5,137.9,74.4z"/>
</g>
</svg>
