<?xml version="1.0" encoding="utf-8"?>
<!-- Generator: Adobe Illustrator 28.0.0, SVG Export Plug-In . SVG Version: 6.00 Build 0)  -->
<svg version="1.1" id="Слой_1" xmlns="http://www.w3.org/2000/svg" xmlns:xlink="http://www.w3.org/1999/xlink" x="0px" y="0px"
	 viewBox="0 0 200 100" style="enable-background:new 0 0 200 100;" xml:space="preserve">
<style type="text/css">
	.st0{fill:#F1EFEE;}
</style>
<path class="st0" d="M19.8,54.6h4.9l7.3-7.3L24.7,40H10.1l-4.8-4.9h21.8l12.1,12.2L27.1,59.5h-7.3V54.6z M17.4,59.4v-17h-6.1v17
	H17.4z"/>
<path class="st0" d="M66.1,40l-4.7-4.9h18l7.3,7.3L83,46.1h-7.3l3.6-3.6L77,40H66.1z M73.3,59.5h-6.1v-17h6.1V59.5z M75.8,48.5v4.9
	h4.9l6.1,6.1H94l-10.9-11H75.8z"/>
<path class="st0" d="M87.9,59.5V35.2H94v24.3H87.9z M98.9,44.9l9.7-9.7h7.3l-12.2,12.2l12.1,12.2h-7.3l-9.7-9.7h-2.4V45L98.9,44.9
	L98.9,44.9z"/>
<path class="st0" d="M46.6,40h-7.3l-4.7-4.9H49l24.3,24.3H66L46.6,40z M40.5,42.4v17h6.1v-6.1h10.9l-4.9-4.9h-6.1v-6.1L40.5,42.4
	L40.5,42.4z"/>
<path class="st0" d="M126.6,54.6h4.9l7.3-7.3l-7.3-7.3h-14.6l-4.8-4.9h21.8L146,47.3l-12.1,12.2h-7.3
	C126.6,59.5,126.6,54.6,126.6,54.6z M124.1,59.4v-17H118v17H124.1z"/>
<path class="st0" d="M146,40l-4.7-4.9h33.9l-4.9,4.9H146z M147.2,59.4h21.9l-4.9-4.9h-10.9v-4.9h6.1l4.9-4.9h-10.9v-2.4h-6.1
	L147.2,59.4z"/>
<path class="st0" d="M176.4,35.2v10.9l10.9-10.9h7.3l-24.3,24.3V35.2H176.4z"/>
<polygon class="st0" points="194.5,45.2 194.5,59.7 180,59.7 184.4,55.3 190.1,55.3 190.1,49.6 "/>
<path class="st0" d="M66.7,65.4v4.9h-0.8v-5.7h3.7c0.9,0.1,1.6,0.9,1.5,1.8c-0.1,0.8-0.7,1.4-1.5,1.5h-0.7l2.4,2.4h-1.2L67,67h2.6
	c0.4,0,0.8-0.4,0.8-0.8c0-0.2-0.1-0.4-0.2-0.6s-0.4-0.2-0.6-0.2H66.7z"/>
<path class="st0" d="M76.8,64.6v0.8h-4.1v4.1h4.1v0.8h-4.9v-5.7C71.9,64.6,76.8,64.6,76.8,64.6z M76.8,67.8h-3.3V67h3.3V67.8z"/>
<path class="st0" d="M78.5,65.4v4.9h-0.8v-5.7h4.9v0.8C82.6,65.4,78.5,65.4,78.5,65.4z M82.5,67.8h-3.3V67h3.3V67.8z"/>
<path class="st0" d="M83.4,64.6h0.8v4.9h4.1v0.8h-4.9V64.6z"/>
<path class="st0" d="M93.8,64.6v0.8h-4.1v4.1h4.1v0.8h-4.9v-5.7C88.9,64.6,93.8,64.6,93.8,64.6z M93.8,67.8h-3.3V67h3.3V67.8z"/>
<path class="st0" d="M97.3,64.6h2.4v0.8h-2.4c-1.1,0-2,0.9-2,2.1c0,0.5,0.2,1,0.6,1.4s0.9,0.6,1.4,0.6h2.4v0.8h-2.4
	c-1.6,0-2.9-1.3-2.9-2.9S95.7,64.6,97.3,64.6L97.3,64.6z"/>
<path class="st0" d="M105.5,65.4h-4.9v-0.8h4.9V65.4z M103.5,70.3h-0.8v-4.1h0.8V70.3z"/>
<path class="st0" d="M107.1,70.3h-0.8v-0.8h0.8V70.3z"/>
<path class="st0" d="M112.8,64.6h2.5v0.8h-2.5c-1.1-0.1-2,0.8-2.1,1.9c0,0.6,0.2,1.2,0.7,1.6c0.4,0.4,0.9,0.6,1.4,0.6h1.6v-1.6h-1.6
	V67h2.5v3.3h-2.5c-1.6,0-2.9-1.3-2.9-2.9S111.3,64.5,112.8,64.6L112.8,64.6z"/>
<path class="st0" d="M117,69.5h2.8v0.8h-4.1l3-6.2l3,6.2h-0.9l-2.1-4.4L117,69.5z"/>
<path class="st0" d="M123.1,65.8v4.5h-0.8v-5.7h0.8l2,2l2-2h0.9v5.7h-0.8v-4.5l-2,2L123.1,65.8z"/>
<path class="st0" d="M129.6,70.3h-0.8v-5.7h0.8V70.3z"/>
<path class="st0" d="M131.2,65.4v4.9h-0.8v-5.7h4.9v0.8C135.3,65.4,131.2,65.4,131.2,65.4z M135.3,67.8H132V67h3.3V67.8z"/>
<path class="st0" d="M138.1,67.6l-2.6-3h1.1l1.9,2.2l1.9-2.2h1.1l-2.6,3v2.7h-0.8L138.1,67.6L138.1,67.6z"/>
<path class="st0" d="M142.9,70.3H142v-0.8h0.8L142.9,70.3z"/>
<path class="st0" d="M145.7,64.6h3.7c0.9,0.1,1.6,0.9,1.5,1.8c-0.1,0.8-0.7,1.4-1.5,1.5h-2.9v2.4h-0.8V64.6z M146.6,65.4V67h2.9
	c0.2,0,0.4-0.1,0.6-0.2c0.2-0.2,0.2-0.4,0.2-0.6s-0.1-0.4-0.2-0.6c-0.2-0.2-0.4-0.2-0.6-0.2L146.6,65.4z"/>
<path class="st0" d="M152.5,65.4v4.9h-0.8v-5.7h3.7c0.9,0.1,1.6,0.9,1.5,1.8c-0.1,0.8-0.7,1.4-1.5,1.5h-0.6l2.4,2.4H156l-3.2-3.3
	h2.6c0.4,0,0.8-0.4,0.8-0.8c0-0.2-0.1-0.4-0.2-0.6c-0.1-0.2-0.4-0.2-0.6-0.2L152.5,65.4z"/>
<path class="st0" d="M160.5,70.5c-1.7,0-3.1-1.4-3.1-3.1s1.4-3.1,3.1-3c1.7,0,3.1,1.4,3,3.1C163.6,69.1,162.2,70.5,160.5,70.5z
	 M160.5,69.7c1.2,0,2.3-1,2.3-2.2s-1-2.3-2.2-2.3c-0.6,0-1.2,0.2-1.6,0.7c-0.9,0.9-0.9,2.3,0,3.2C159.3,69.4,159.9,69.7,160.5,69.7z
	"/>
<path class="st0" d="M167.1,64.6h2.4v0.8h-2.4c-1.1,0-2,0.9-2,2s0.9,2,2,2h1.6v-1.5h-1.6V67h2.4v3.3h-2.4c-1.6,0-2.9-1.3-2.9-2.9
	S165.5,64.5,167.1,64.6L167.1,64.6z"/>
<path class="st0" d="M171.1,65.4v4.9h-0.8v-5.7h3.7c0.9-0.1,1.7,0.6,1.8,1.5s-0.6,1.7-1.5,1.8c-0.1,0-0.2,0-0.3,0h-0.6l2.4,2.4h-1.2
	l-3.3-3.3h2.6c0.2,0,0.4-0.1,0.6-0.2c0.2-0.1,0.2-0.4,0.2-0.6c0-0.5-0.4-0.8-0.8-0.8l0,0L171.1,65.4z"/>
<path class="st0" d="M181.2,64.6v0.8h-4.1v4.1h4.1v0.8h-4.9v-5.7C176.3,64.6,181.2,64.6,181.2,64.6z M181.2,67.8H178V67h3.3
	L181.2,67.8z"/>
<path class="st0" d="M183.5,64.6h3.7v0.8h-3.7c-0.5,0-0.8,0.4-0.8,0.8l0,0c0,0.2,0.1,0.4,0.2,0.6c0.2,0.2,0.4,0.2,0.6,0.2h2
	c0.9,0,1.6,0.7,1.6,1.6c0,0.4-0.2,0.8-0.5,1.2c-0.3,0.3-0.7,0.5-1.2,0.5h-3.7v-0.8h3.7c0.2,0,0.4-0.1,0.6-0.2
	c0.2-0.2,0.2-0.4,0.2-0.6c0-0.5-0.4-0.8-0.8-0.8l0,0h-2c-0.4,0-0.9-0.2-1.2-0.5c-0.6-0.6-0.6-1.7,0-2.3
	C182.6,64.7,183,64.6,183.5,64.6z"/>
<path class="st0" d="M189.3,64.6h3.7v0.8h-3.7c-0.2,0-0.4,0.1-0.6,0.2c-0.2,0.2-0.2,0.4-0.2,0.6s0.1,0.4,0.2,0.6
	c0.2,0.2,0.4,0.2,0.6,0.2h2c0.4,0,0.9,0.2,1.2,0.5s0.5,0.7,0.5,1.2c0,0.9-0.7,1.6-1.6,1.6h-3.7v-0.8h3.7c0.2,0,0.4-0.1,0.6-0.2
	c0.2-0.2,0.2-0.4,0.2-0.6c0-0.5-0.4-0.8-0.8-0.8l0,0h-2c-0.4,0-0.9-0.2-1.1-0.5c-0.6-0.6-0.6-1.7,0-2.3l0,0
	C188.4,64.7,188.8,64.6,189.3,64.6z"/>
<path class="st0" d="M194.6,70.3h-0.8v-0.8h0.8V70.3z"/>
</svg>
