<?xml version="1.0" encoding="UTF-8"?>
<svg id="_Слой_1" data-name="Слой 1" xmlns="http://www.w3.org/2000/svg" viewBox="0 0 303.71 115.99">
  <defs>
    <style>
      .cls-1 {
        fill: #f1efee;
        stroke-width: 0px;
      }
    </style>
  </defs>
  <g>
    <path class="cls-1" d="m56.1,94.49c.96-.74,1.95-1.44,2.87-2.23,2.39-2.05,4.71-4.19,7.14-6.19,1.92-1.57,2.82-3.79,4.06-5.79,2.08-3.35,2.08-7.03,1.86-10.78-.11-1.86-.48-3.54-1.47-5.18-1.35-2.26-4.27-3.13-6.49-1.65-1.02.68-2.06.27-2.71-1.08-.73-1.53-.1-3.5,1.01-4.81.98-1.15,1.51-2.67,2.28-4.01.54-.93,1.14-1.82,1.7-2.74.34-.56.72-1.11.97-1.7,1.18-2.81,2.26-5.66,3.49-8.45,1.52-3.46,3.15-6.88,4.72-10.32.86-1.89.92-3.87.48-5.85-.44-2.01-3.17-2.94-4.99-2.17-2.32.97-3.16,3.33-5.03,4.67-1.11.79-2.15,1.67-3.22,2.52-.12.1-.32.19-.34.31-.24,1.41-1.46,1.92-2.37,2.74-1.02.92-2.03,1.89-2.85,2.99-1.05,1.4-1.91,2.94-2.86,4.41-.35.55-.81,1.04-1.11,1.61-.84,1.63-1.62,3.28-2.42,4.93-.12.24-.14.54-.28.77-1.16,1.88-2.36,3.73-3.5,5.62-.34.56-.62,1.18-.82,1.8-.49,1.53-.84,3.1-1.38,4.6-.37,1.03-.7,2.36-2.12,2.32-1.76-.05-2.84-1.36-3.27-2.9-.44-1.59.44-2.7,1.08-3.81,1.78-3.1,3.69-6.14,5.73-9.09,1.58-2.29,3.48-4.36,5.11-6.62.87-1.2,1.45-2.61,2.17-3.92.15-.27.28-.57.49-.79,1.12-1.12,2.24-2.24,3.42-3.29.54-.48,1.3-.73,1.82-1.23.87-.85,1.6-1.83,2.43-2.72,1.45-1.56,2.78-3.27,4.43-4.57,1.4-1.1,3.13-2.23,4.82-2.41,2.14-.23,4.43.29,5.82,2.47,1.02,1.59,2.25,3.1,2.13,5.11-.11,1.73-.2,3.52-.72,5.15-.63,1.96-1.44,3.96-2.64,5.61-2.67,3.68-3.5,8.19-5.8,12.03-1.13,1.89-1.89,4.02-2.73,6.07-.65,1.58-.22,1.95,1.4,2.46,1.1.35,2.04,1.25,3.03,1.93,2.4,1.64,2.64,4.26,2.95,6.8.24,1.95.33,3.92.44,5.88.18,3.21-.44,6.23-2.1,9.02-.35.59-.43,1.34-.76,1.94-.55,1-1.19,1.95-1.83,2.9-.71,1.05-1.47,2.06-2.17,3.12-.09.13,0,.45.12.63.64,1.03,1.34,2.02,1.96,3.06.48.81,1.02.85,1.56.15.92-1.2,2.08-2.1,2.39-3.88.39-2.19,1.6-4.24,2.46-6.35.06-.15.18-.3.17-.43-.19-2.03-.39-4.06-.62-6.08-.05-.42-.34-.82-.35-1.24,0-.48.19-.97.29-1.46.51.35,1.02.69,1.52,1.04.05.03.05.15.06.22.31,2.24.73,4.48.89,6.73.37,5.13-1.24,9.71-4.21,13.85-2.58,3.59-7.71,5.53-11.97,4.45-.7-.18-1.36-.76-1.91-1.28-1.28-1.19-2.51-2.07-4.38-1.07-.61.33-1.54.13-2.31.09-1.55-.09-3.1-.2-4.64-.37-.6-.07-1.21-.26-1.75-.53-2-1.01-3.26-2.64-3.68-4.85-.09-.47.16-1.01.25-1.52.45.21.96.36,1.35.66.3.22.48.62.67.96.97,1.7,3.23,2.66,5.13,2.16,1.75-.46,4.01-5.68,3.14-7.25-1.1-1.98-4.46-2.4-6.19-.78-.99.93-1.99,1.85-3,2.75-.58.52-1.05.26-1.02-.4.05-.98.18-2.01.55-2.9.82-2.01,1.83-3.94,2.73-5.92.47-1.03.73-2.18,1.37-3.09.35-.49,1.36-.93,1.91-.78.95.27,2.18.81,1.57,2.24-.31.73-1.02,1.29-1.39,2-.24.47-.2,1.09-.28,1.64.48.01,1.05.19,1.43,0,.71-.35,1.13-.33,1.54.4.17.3.56.54.91.68,4.12,1.67,3.78,5.13,2.51,7.81-.43.91-.78,1.86-1.17,2.78.17.13.35.26.52.39Zm7.68,4.71c.64-.31,1.13-.4,1.37-.7.74-.89,1.37-1.86,2.06-2.79.6-.8.5-1.53-.23-2.18-.72-.64-1.48-.87-2.31-.19-.75.62-1.47,1.27-2.26,1.84-.97.7-1.18,1.7-.62,2.57.42.66,1.34.99,2,1.45Z"/>
    <path class="cls-1" d="m35.27,43.31c-.08-1.28-.1-2.57-.25-3.85-.26-2.24-.66-4.47-.9-6.72-.35-3.27.48-6.45.93-9.66.06-.41.3-.81.51-1.18,1.38-2.34,1.43-4.74-.04-6.98-.55-.84-1.68-1.3-2.51-1.97-.52-.42-.97-.92-1.6-1.52,3.6-.95,6.33.67,7.36,4.78.79,3.13.23,5.95-.56,8.88-.2.73-.15,1.54-.18,2.31-.13,3.08-.32,6.17-.36,9.26-.04,2.34.11,4.68.16,7.01.03,1.48.01,2.96.09,4.44.04.68.36,1.36.34,2.04-.02.59-.33,1.17-.51,1.75-.47-.17-1.16-.2-1.38-.54-1.29-2-2.42-4.1-3.71-6.1-1.04-1.61-2.16-3.18-3.38-4.65-.96-1.16-2.05-2.22-3.21-3.17-.53-.43-1.35-.53-2.06-.69-.07-.02-.48.69-.39.95.15.46.55.84.86,1.24.97,1.26.55,2.47-.22,3.58-.88,1.26-2.24.79-3.38.66-1.11-.13-1.85-.97-2.11-2.12-.03-.11.01-.26-.05-.35-.78-1.09-.89-2.12.53-3.06-.44-.15-.67-.3-.76-.24-1.46.97-2.95,1.91-4.31,3.01-.21.17.02,1.11.25,1.58.5,1.02,1.12,1.98,1.72,2.95,1.9,3.02,2.35,6.3,1.76,9.75-.65,3.85-1.45,7.67-2.07,11.52-.36,2.23-.73,4.51-.66,6.76.08,2.59,1.25,4.89,3.11,6.75,1.48,1.49,3.02,2.92,4.53,4.39,1.59,1.53,3.27,2.98,4.71,4.64.96,1.1,1.53,2.54,2.38,3.75.36.51,1,.82,1.51,1.23.39.31.9.55,1.15.95,1.19,1.91,2.93,2.91,5.03,3.59,1.38.44,2.62,1.31,3.91,2,.2.11.33.41.52.45.85.19,1.53.67,1.16,1.52-.31.7-.99,1.38-1.67,1.74-1.63.86-3.24.6-4.74-.52-2.19-1.64-4.6-3.04-6.57-4.9-1.47-1.39-2.37-3.37-3.54-5.09-1.23-1.81-2.17-3.97-3.79-5.31-1.68-1.39-2.52-3.58-4.82-4.46-1.05-.41-1.57-2.2-2.31-3.38-2.3-3.67-2.56-7.83-2.4-11.94.17-4.31.98-8.6,1.28-12.91.11-1.65-.47-3.34-.64-5.02-.24-2.36-1.43-4.28-2.69-6.18-.56-.84-1.11-1.69-1.72-2.49-.58-.77-.68-1.34.12-2.12,1.38-1.35,2.49-2.99,3.94-4.26,1.19-1.04,2.43-2.17,4.21-2.32,2.08-.17,1.82-.26,1.94-2.27.14-2.19.56-4.45,1.32-6.5,1.06-2.85,2.54-5.55,3.88-8.29.17-.35.57-.59.87-.89.27.43.74.86.76,1.31.03.72-.19,1.47-.38,2.18-.49,1.84-.96,3.69-1.55,5.5-.61,1.89-1.38,3.73-2.03,5.6-.41,1.19.34,2.82,1.54,3.13,4.15,1.07,6.24,4.3,8.31,7.62.66,1.06,1.49,2.02,2.24,3.03.17-.06.34-.13.51-.19Z"/>
    <path class="cls-1" d="m29.34,12.64c-.28.25-.47.41-.66.57-.12-.17-.34-.35-.33-.5.01-.18.22-.42.39-.47.12-.04.32.21.6.41Z"/>
    <path class="cls-1" d="m63.78,99.19c-.66-.45-1.58-.79-2-1.45-.55-.87-.34-1.86.62-2.57.79-.57,1.51-1.23,2.26-1.84.83-.68,1.6-.45,2.31.19.73.65.82,1.37.23,2.18-.69.93-1.32,1.9-2.06,2.79-.24.29-.73.38-1.37.7Z"/>
  </g>
  <g>
    <path class="cls-1" d="m97.47,52.72s-.16.05-.27,0c0,0-.21-.05-.21,0-.05,0-.11-.05-.16-.16,0,0-.16-.11-.27-.11h-.21l.05-.21c.05-.11,0-.21-.05-.38l-.11-.16-.32.43-.48-.05-.11.27c-.05.16-.21.21-.21.21-.11,0-.7-.38-.7-.54-.05-.16-.11-.32-.16-.32s-.11-.16-.05-.27c0-.11-.05-.16-.21-.21-.11-.05-.38-.43-.38-.64,0-.05,0-.16-.05-.21-.05,0-.05-.38-.05-.7-.05-.75-.05-.86-.27-.91l-.11-.05.05-.43c.05-.32.05-.64.05-.86,0-.38-.05-.59-.16-.7-.11-.05-.16-.38-.21-.86l-.05-.54c0-.38.11-.86.43-1.13.11-.05.21-.27.21-.32,0-.11.05-.16.11-.16.16-.05.16-.48.11-.7,0,0-.11-.11-.11-.27l-.16-.27-.16-.16.05-.48c.05-.21.16-.54.16-.75l.05-.32-.43-.16c-.27-.05-.54-.21-.54-.21,0,0-.16-.54-.21-1.39.05-.48-.11-1.56-.16-2.09-.05-.21-.05-.48-.05-.7,0-.11,0-.43-.05-.59-.05-.21-.11-.7-.11-1.13l-.05-.75-.27-.48.11-1.02-.11-.38-.21-.86c-.05-.27-.16-.54-.16-.54,0,0-.05-.21-.05-.32s-.05-.32-.11-.43l-.16-.11v-.7c.05-.43.05-.75,0-.86v-.38l.11-.32-.16-.16s-.16-.27-.16-.38l-.11-.59c-.11-.27-.11-.54-.05-.7v-.16l-.16-.16c-.21-.16-.32-.54-.21-.7,0-.16-.05-.32-.05-.32-.05-.11-.11-.38-.11-.64-.05-.32-.05-.75-.11-1.02-.05-.27-.11-.59-.11-.75v-.16c0-.21-.05-.43-.11-.59-.05-.32-.11-.64-.05-.8,0-.21,0-.43-.11-.59-.05-.16-.11-.59-.05-1.29l-.11-1.18v-.48c0-.27-.05-.48-.32-.59-.27-.05-.16-.16.11-.21h.11c.11,0,.38-.16.38-.16.16-.05.43-.16.64-.16l.38-.05.59-.59h.38c.27,0,.7-.16.91-.32l.16-.21h.75l.32.16c.16.05.38.21.59.32.21.11.43.21.54.32.05.21.27.38.48.48.21.11.43.27.54.32.11.05.48.32.91.54.97.48,1.5.91,1.61,1.13.05.16.11.32.16.38.11.11.27.32.43.64l.21.54v.59c0,.27-.05.7-.11,1.13-.11.8-.16,2.15-.21,5.2v.43c0,.38,0,.64.05.75.05.11.05.64.11,1.23l.11,2.09.16,1.93c.05.38.05.7.11.8v.05l.16-.05c.11-.05.32-.43.48-.86.75-1.56,1.29-2.47,1.5-2.74.11-.05.27-.16.43-.21l.21-.16.27-.32c.27-.48.8-1.72,1.07-2.36.11-.32.43-.86.64-1.23.16-.43.43-.86.48-.97.16-.48.54-.97.64-.97h.11l.05-.43q.05-.54.48-1.29c.11-.16.21-.48.21-.64,0-.32.11-.54.32-.75.05-.05.05-.11.05-.16-.05-.05.32-.48.59-.64h.21c.21,0,.43.05.54.21.21.16.32.16.59-.05l.21-.16.16.05c0,.05.21.11.32.11h.27l.32-.21c.38-.38.54-.59.54-.75,0-.05.11-.21.16-.32.27-.32.75-.97.75-1.02s.11-.16.21-.27l.21-.27.27.05c.38.27.64.16.75.05.11-.11.64-.38.8-.38.11,0,.27.11.38.21.11.05.32.05.54.11h.27l.05.54.21.11c.16.11.32.16.38.16.11,0,.21.05.27.16.11.11.21.27.32.27.11.05.21.16.27.32l.16.32c0,.16.11.32.11.38.11.16.21,1.23.21,1.93v.91c0,.59,0,.75.05.8.11.16.21.86.16.97,0,.05,0,.32.05.64.05.27,0,.48,0,.64l-.05.21.05.27c.11.21.16.38.21.38,0,0,0,.21-.05.38-.11.11-.16.38-.16.43v.27l.27.11-.05,1.18c0,.64-.05,1.23,0,1.29.05.11.05.21.11.54v.16h.32l-.05.11-.11.27v.16c0,.32.05.8.16.97l.11.05-.38.16v.32c.05.11,0,.32,0,.43l-.11.11.11.21c.05.11.16.21.21.27l.11.05-.05.48c.05.43.05,1.45.11,1.82,0,.11.05.21.05.27.05.11.11.54.21,1.02,0,.05.05.48,0,.8l.05.54.11.11c.11.05.11.11.11.27,0,.27.16.32.32.11.11-.27.27-.21.32.05.05.11.05.48.11.64.16.54.27.7.7.86h.27l.32-.16c.11-.11.27-.32.32-.54.05-.16.11-.27.16-.27.11.05.21.32.21.54l-.05.21h.16c.11.05.27,0,.38-.05.21-.21.32-.21.38.05.16.38.27.64.38.64.05,0,.11,0,.16-.05l.11-.05v.11c.05.05.05.32.11.54,0,.11.11.38.16.43l.05.16-.16.59.11.32-.43.54v.21c.05.05.11.21.16.32.05.05.16.27.16.54,0,.16-.05.38-.11.59-.11.59-.16,1.45-.05,1.5.11.11.7-1.07.75-2.04.05-.38.11-.75.16-.91.16-.21.21-.54.27-.8l.11-.59.11-.16.05.11c.11.11.38.11.48-.11l.21-.48.16-.27.16-1.07c0-.59.11-1.23.11-1.29l.16-.64c.05-.27.21-.54.21-.7.05-.05.11-.43.11-.64,0-.27.05-.48.16-.59l.38-1.18.27-.91-.16-.54-.16-.11c-.11-.11-.27-.16-.32-.21-.11.11-.32.59-.32.91,0,.27,0,.43-.05.43-.05.05-.11.16-.16.27,0,.11-.05.21-.11.43-.16.27-.32.7-.43,1.13-.05.43-.27.7-.38.59-.11-.05-.38.16-.64.38l-.27.21-.16-.11h-.11c-.16,0-.32.11-.32.27v.11l-.11-.16c0-.21-.11-.27-.21-.21-.05,0-.27.05-.48,0-.38.05-.48.05-.54.27,0,.11-.59.7-.7.7-.05,0-.11-.11-.16-.21l-.11-.27c-.05,0-.11-.11-.11-.32,0-.16.05-.43.05-.7.05-.27.11-.8.11-1.13v-.75l.16-.11c.05-.11.16-.32.21-.38,0-.16.11-.27.27-.38l.16-.11.16-.54.27-.8c.05-.05.05-.27.05-.38-.05-.16,0-.38.05-.54.05-.16.11-.59.16-.8s.21-.54.21-.7l.54-1.88c0-.16.05-.54.16-.8.11-.27.16-.59.16-.7,0-.16.05-.38.11-.64.21-.43.32-1.18.48-1.66l.16-1.34.05-1.02.38-.54-.05-.8c0-.54,0-.91.05-1.02l.05-.11v-.64c-.05-.27-.05-.75-.05-1.02l.05-.38.11.05c.16,0,.59-.27.59-.43s.16-.16.43-.05c.27.21.54.21.75.05.11-.16.32-.27.48-.32.16-.05.32-.11.43-.11.32.16.86.21,1.13.16l.27-.05.16.16c.11.16.32.32.48.43.11,0,.21.11.21.11,0,.05.16.21.32.38.27.16.38.27.54.27.11,0,.21-.11.38-.27.11-.05.16-.11.21-.11.16,0,.05.27-.21.27l-.16.05v.27c-.05.27,0,.43.11.48.11.16.32.21.38.11,0-.05.05-.11.11-.11.11,0,.11.21-.11.32l-.11.05.05.11c.05.05.21.16.32.16.32.05.38.16.38.38,0,.05.05.21.16.32.05.16,0,.32,0,.43-.05.21.11.21.38,0l.38-.27c.05,0,0,.16-.11.32-.05.21-.11.54-.11.75-.05.16-.11.48-.21.59-.05.05-.05.27-.05.38.05.11,0,.27-.05.43l-.11,2.09c.05,1.13-.43,3.38-.8,4.72-.32,1.18-.59,1.72-1.07,2.2-.21.11-.32.27-.32.38-.05.05-.21.21-.43.38-.38.32-.64.7-.7.86v.38c0,.11-.05.27-.11.32l-.05.11.11.11c.05.11.11.21-.05.32-.16.05-.21.38-.11.7l.05.27-.27.27.11.38-.21.32c-.11.27-.21.43-.16.43,0,0,0,.11-.11.21-.16.27-.38,1.18-.43,1.88,0,.27-.05.48-.05.48-.05.05-.16.32-.32.64-.11.27-.21.59-.27.64-.05,0-.11.05-.05.11s.05.11.05.16c0,.27-.11.64-.27.7-.11.05-.21,1.13-.32,1.98,0,.43-.11.64-.21.8-.05.05-.16.43-.21,1.07-.16,1.13-.32,1.88-.43,1.93l-.05.32c0,.32-.16.91-.32,1.34l-.11.16-.16-.05c-.11,0-.21.11-.32.32l-.21.11c-.16,0-.21.21-.32.8,0,.32-.05.59-.05.59,0,0-.32-.05-.75-.21l-.21-.16.05-.21v-.05c0-.21-.43.11-.43.11l-.27.11-.11-.16c-.05-.21-.16-.27-.27-.05,0,.11-.05.11-.11.11h-.11v-.48c0-.43-.32-.7-.86-.75-.27-.05-.16-.27-.16-.27l.27-.64v-.11l-.27.21-.11-.16c-.11-.11-.38-.16-.43.11,0,.16-.11.32-.11.32-.11.05-.16.16-.16.21s-.05.21-.16.38l-.16.27.16.21c0,.05.11.16.21.16,0,0,.16.11.16.27l.05.27.48.16-.11.05c-.05,0-.11.05-.11.05-.21,0-.43-.21-1.02-.7-.05,0-.21-.16-.32-.32-.16-.21-.32-.43-.43-.48-.05,0-.11-.11-.11-.16l-.11-.38-.11-.16.11.11s.43.21.48.05c0,0,.16-.11.21-.11h.16v-.27c-.05-.11-.05-.27-.05-.48,0-.32-.16-.48-.27-.16-.05.11-.11.11-.27.05-.11-.05-.11-.11-.11-.38,0-.16-.05-.43-.11-.64l-.11-.27.05-.05c.11,0,.27-.11.27-.11l.11-.11-.38-.38c-.11-.21-.27-.48-.38-.59-.11-.21-.21-.38-.27-.38s-.21-.27-.32-.43c-.11-.27-.27-.64-.38-.75l-.32-.27-.11.05c-.21,0-.54-.21-.64-.48-.05-.16-.11-.32-.21-.38-.11-.11-.21-.21-.21-.32s-.05-.27-.11-.27c-.11-.05-.16-.16-.16-.27s-.05-.21-.11-.27c-.11-.11-.48-1.34-.48-1.72l-.05-.27.16-.11c.05-.05.11-.16.11-.16,0-.16-.27-.43-.38-.48-.16,0-.27-.16-.38-.86l-.21-.75c-.16-.91-.27-2.09-.16-2.09q.05,0,.05-.05l-.05-.05-.11.05-.21-.59c0-.32-.11-.64-.16-.8,0-.11-.11-.32-.16-.38-.05,0-.11-.05-.11-.11s-.05-.11-.11-.16c-.05,0-.16-.21-.21-.32-.05-.16-.16-.27-.21-.27-.05-.05-.16-.11-.21-.11-.05-.05-.21.05-.38.21-.27.16-.59.48-1.23.7-.16.05-.43.27-.59.43-.21,0-.38.11-.43.11-.11,0-.91.64-.91.75,0,.05-.16.21-.32.54l-.27.32-.11.48c-.05.32-.21.8-.48,1.13l-.38.91c-.05.21-.21.48-.32.64l-.32.86c-.05.32-.27.54-.32.59-.05.05-.05.11-.05.16v.05c0,.11-.05.32-.16.54l-.27.54c-.05,0-.05.27-.11.43,0,.16-.11.59-.27.91l-.38.91c-.05.27-.32.8-.38,1.07-.16.21-.27.54-.32.7-.16.59-.38,1.13-.48,1.23-.05.11-.16.27-.21.43-.16.64-.32,1.29-.43,1.39-.11.11-.16.32-.16.38,0,.21-.16.54-.27.86-.11.05-.16.16-.16.21,0,.11-.54.59-.54.59-.27.21-.54.54-.59.64,0,0-.05.11-.11.11,0,.05-.05.11-.05.27s-.16.21-.48.21l-.27-.05-.16.27-.27-.21c-.11,0-.16-.05-.27-.05-.21,0-.43.16-.43.16-.05.11-.21.27-.27.27-.21.05-.64.11-.7,0,0,0-.11,0-.21.05l-.11.16-.16-.11c-.05,0-.21-.05-.21-.05Zm10.08-22.04c0-.05-.27-.05-.38,0-.11,0-.11.38-.05.38.11,0,.43-.21.43-.38Zm3.33,1.56c0-.11-.21-.05-.27.05,0,0,0,.11.05.11.11.05.21,0,.21-.16Zm6.92,16.63c0-.05,0-.11.05-.11.11,0,.21.16.21.27l-.05.16-.11-.11c-.05-.11-.11-.16-.11-.21Zm3,2.9l-.05-.05h.27c.27.11.43.32.38.43,0,0-.59-.27-.59-.38Zm1.77-12.34l.05-.11.05.11c.05.11,0,.27-.11.27-.05-.05-.11-.16,0-.27Zm2.47-3.54c.05-.05.05,0,0,.54l-.11.43.05-.48c0-.21.05-.43.05-.48Zm1.23,3.97c0-.27.11-.54.11-.75.05-.11.05-.21,0-.21-.11,0-.16.11-.21.54,0,.11-.05.21-.05.21-.11-.05-.11-.11-.11-.38v-.48l-.11.11c-.11.11-.43.97-.43,1.13s.11.27.21.32c.11.05.16.11.16.21s.05.16.11.16c.16,0,.27-.43.32-.86Zm.21-2.09c-.11-.21-.16-.21-.27,0l-.11.16.16.16.11-.05c.05-.05.11-.16.11-.27Zm.38-1.29c.16-.21.16-.43.05-.7s-.21-.27-.27.11c-.11.32-.11.48-.11.75.05.16.11.21.11.11,0-.05.05-.21.21-.27Zm.21,3.49c0-.05-.05-.11-.11-.11s-.11.11-.11.16c0,.16.21.05.21-.05Zm2.41-22.47c0-.05.05-.11.11-.11,0,0,.05.11.05.16,0,.11-.05.11-.05.11-.05,0-.11-.05-.11-.16Z"/>
    <path class="cls-1" d="m143.81,52.72c-.11-.05-.38-.11-.64-.16-.21,0-.59-.11-.75-.16-.21-.11-.48-.16-.59-.16-.38,0-.8-.16-.97-.43-.05-.11-.16-.27-.27-.32l-.11-.11-.32.11-.48-.16.16-.21-.21-.16s-.21-.27-.27-.48l-.11-.27-.16-.05c-.11-.05-.21-.05-.27-.05-.11,0-.7-.48-.64-.54l.16-.11c.16-.11.16-.21-.05-.43l-.21-.16-.05-.64-.38-.43c-.16-.27-.38-.43-.43-.43,0,0,0-.11.05-.16l.11-.16-.11-.21-.16-.43c0-.16-.11-.32-.21-.54-.11-.16-.21-.38-.21-.48-.05-.11-.16-.27-.27-.54-.11-.21-.21-.43-.21-.54l-.16-.27c-.05-.11-.16-.43-.21-1.02-.05-.54-.16-1.02-.16-1.02-.11-.16-.27-.91-.32-1.45-.05-.32-.21-.7-.21-.7l-.05-.27c0-.16-.38-.59-.64-.7h-.11v-.11l.16-1.39.11-.59c.05,0,.05-.21.05-.43v-.54c.05-.11.05-.16.05-.27s.05-.21.05-.32l.05-.27c0-.05,0-.27.11-.48.11-.21.16-.48.11-.59,0-.11.05-.27.11-.27.05-.11.11-.27.11-.43s.11-.38.16-.48c.11-.16.27-.8.32-1.29,0-.21.05-.48.11-.59.05-.11.11-.27.11-.32.05-.11.11-.32.21-.48.11-.16.21-.38.21-.59,0-.16.05-.43.11-.54.11-.16.32-.75.43-1.56.05-.11.11-.43.21-.64l.11-.43-.11-.38c-.05-.21-.11-.43-.16-.54,0-.27.05-1.18.16-1.39l1.34-2.41c0-.05.16-.27.27-.48.11-.11.32-.43.48-.64.38-.59.8-1.13,1.56-2.04.38-.43.8-.97.91-1.18.11-.27.32-.48.43-.54.16-.11.38-.32.48-.54.16-.21.38-.38.48-.43l.16-.11.75.16.54-.21,1.45.16.27-.16q.32-.16.64,0c.16.05.32.05.43.05.16,0,.27.05.38.21l.11.11h.32c.21,0,.43.05.59.11.11.05.21.05.21.05.16,0,.32-.11.43-.21.11-.05.21-.16.32-.21l.43-.11.27-.05.21.16c.11.05.27.21.32.21.11.05.21.16.27.21,0,.05.27.21.48.32.97.48,1.5.86,1.72,1.23.05.11.16.27.27.32.11,0,.27.11.43.21.11.11.32.27.48.38.11.11.21.21.21.32l.05.11h.75l.32-.43.21.16q.32.16.54-.05c.11-.11.27-.16.32-.11.11.05.27.38.38.59.05.16.16.38.27.54.11.16.21.27.21.32v.05h-.32c-.11,0-.16.05-.16.27,0,.64.27,1.13.48,1.34l.21.21.05.27v.21l.21.16c.11.11.27.16.38.16h.16l.05.16c.11.21.27.21.27,0,0-.05.16-.16.27-.21.16-.05.32-.11.38-.21.05-.05.11-.05.11-.05.21.27.32.54.38.64,0,.11.05.21.11.38.11.11.16.32.21.48.11.32.21.21.11-.16l-.05-.32.21-.21.05.11c0,.11.05.21.05.32s.11.54.21.97c.27,1.02.54,2.84.48,3.86v.91c0,.05-.05.38-.05.8,0,.75-.21,2.36-.32,2.57,0,.05-.05.16-.11.16s-.11.11-.16.21l-.16.27.11.21c.16.32.16.27-.05.59-.05.11-.11.27-.11.32s0,.21-.11.27c-.05.16-.11.32-.11.38s-.05.27-.16.43c-.05.16-.11.32-.05.38,0,.05,0,.16-.05.27-.11.11-.11.27-.11.38s0,.21-.05.21l-.21.59c-.11.32-.27.59-.32.7-.05.05-.16.38-.32.75-.11.27-.21.54-.27.54-.11,0-.21.32-.21.59,0,.16-.05.27-.05.32-.05,0-.16.11-.21.27-.05.27-.21.38-.21.21-.05-.16-.21-.05-.32.16l-.05.21.05.05c.11.11.32,0,.27-.16,0-.11.11-.16.16-.05v.11c0,.21-.21.75-.59,1.23-.11.16-.16.32-.16.38s-.05.21-.16.38c-.11.16-.16.32-.16.32,0,.05-.05.11-.11.16s-.21.32-.32.54l-.54.8-.43.48c-.38.64-.8,1.07-.91,1.18-.16.21-.32.43-.38.59-.05.11-.11.21-.16.21,0,0-.16.16-.16.27-.11.27-1.34,1.66-2.09,2.31-.27.21-.64.59-.64.59l-1.18,1.02-.97.38c-.48.11-1.13.48-1.13.48l-.32.16h-.48c-.27.05-.59.16-.59.16,0,0-.64.21-1.39.21-.7,0-1.56-.11-1.77-.21Zm1.18-4.56l1.02-1.07c.75-.86,1.13-1.29,1.07-1.45,0,0,.21-.21.43-.38.21-.16.54-.48.7-.7.11-.21.32-.43.43-.48.21-.11.7-.59.64-.64,0-.05.32-.38,1.45-1.66.16-.16.38-.54.43-.75.11-.16.27-.48.43-.7.11-.16.27-.43.27-.54,0-.16.11-.38.21-.48.11-.11.21-.27.16-.32,0-.11,0-.16.05-.16s.11-.16.11-.27l.05-.27-.21-.21v-.27c.05-.64.59-1.88.86-1.98.32-.16.48-.54.64-1.23,0-.16.11-.43.21-.54.05-.16.11-.27.11-.32,0-.11.48-.7.64-.7.21,0,.32-.05.32-.16,0-.21.05-.38.11-.48.05-.05.21-.21.27-.32l.11-.21.05-.54v-1.34l.32-.43-.27-.75.16-.27c.11-.11.21-.27.21-.32v-.05c0-.11.05-.27.11-.43l.16-.38-.05-.38c0-.16,0-.43.05-.54,0-.11,0-.54-.05-.97-.11-1.18-.16-1.88-.11-2.09v-.21c0-.16-.05-.43-.11-.48-.05-.11-.16-.32-.21-.54-.05-.21-.21-.59-.43-.86-.16-.21-.32-.54-.32-.7,0-.11-.11-.32-.16-.43-.11-.11-.16-.16-.11-.21.05-.11-.21-.43-.48-.64l-.21-.16-.16.05c-.05.05-.11.16-.16.27l-.05.27.21.27c.05.05.16.27.11.32,0,.11.05.27.16.38.11.11.16.21.16.27.05.05.05.11.11.11s.05,0,.11.11c0,.05,0,.11-.05.11s-.8-.64-.91-.75c-.11-.21-.27-.32-.48-.43-.16-.05-.38-.16-.43-.27-.05-.11-.16-.27-.21-.32l-.11-.11.11-.05c.11-.11.11-.32,0-.38-.05,0-.16-.11-.27-.21l-.16-.21h-.8l-.16-.16c-.21-.16-.48-.27-.59-.16-.11.05-.21.43-.16.59v.11c0,.27-.21.8-.38,1.07-.16.11-.38.38-.54.48-.21.16-.48.32-.59.43-.16.11-.32.21-.43.21-.05,0-.16.16-.27.27-.05.11-.21.32-.43.48l-.54.64c-.11.21-.32.54-.43.64-.11.11-.21.43-.32.64-.05.27-.21.54-.27.75l-.43.75c-.16.21-.32.54-.43.64-.11.11-.16.21-.16.27l-.59,1.07-.86,1.45c-.11.27-.27.54-.32.59-.05.05-.16.16-.21.38-.05.16-.16.38-.21.43-.05.11-.21.43-.38.86s-.38.75-.43.86c-.11.05-.21.21-.21.32l-.27.7c-.32.8-.38.8-.48,1.18-.21.64-.32,1.13-.32,1.29,0,.05,0,.27-.05.48-.21.91-.21,1.02-.21,1.29,0,.16-.05.32-.05.43-.05.16-.16,1.02-.11,1.61,0,.27,0,.54-.05.59-.05.05.05.75.21,1.88.16,1.18.27,1.77.21,1.88l-.05.05.11.21c.11.11.16.27.16.32l.21.48.21.43v.8h.11c.05,0,.16.11.21.27l.16.16-.16.16.16.11c.16.11.27.38.38.75.05.27.38.75.8,1.02l.32.21.38.05c.43,0,.91-.16,1.23-.38Zm3.33-32.02c-.05-.11-.32-.11-.32,0s.27.21.38.16c0,0,0-.05-.05-.16Zm3.75-.05c0-.11-.11-.21-.27-.27-.11-.11-.21-.21-.21-.32l-.05-.16h.16c.11,0,.16.11.21.16l.11.21.43-.11-.21.27h.64l-.38.11-.11.38-.16-.05c-.11-.05-.16-.11-.16-.21Zm2.84,6.11c0-.05-.05-.16-.05-.16-.05,0-.11-.16-.16-.32l-.16-.21.16.11c.05.11.16.21.27.32l.16.11v.21c-.05.27-.16.27-.21-.05Zm2.25-.54c.16-.21.11-.59-.11-.59l-.32-.21-.21-.27-.16.21.11.38c.05.21.16.48.21.54.11.11.38.11.48-.05Zm-.16,1.29c0-.05-.05-.11-.11-.11s-.11.05-.11.16c.05.16.21.11.21-.05Zm.21,1.29c0-.11,0-.16-.05-.16-.16,0-.21.11-.16.16,0,.21.21.16.21,0Zm.11.75c0-.21-.16-.21-.16,0v.21c.11.05.21-.05.16-.21Z"/>
    <path class="cls-1" d="m170.15,52.67l-2.31-.38c-.32,0-.48-.11-.59-.16-.05-.11-.21-.11-.21-.11-.11,0-.32-.05-.32-.05-.05-.11-.27-.21-.48-.27-.21-.05-.43-.16-.48-.16,0,0-.27-.11-.54-.16h-.32l-.21-.32c-.11-.16-.21-.27-.27-.38,0,0-.05-.21-.05-.43s0-.48.05-.7c.11-.16.16-.43.16-.59,0-.11-.05-.27,0-.43l.05-.27-.11-.21c-.21-.38-.21-.48,0-.64.16-.27.21-.8.16-1.13,0-.16,0-.32.05-.43,0,0,.05-.16.05-.32,0-.21,0-.48-.05-.91,0-.54,0-1.18.05-1.45v-.7c0-1.18,0-1.61.16-2.25.05-.32.16-.59.16-.64,0,0-.05-.16-.05-.32,0-.38.11-1.02.21-1.34l.05-.8c-.05-.16,0-.32,0-.32l.11-.64v-.21c0-.27.05-.43.05-.43v-.54c0-.27.11-.48.11-.48l.11-.05-.27-.86.11-.59.05-1.07.16-1.23.11-1.18c0-.48.11-1.5.16-2.15.05-.16.11-.43.11-.48s0-.38.05-.8c.16-.97.27-1.77.43-3.38,0-.21.05-.48.11-.59.05-.11.11-.48.05-1.02l.05-1.56c.05-.32.05-.97.05-1.39,0-.38.05-.7.05-.75,0-.11.05-.27.05-.38-.05-.59-.16-.91-.54-1.23l-.27-.32c0-.05.75.11,1.13.27l.32.05.59-.21.38.16c.21.05.38.05.54.05.21,0,.43-.05.64-.21l.32-.21.27.05c.48.05,1.13.43,1.5.86l.43.38.32.05.48.27.59.43c.27.11.54.27.7.38.11.11.32.32.54.43l.64.54c.7.91,1.07,1.82.91,2.41l-.75,1.93c-.11.16-.21,1.13-.21,2.25-.05.32-.11.97-.27,1.39-.21.91-.27,1.61-.43,3.16l-.16,1.18-.21,1.98-.32,2.79-.21,1.77c0,.32-.05.54-.05.59-.05,0-.05.43-.11.86,0,.54-.05.86-.16.91,0,.16-.11.43-.16.75l-.16,2.04-.21,1.66c.05.16,0,.32-.05.38l-.11.21.05.86.05.8-.11.21s-.21.54-.11.8c.05.16.21.27.48.27.32,0,2.41-.38,2.79-.48.32-.05.86-.48,1.23-.86.38-.32.91-.64,1.23-.64.64,0,1.39-.11,1.88-.16.27-.11.64-.11.91-.11h.48l-.27.05c-.16.11-.27.27-.27.43s.16.38.27.48l.27.32.21-.11c.27-.21.32-.21.21.05-.11.16-.16.27-.16.38,0,.21.16.43.43.48l.11.05-.05.21c0,.11.05.32.16.59.05.21.16.38.11.38-.16.11-.21.21-.27.43l-.05.27.75-.16v.21c0,.16-.27.27-.86.59-.64.21-.8.32-.8.54,0,.11-.11.21-.11.21l-.59.16c-.7.32-2.74.86-3.06.86-.05,0-.16,0-.16.05l-1.39.32-.75.11c-.48.11-1.93.16-3.22.16-.91,0-1.77-.05-2.15-.11Z"/>
    <path class="cls-1" d="m189.56,53.2c-.16-.05-.48-.05-.7-.11-1.77-.05-2.47-.16-2.57-.32-.05,0-.05-.27-.11-.54.05-.27,0-.54-.05-.64-.05-.11-.11-.38-.11-.48,0-.16-.05-.38-.16-.43l-.16-.16v-.59c0-.32,0-.59-.05-.7,0-.05.11-.32.11-.32.05-.21.11-.38.21-1.07.05-.11.05-.21.11-.21s.16-.05.21-.11c.16-.11.21-.11.21.11s.43.64.75.7h.27l.16-.21c.16-.21.32-.91.38-1.72l.11-2.04c0-.86.11-1.66.16-1.98.05-.16.16-.59.16-1.07.05-1.13.16-2.04.32-2.25.05,0,.05-.11.05-.27-.05-.16-.05-.54,0-.86,0-.21,0-.7.05-.97,0-.27.11-.7.16-.91l.11-.43-.05-.38c-.05-.21-.05-.48-.05-.54.05-.27.16-1.02.16-1.45v-.21c0-.21,0-.43.05-.54l.11-.59s-.05-.21,0-.38c.11-.32.11-1.34.05-1.82,0-.16.05-.32.05-.38,0,0,.05-.16,0-.27-.11-.21-.16-.64-.11-1.23v-1.82c0-.05-.11-.32-.16-.59-.16-.59-.21-1.34-.21-1.72l.05-.27-.21-.43.05-.54c.05-.32.11-.64.16-.8.05-.16,0-.59,0-.91s.05-.75.11-.97c0-.27.05-.75.11-1.07-.05-.38-.05-.86,0-1.07,0-.64-.11-1.02-.11-1.02l-.05-.11.21-.11c.11-.05.38-.11.54-.11.16-.05.27-.11.27-.16.05-.11.16-.16.21-.16.11,0,.32-.05.48-.11.16-.05.43-.16.75-.16l.59-.11c.05,0,.21,0,.38.05.48.11.7.21,1.98,1.02.59.27,1.39,1.02,1.5,1.07,0,.05.05.11.11.11.21.05.64.59,1.13,1.13l.38.59.38.27c.16.05.38.27.43.38.11.11.27.27.32.38l.32.38c.05.21.21.48.32.59.16.21,1.07,2.2,1.34,2.95.21.75.32.97.48,1.45.48.97.59,1.34.97,2.41l.64,1.93.16.38-.05.27c-.05.16-.11.32-.11.48,0,.32.11.64.38,1.29.05.11.16.43.21.7.05.27.16.43.27.43s.32-.43.54-1.39c.32-1.82.38-1.98.38-2.36l.16-.64c.11-.16.21-.32.21-.43s.11-.16.21-.16.21-.05.21-.21l.16-.16h.27c.11,0,.27-.05.38-.05.11-.05.38-.8.38-1.07,0-.05.05-.38.16-.7l.16-.59h.43l.05-.16c.05-.11.05-.27,0-.38l-.05-.16.54-.21.16-.27c.05-.16.21-.43.27-.54.21-.38.7-1.66.8-2.31,0-.54.21-1.07.48-1.77l.16-.21-.11-.27-.11-.32.11-.05c.16-.11.16-.21-.05-.38l-.11-.11.05-.05c.05-.05.21-.05.32-.05.48,0,.59-.38.16-.54l-.27-.11v-.16c0-.16-.05-.21-.16-.21-.11-.05-.21-.05-.27-.16-.21-.27-.59-.05-.48.16l.05.16-.32.05-.21-.16c-.11-.11-.21-.16-.21-.21.05-.11.32-.05.38.05l.11.11.05-.05c.05-.05,0-.16,0-.21l-.11-.16.16-.11c.11-.16.05-.32-.27-.38l-.16-.05.16-.11c.21-.05.27-.11.11-.21l-.05-.11h.16c.11,0,.32-.05.48-.11.11-.05.32-.05.38-.05s.27-.16.38-.27c.16-.11.32-.27.38-.32.11,0,.21-.11.27-.27l.11-.32.27.05c.11,0,.27.05.32.16.27.21.54.32.7.32s.54.21.54.38c0,.05-.16.21-.32.43-.38.32-.48.48-.27.48q.05,0,.05-.05c0-.11.27-.05.32.05.11.27.16.48.16.64s-.05.27-.21.38c-.21.11-.21.27,0,.48l.11.16.38-.16.38-.86.11.05c.11.05.16.11.16.16h.11c.16,0,.43-.32.59-.64.05-.16.11-.27.16-.27.11.05.21.54.11.7-.16.16-.16.38-.05.48.11.05.11.38.11.54-.11.21-.11.43,0,.43,0,0,.21-.05.38-.16l.32-.11.05.05c.05.05.11.11.16.11.21,0,.11.27-.11.38l-.11.11.05.27c0,.16,0,.21-.05.21h-.05q0-.05-.05-.05c-.05,0-.05.05-.05.05,0,.05-.11.32-.11.48-.11.21-.21.48-.21.59s-.11.43-.16.7l-.32.7c-.05.21-.16.43-.21.43s-.21-.16-.27-.16c-.11,0-.21,0-.21-.11l-.05-.11h.16c.11,0,.16,0,.16-.05.05-.05,0-.11,0-.05-.11.05-.21-.38-.11-.48.05-.05,0-.27-.11-.27-.05,0-.05.05-.05.11.05.05.05.11,0,.11s-.05.11-.05.16c.05.11,0,.21-.05.32-.05.05-.11.27-.11.38s0,.21-.05.21c-.21.16-.38.64-.48,1.29l-.05.64.11.05c.16.11.27.05.27-.05,0-.05,0-.11.11-.11q.05,0,.11.05t.05.05c.05-.05.05.05,0,.32-.11.21-.21.27-.38.11h-.05l-.05.05c0,.11-.11.16-.21.16-.05,0-.11.05-.16.16-.16.32.05.38.27.05.21-.21.43-.27.54-.16,0,.05-.05.27-.21.7-.05.11-.11.27-.11.38l-.11.43c-.05.16-.05.43-.05.59.05.21,0,.43,0,.54-.05.11-.05.27-.05.32v.16c0,.32-.11,1.02-.21,1.02,0,0-.05.11,0,.16,0,.05.05.27-.05.54-.05.21-.11.43-.11.59,0,.11-.05.27,0,.32-.05,0-.11.16-.11.32,0,.11-.11.48-.16.8,0,.32-.11.75-.16.97,0,.21,0,.43-.05.54,0,.16-.05.38-.05.59-.05.43-.38,2.04-.54,2.31l-.16.16.05.48c.05.27.05.54,0,.59-.16.27-.21.75-.21,1.13v.64c-.16.54-.27,1.39-.16,1.82.05.48-.05,1.82-.16,2.2-.11.16-.11.48-.11.7,0,.27-.05.75-.11,1.07.05.38.05,1.02.05,1.5.05.43,0,.86,0,.97v.21c0,.27,0,.64.05,1.07l.11,1.07-.11.27s-.16.27-.16.32c.05.11-.05.21-.05.21l-.11.11.16.43-.16.16c-.11.05-.27.16-.32.16-.11,0-.21.05-.21.05,0,0-.21.11-.38.11l-.64.11c-.27.11-.7.11-.7.11-.16-.11-.75-.11-.8,0l-.11.11-.54-.43-.38.05c-.21,0-.48.05-.64.16,0,0-.21.11-.32.11s-.27-.05-.48-.21c-.16-.11-.75-.16-.86-.11l-.11.11-.32-.16-.05-.32v-.43l-.32-.48-.05-.43c-.11-.7-.11-.75-.59-.97l-.43-.11-.32-.64.05-.32c.05-.16.05-.27.05-.38,0-.21-.11-.43-.27-.54-.16-.21-.7-1.18-.86-1.66l-.64-1.56c-.21-.38-1.02-2.2-1.02-2.31,0-.05-.05-.16-.11-.21-.05-.11-.43-.97-.54-1.34,0-.11-.05-.27-.11-.32-.05-.05-.16-.48-.32-.86-.11-.38-.32-.8-.38-1.02-.32-.86-.38-1.07-.43-1.29,0-.11-.05-.21-.05-.27-.05,0-.16-.21-.32-.48-.11-.27-.21-.54-.32-.64l-.16-.21h-.16c-.21.11-.27.11-.32.7l-.11.75c-.05.16-.16.48-.21.86,0,.32-.05.8-.11,1.02-.05.21-.05.64-.16.97l-.11.86-.05.91c-.05.32-.05.7-.05.75-.05,0-.05.16-.05.27l-.05.48c-.05.16-.05.48-.05.7,0,.27-.05.75-.11,1.02-.16.59-.21,1.34-.16,1.61,0,.11-.05.21-.05.27-.05,0-.05.11-.05.27s-.05.38-.11.48c-.05.32-.16,1.45-.11,1.77,0,.21,0,.43-.05.54,0,0-.11.27-.05.48-.05.38-.11.7-.21,1.07v.32c0,.05,0,.21-.05.32-.05.11-.05.16-.05.21,0,.16-.21.27-.32.11-.05-.11-.16-.05-.11.16,0,.05-.05.21-.11.21,0,0-.05.16-.05.21,0,.16-.11.21-.21.05,0,0-.11-.11-.16-.11-.21,0-.43.21-.48.43l-.05.21-.86.11-.11-.11c-.11-.16-.32-.16-.38,0-.05.11-.27.16-.64.16-.21,0-.43,0-.64-.05Zm18.88-18.56c0-.16-.16-.11-.16-.05-.11.11-.11.21,0,.21s.16-.05.16-.16Zm.11-14.75c0-.27.21-.21.21-.05l.05.16-.11-.05c-.11-.05-.16-.05-.16-.05Zm.16-.86v-.27l.21.05c.05.05.11.05.16.11l-.16.38-.21.32v-.16c-.05-.11-.05-.32,0-.43Zm5.52,2.57l.16-.21-.11-.64.32-.38-.05-.21c-.05-.11-.11-.21-.05-.27,0-.05.05-.11.11-.21v-.27h-.11c-.05-.05-.16,0-.27.05l-.16.11.05.21v.16l-.05-.11c-.05-.11-.11-.16-.16-.16-.21,0-.75.21-.97.38l-.48.27c-.21.05-.27.16-.11.27.05,0,.11.11.05.16q0,.05.11.05c.11,0,.32-.05.43-.11.16-.11.27-.21.27-.32,0-.05.05-.11.05-.11l.11.11c0,.05,0,.11.05.11.05.05.11.11.11.21,0,.05.05.21.05.21.05.05.05.16-.05.21l-.16.11.11.11h.38v.27c0,.16,0,.32.05.32l.11.05.05-.05c0-.05.11-.16.16-.32Zm-1.45-.43c0-.21-.11-.27-.16-.11l-.11.11.11.05c.11.11.16.05.16-.05Zm0,1.07c-.05,0-.16.11-.16.16v.11l.16-.11c.11-.11.05-.16,0-.16Zm.64.59v-.16h.32l-.11.11c-.05,0-.05.11-.05.16.05.05.05.11,0,.11-.05-.05-.11-.11-.16-.21Z"/>
    <path class="cls-1" d="m225.82,52.72c-.11-.05-.38-.11-.64-.16-.21,0-.59-.11-.75-.16-.21-.11-.48-.16-.59-.16-.38,0-.8-.16-.97-.43-.05-.11-.16-.27-.27-.32l-.11-.11-.32.11-.48-.16.16-.21-.21-.16s-.21-.27-.27-.48l-.11-.27-.16-.05c-.11-.05-.21-.05-.27-.05-.11,0-.7-.48-.64-.54l.16-.11c.16-.11.16-.21-.05-.43l-.21-.16-.05-.64-.38-.43c-.16-.27-.38-.43-.43-.43,0,0,0-.11.05-.16l.11-.16-.11-.21-.16-.43c0-.16-.11-.32-.21-.54-.11-.16-.21-.38-.21-.48-.05-.11-.16-.27-.27-.54-.11-.21-.21-.43-.21-.54l-.16-.27c-.05-.11-.16-.43-.21-1.02-.05-.54-.16-1.02-.16-1.02-.11-.16-.27-.91-.32-1.45-.05-.32-.21-.7-.21-.7l-.05-.27c0-.16-.38-.59-.64-.7h-.11v-.11l.16-1.39.11-.59c.05,0,.05-.21.05-.43v-.54c.05-.11.05-.16.05-.27s.05-.21.05-.32l.05-.27c0-.05,0-.27.11-.48.11-.21.16-.48.11-.59,0-.11.05-.27.11-.27.05-.11.11-.27.11-.43s.11-.38.16-.48c.11-.16.27-.8.32-1.29,0-.21.05-.48.11-.59.05-.11.11-.27.11-.32.05-.11.11-.32.21-.48.11-.16.21-.38.21-.59,0-.16.05-.43.11-.54.11-.16.32-.75.43-1.56.05-.11.11-.43.21-.64l.11-.43-.11-.38c-.05-.21-.11-.43-.16-.54,0-.27.05-1.18.16-1.39l1.34-2.41c0-.05.16-.27.27-.48.11-.11.32-.43.48-.64.38-.59.8-1.13,1.56-2.04.38-.43.8-.97.91-1.18.11-.27.32-.48.43-.54.16-.11.38-.32.48-.54.16-.21.38-.38.48-.43l.16-.11.75.16.54-.21,1.45.16.27-.16q.32-.16.64,0c.16.05.32.05.43.05.16,0,.27.05.38.21l.11.11h.32c.21,0,.43.05.59.11.11.05.21.05.21.05.16,0,.32-.11.43-.21.11-.05.21-.16.32-.21l.43-.11.27-.05.21.16c.11.05.27.21.32.21.11.05.21.16.27.21,0,.05.27.21.48.32.97.48,1.5.86,1.72,1.23.05.11.16.27.27.32.11,0,.27.11.43.21.11.11.32.27.48.38.11.11.21.21.21.32l.05.11h.75l.32-.43.21.16q.32.16.54-.05c.11-.11.27-.16.32-.11.11.05.27.38.38.59.05.16.16.38.27.54.11.16.21.27.21.32v.05h-.32c-.11,0-.16.05-.16.27,0,.64.27,1.13.48,1.34l.21.21.05.27v.21l.21.16c.11.11.27.16.38.16h.16l.05.16c.11.21.27.21.27,0,0-.05.16-.16.27-.21.16-.05.32-.11.38-.21.05-.05.11-.05.11-.05.21.27.32.54.38.64,0,.11.05.21.11.38.11.11.16.32.21.48.11.32.21.21.11-.16l-.05-.32.21-.21.05.11c0,.11.05.21.05.32s.11.54.21.97c.27,1.02.54,2.84.48,3.86v.91c0,.05-.05.38-.05.8,0,.75-.21,2.36-.32,2.57,0,.05-.05.16-.11.16s-.11.11-.16.21l-.16.27.11.21c.16.32.16.27-.05.59-.05.11-.11.27-.11.32s0,.21-.11.27c-.05.16-.11.32-.11.38s-.05.27-.16.43c-.05.16-.11.32-.05.38,0,.05,0,.16-.05.27-.11.11-.11.27-.11.38s0,.21-.05.21l-.21.59c-.11.32-.27.59-.32.7-.05.05-.16.38-.32.75-.11.27-.21.54-.27.54-.11,0-.21.32-.21.59,0,.16-.05.27-.05.32-.05,0-.16.11-.21.27-.05.27-.21.38-.21.21-.05-.16-.21-.05-.32.16l-.05.21.05.05c.11.11.32,0,.27-.16,0-.11.11-.16.16-.05v.11c0,.21-.21.75-.59,1.23-.11.16-.16.32-.16.38s-.05.21-.16.38c-.11.16-.16.32-.16.32,0,.05-.05.11-.11.16s-.21.32-.32.54l-.54.8-.43.48c-.38.64-.8,1.07-.91,1.18-.16.21-.32.43-.38.59-.05.11-.11.21-.16.21,0,0-.16.16-.16.27-.11.27-1.34,1.66-2.09,2.31-.27.21-.64.59-.64.59l-1.18,1.02-.97.38c-.48.11-1.13.48-1.13.48l-.32.16h-.48c-.27.05-.59.16-.59.16,0,0-.64.21-1.39.21-.7,0-1.56-.11-1.77-.21Zm1.18-4.56l1.02-1.07c.75-.86,1.13-1.29,1.07-1.45,0,0,.21-.21.43-.38.21-.16.54-.48.7-.7.11-.21.32-.43.43-.48.21-.11.7-.59.64-.64,0-.05.32-.38,1.45-1.66.16-.16.38-.54.43-.75.11-.16.27-.48.43-.7.11-.16.27-.43.27-.54,0-.16.11-.38.21-.48.11-.11.21-.27.16-.32,0-.11,0-.16.05-.16s.11-.16.11-.27l.05-.27-.21-.21v-.27c.05-.64.59-1.88.86-1.98.32-.16.48-.54.64-1.23,0-.16.11-.43.21-.54.05-.16.11-.27.11-.32,0-.11.48-.7.64-.7.21,0,.32-.05.32-.16,0-.21.05-.38.11-.48.05-.05.21-.21.27-.32l.11-.21.05-.54v-1.34l.32-.43-.27-.75.16-.27c.11-.11.21-.27.21-.32v-.05c0-.11.05-.27.11-.43l.16-.38-.05-.38c0-.16,0-.43.05-.54,0-.11,0-.54-.05-.97-.11-1.18-.16-1.88-.11-2.09v-.21c0-.16-.05-.43-.11-.48-.05-.11-.16-.32-.21-.54-.05-.21-.21-.59-.43-.86-.16-.21-.32-.54-.32-.7,0-.11-.11-.32-.16-.43-.11-.11-.16-.16-.11-.21.05-.11-.21-.43-.48-.64l-.21-.16-.16.05c-.05.05-.11.16-.16.27l-.05.27.21.27c.05.05.16.27.11.32,0,.11.05.27.16.38.11.11.16.21.16.27.05.05.05.11.11.11s.05,0,.11.11c0,.05,0,.11-.05.11s-.8-.64-.91-.75c-.11-.21-.27-.32-.48-.43-.16-.05-.38-.16-.43-.27-.05-.11-.16-.27-.21-.32l-.11-.11.11-.05c.11-.11.11-.32,0-.38-.05,0-.16-.11-.27-.21l-.16-.21h-.8l-.16-.16c-.21-.16-.48-.27-.59-.16-.11.05-.21.43-.16.59v.11c0,.27-.21.8-.38,1.07-.16.11-.38.38-.54.48-.21.16-.48.32-.59.43-.16.11-.32.21-.43.21-.05,0-.16.16-.27.27-.05.11-.21.32-.43.48l-.54.64c-.11.21-.32.54-.43.64-.11.11-.21.43-.32.64-.05.27-.21.54-.27.75l-.43.75c-.16.21-.32.54-.43.64-.11.11-.16.21-.16.27l-.59,1.07-.86,1.45c-.11.27-.27.54-.32.59-.05.05-.16.16-.21.38-.05.16-.16.38-.21.43-.05.11-.21.43-.38.86-.16.43-.38.75-.43.86-.11.05-.21.21-.21.32l-.27.7c-.32.8-.38.8-.48,1.18-.21.64-.32,1.13-.32,1.29,0,.05,0,.27-.05.48-.21.91-.21,1.02-.21,1.29,0,.16-.05.32-.05.43-.05.16-.16,1.02-.11,1.61,0,.27,0,.54-.05.59-.05.05.05.75.21,1.88.16,1.18.27,1.77.21,1.88l-.05.05.11.21c.11.11.16.27.16.32l.21.48.21.43v.8h.11c.05,0,.16.11.21.27l.16.16-.16.16.16.11c.16.11.27.38.38.75.05.27.38.75.8,1.02l.32.21.38.05c.43,0,.91-.16,1.23-.38Zm3.33-32.02c-.05-.11-.32-.11-.32,0s.27.21.38.16c0,0,0-.05-.05-.16Zm3.75-.05c0-.11-.11-.21-.27-.27-.11-.11-.21-.21-.21-.32l-.05-.16h.16c.11,0,.16.11.21.16l.11.21.43-.11-.21.27h.64l-.38.11-.11.38-.16-.05c-.11-.05-.16-.11-.16-.21Zm2.84,6.11c0-.05-.05-.16-.05-.16-.05,0-.11-.16-.16-.32l-.16-.21.16.11c.05.11.16.21.27.32l.16.11v.21c-.05.27-.16.27-.21-.05Zm2.25-.54c.16-.21.11-.59-.11-.59l-.32-.21-.21-.27-.16.21.11.38c.05.21.16.48.21.54.11.11.38.11.48-.05Zm-.16,1.29c0-.05-.05-.11-.11-.11s-.11.05-.11.16c.05.16.21.11.21-.05Zm.21,1.29c0-.11,0-.16-.05-.16-.16,0-.21.11-.16.16,0,.21.21.16.21,0Zm.11.75c0-.21-.16-.21-.16,0v.21c.11.05.21-.05.16-.21Z"/>
    <path class="cls-1" d="m253.87,52.51s-.32-.11-.43-.11c-.16,0-.38-.11-.38-.11,0,0-.27-.16-.48-.16-.38,0-.54,0-.7-.11h-.11l.21-.21-.11-.11s-.16-.11-.21-.11l-.64-.16c-.32-.11-.64-.21-.75-.21s-.43-.21-.43-.32c0,0,.05-.16.27-.21.16-.11.32-.21.32-.27,0-.21-.16-.32-.38-.32-.11,0-.27-.11-.27-.11l-.11-.11h.54l-.05-.21v-.32c-.05-.16-.11-.16-.43-.05l-.16.05v-.64l-.11-.05c-.11,0-.27.05-.27.05-.21.11-.38.05-.59-.11-.05-.11-.21-.21-.27-.27l-1.18-.21c-.27-.05-.38-.43-.7-.48h-.27l-.11.16c.05.05-.05.16-.11.16,0,.05-.05.11-.05.16,0,.11.48.54.64.54.21.05.54.11.7.21h.21c.21,0,.64-.05.7-.11.05-.05.11-.05.11,0,.16.16.59.38.8.38.27,0,.32.11.11.21-.11,0-.16.05-.11.16v.11l-.16-.05h-.21c-.05.16-.32.11-.38-.05l-.05-.16-.21.16c-.11.11-.32.16-.43.21h-.27l-.05-.16c-.05-.11-.16-.16-.21-.16s-.32-.16-.48-.27c-.16-.16-.32-.32-.38-.32s-.21-.11-.43-.27c-.38-.38-.64-.75-.59-.91.05-.16-.38-.48-.59-.54-.11-.05-.21-.11-.21-.16s-.27-.27-.38-.38c-.75-.64-.97-.91-.75-1.02l.11-.05-.11-.11c-.05-.11-.05-.43.05-.43l.21.11s.38.16.43,0c0-.11.05-.16.16-.11.05,0,.16.05.27.05l.21.05.11-.43.32.27c.16.11.32.21.43.21.32,0,.59.05.8.21,0,0,.59.21.75.11.05,0,.11-.11.11-.16-.05-.21.05-.21.21,0,.11.05.21.11.27.11s.27.11.48.27l.7.48.48.32c.27.32,1.61.75,1.93.64,0,0,.54-.11,1.07-.11h.91l.54-.38h.86c.91-.05,1.34-.11,1.45-.21.05,0,.32-.05.59-.05.59-.05,1.18-.27,1.61-.54.11-.11.38-.27.48-.27.16-.05.32-.16.38-.21.05-.11.21-.21.38-.32.16-.11.38-.32.59-.54.21-.21.32-.38.38-.38s.05-.11.05-.16c0-.11.05-.21.05-.21,0-.05.05-.16.05-.27l.27-.7c.11-.27.21-.7.27-.91,0-.21.11-.48.21-.59.05-.11.05-.16.05-.27,0-.21-.11-.43-.32-.75-.32-.48-1.23-1.29-1.56-1.45-.16-.05-.27-.16-.43-.32-.11-.27-.38-.43-.54-.38-.05.05-.21,0-.38-.05-.11-.05-.38-.16-.59-.21-.21-.11-.48-.21-.59-.32-.05-.05-.21-.11-.32-.11l-.43-.11-.86-.32-1.5-.59c-.16-.11-.38-.16-.38-.16-.05,0-.16-.11-.38-.21-.11-.16-.32-.27-.43-.32-.11,0-.32-.11-.48-.21-.38-.27-.8-.48-1.07-.54l-.21-.05-2.9-2.68-.21-.54.27-.21-.05-.32c-.11-.54-.27-.8-.38-.91l-.11-.11v-.32c.05-.16.11-.32.11-.43.05-.11.11-.21.05-.38,0-.05-.11-.32-.16-.59l-.11-.38.11-.48c.05-.21.16-.48.21-.59,0,0,.05-.32.05-.54v-.32c0-.48.11-.97.21-1.07.05,0,.11-.11.11-.27.05-.32.54-.97.97-1.39.27-.32.54-.75.64-.91.11-.21.27-.43.43-.54.16-.11.43-.32.64-.54.11-.21.38-.43.48-.48l.91-.59.7-.48-.05-.21c0-.11.05-.21.16-.27.11-.16.91-.54,1.18-.64.27-.11.48-.32.48-.59.11-.43.16-.64.59-.8.16-.11.38-.16.48-.16.05.05.16,0,.21-.05l.7-.27c.21-.11.54-.21.59-.27l.54-.16c.16-.05.32-.11.38-.16.05,0,.21-.05.38-.11.11,0,.38-.11.64-.27.27-.11.54-.21.64-.21s.27-.05.27-.11c.11-.05.27-.11.43-.11s.27-.05.32-.05c0-.05.11-.11.16-.11s.21-.05.32-.11c.11-.11.32-.21.64-.21l1.66-.27c.11-.05.32-.11.43-.11.16,0,.27,0,.32-.11.05-.05.27-.05.48-.11.16,0,.43,0,.59-.05.16,0,.59-.05.97,0h.64l.97.97h.64l.32.21c.27.16.48.21.59.21h.16c.27,0,.43.11.64.38l.32.32.38.8c.27.8.38.97.21,1.29-.05.11,0,.21,0,.27.05.05,0,.21-.05.38-.11.32-.48.97-.64,1.02-.05,0-.05.05-.05.11s-.16.21-.32.43c-.32.27-.97.59-1.29.59-.11,0-.27.05-.38.11l-.16.11-.97.05c-1.23.05-1.66.11-2.84.54-.43.11-.7.27-.75.32-.05,0-.11.05-.16.05s-.27.05-.48.16c-.16.11-.38.21-.48.21l-.38.16c-.05.05-.38.27-.75.43-.38.21-.86.48-1.13.59-.27.16-.64.38-.91.48-.27.16-.48.32-.54.38s-.27.11-.43.16l-.48.21c-.05.11-.64.43-1.23.7-1.45.75-1.72.97-2.15,1.34-.11.16-.27.27-.32.27s-.32.32-.7.7c-.86.86-1.29,1.72-1.23,2.2v.16l.43.27,1.34.54c.27.11.48.21.54.27s.27.11.48.16c.21.05.48.16.54.27.11.05.27.16.38.16.38.11.64.21.97.48s1.29.75,1.5.75c.16,0,.54.16.54.27s.32.27.48.27h.21l.05.16c.05.05.27.27.54.43l1.45,1.07.97.8h.16c.21,0,.54.16.64.32.05.11.48.59.97,1.13.27.21.48.54.64.75l.59.97.43.64-.05.21v.21l.32.16v.16c0,.11.05.27.16.38.05.05.16.27.16.43v.27l.27.32c.11.16.32.32.38.38,0,0,.05.16.05.27s.16.43.32.7l.27.48.11,1.07v1.07s-.05.16-.05.32l.05.32-.43.38c-.48.38-.59.54-.59.75,0,0-.11.11-.16.21-.32.16-.38.38-.16.38.05,0,.16.05.21.16v.11c0-.16-.43-.11-.54,0-.05,0-.21.05-.32.05h-.21l-.27.21c-.05.16-.27.38-.38.43-.16.11-.21.27-.21.32,0,.27-.48.59-.86.54-.11-.05-.32.11-.32.11-.16.27-.91.59-2.2.97-1.13.38-2.04.59-2.84.64l-1.18.21c-.64.11-1.66.16-2.52.16-.75,0-1.34-.05-1.5-.16Zm-.48-3.59l.16-.32h.59c1.23-.05,1.45-.21,1.45-.21l.16-.11.86-.05.21-.16c.27-.16.11-.54,0-.64l-.21-.16-.11.05-.59.11-.54.05-.05-.11s-.16-.16-.38,0c-.11.05-.16.05-.32.05s-.38,0-.8-.05l-.32-.05-.38.16c-.16.05-.38.16-.48.16-.11-.05-.16,0-.16.05s-.05.11-.11.11-.11.05-.21.05l-.16.05-.11-.16c-.05-.16-.27-.21-.32-.05,0,.16-.38.32-.59.32-.05,0-.21.11-.21.11l-.11.11.16.11s.11.11.16.11.27.05.48.16c.75.27.97.32,1.45.32h.48Z"/>
    <path class="cls-1" d="m278.49,53.1l-.7-.27c-.11-.05-.21-.11-.27-.11s-.21-.11-.38-.21l-.8-.48c-.48-.21-1.07-.7-1.18-.97,0-.05-.11-.21-.21-.27-.05-.05-.21-.21-.27-.32l-.32-.91-.27-.64-.27-.16c-.11-.11-.38-.27-.59-.38l-.38-.11-.11.05c-.05.05-.16.16-.27.32-.16.05-.21.16-.21.32,0,.11.05.21,0,.21-.16.11-.43-.59-.64-1.72l-.16-.7c-.05-.21-.05-.54-.11-.7.05-.21.05-.38,0-.38,0,0-.05-.54-.05-1.18,0-1.39-.05-1.72-.05-2.09,0-.16.05-.43.05-.43,0,0,.21-1.02.27-1.66v-.27c0-.54.16-1.29.16-1.29,0-.05.05-.32,0-.59.05-.54.11-.91.27-1.23,0-.11.05-.21.05-.27l.16-.54c.11-.21.21-.48.21-.54s0-.16.11-.21l.05-.11-.05-.27v-.27s.11-.16.11-.27c0,0,.11-.32.21-.48.11-.21.16-.54.21-.8.16-.54.27-1.07.48-1.45.05-.16.21-.48.32-.86.05-.32.21-.59.27-.7.11-.11.16-.21.16-.27s.11-.32.21-.54c.11-.21.16-.48.16-.54,0-.11.32-.75.59-1.56.43-.8.64-1.39.64-1.61l.05-.32-.21-.48.11-.32c0-.16.27-.59.38-.7.16-.21.38-.48.43-.64.05-.11.21-.38.43-.54.32-.21.48-.48.59-.97,0-.11.16-.38.32-.59.21-.27.38-.54.43-.64.05-.11.27-.32.38-.43.21-.16.27-.32.27-.43s.05-.27.11-.32c.38-.38.7-.86.7-.91s.43-.59.86-1.02c.21-.21.75-.8.8-.8s.16-.05.27-.16c.7-.64.91-.8,1.29-1.07.27-.11.48-.27.54-.32.32-.27,1.23-.48,2.09-.48l.8-.05.48-.16c.32-.16.59-.21.64-.27h.48l.32.05.38.38.59.43c.11.11.43.32.64.48.21.21.43.32.48.32s.59.43.7.59l.91.8c.43.43.8.91.97,1.13l.21.32.05.54v.48l-.21.27c-.32.32-.7.43-1.02.27-.11,0-.32-.05-.54-.05-.43,0-.97.05-1.18.16l-.54.16c-.16.05-.38.16-.54.38-.16.11-.32.27-.43.27-.05.05-.21.16-.27.27-.27.21-.8.59-.91.59-.05,0-.32.27-.8.75-.11.11-.16.21-.21.21-.11,0-1.61,1.61-1.61,1.72,0,.05-.16.27-.43.48-.32.38-.64.75-1.56,2.2l-.32.54c-.05,0-.21.27-.48.64-.38.7-.7,1.23-.86,1.45-.05.05-.21.38-.32.64-.05.27-.21.64-.32.86-.16.16-.38.59-.48.97l-.43.8c-.05.05-.16.27-.21.43v.05c0,.21-.11.48-.21.64-.11.21-.21.54-.27.7-.05.21-.11.43-.16.54-.05.05-.16.32-.21.59-.11.21-.21.59-.27.86-.11.27-.27.64-.32.91-.05.21-.11.59-.21.8-.11.21-.21.43-.21.59l-.21,1.18c-.32,1.39-.43,2.47-.43,3.11,0,.27,0,.43.05.54,0,.11.16.75.16,1.39.21,2.57.38,3.06.91,3.16l.43.21.21-.05c.16-.05.38-.05.59-.05.21-.05.43-.11.54-.16.11-.05.38-.16.54-.16.38-.05,1.34-.59,1.66-.91,0,0,.38-.27.59-.38.27-.11.43-.27.43-.38.11-.21.38-.05.38-.05,0,0,.11.11.16.11l.38.11.48.27h.21l.48-.16c.27-.11.59-.11.59-.11l.11.05-.27.27c-.11.16-.27.27-.32.27-.11,0-.05.27.11.38l.11.16-.05.21c0,.11,0,.27.11.43.05.11.16.27.16.43,0,.11,0,.27.05.27v.16c0,.11.05.27.11.38l.16.27-.21.16c-.21.16-.21.32.05.38l.16.05-.32.32c-.21.16-.43.38-.54.43-.48.21-.8.54-.8.54-.05.11-.21.21-.32.21l-.43.21s-.27.16-.38.16c-.11.05-.21.11-.27.11,0,0-.27.11-.54.11s-.54.05-.64.11c0,0-.7.16-.86.16.05,0-.21-.11-.59-.21-.27-.05-.59-.11-.7-.16l-.16-.11-.05.11c-.05,0-.16.05-.21.05-.11,0-.21.11-.32.16l-.21.21-.43-.11Zm-5.1-23.71l.38-.86.48-.91.05-.27.21-.38c.11-.05.21-.21.27-.32,0-.11.16-.32.16-.32l.11-.32c.05-.11.11-.11.11-.05,0,0-.16.8-.27.97l-.16.27c0,.11-.11.32-.16.43-.11.11-.21.38-.27.64-.05.38-.16.64-.38,1.07,0,0-.11.16-.11.21-.05.16-.27.21-.32,0l-.11-.16Z"/>
    <path class="cls-1" d="m90.12,102.1l.11-.38-.11-.27c-.05-.16-.16-.32-.16-.38s-.05-.21-.11-.21l-.16-.21.05-.7c-.05-.43,0-1.18-.05-1.66v-.91l.11-.7c.27-1.29.43-1.5.64-.86.16.32.32.48.64.48.27,0,.54-.32.64-1.02l.32-1.18c.11-.43.16-.91.16-1.07.05-.54.21-1.93.38-2.52l.11-1.93c0-.86.11-1.56.11-1.66.11-.27.27-1.45.27-1.93,0-.16,0-.32-.05-.43s0-.21.05-.38l.05-.27-.11-.27c-.05-.11-.05-.21-.05-.38,0,1.13.48-3.92.38-4.02,0-.05-.16-.11-.32-.11l-.21-.05-.21-.21c0-.16-.16-.27-.32-.32-.16-.05-.27-.16-.32-.27l-.11-.21.21-.64-.11-.05c0-.05-.05-.32-.05-.7l.21-2.25c0-.91.16-2.04.21-2.63.11-.54.16-1.29.16-1.77l.11-1.02c.05-.11.11-.27.11-.43s.05-.43.11-.54c0-.11,0-.38-.05-.54l-.05-.27.16-.91.21-1.18.16-.32h.21c.21,0,.38-.05.48-.16l.8-.32c.38-.05.7-.21.8-.32.21-.16.48-.11.59,0,.11.05.27.11.38.11s.38.05.59.16c.16.05.43.11.54.11.16,0,1.56.54,1.88.7.21.16.43.21.59.27.32.11.86.64.97.86.05.11.16.54.11.86l.05.64-.27.54c-.11.32-.32.64-.32.7,0,.11-.05.32-.11.43-.05.16-.11.54-.11.91-.11.43-.16.8-.21.91-.05.16-.11.38-.05.43,0,.11-.05.54-.16.97l-.48,3.33-.11.97c-.05.16-.11.64-.16,1.13,0,.43-.05.97-.16,1.23-.05.21-.05,1.02-.16,1.77,0,.8-.11,2.04-.16,2.68l-.38,3.92c-.05,1.45-.21,2.79-.21,3-.05.21-.11,1.02-.16,1.82,0,.8-.11,1.5-.16,1.56l-.11,1.45c0,.86-.11,1.66-.16,1.82-.05.27-.05.7-.11.91-.05.75-.16,1.56-.27,1.77-.05.16-.27.43-.27.43,0,0-.21.27-.21.38-.05.11-.11.11-.21.11-.05,0-.11.05-.16.16l-.05.11-.05-.05s-.21-.05-.27.16c-.16.27-.43.38-1.13.43l-.54.05-.11-.48h-.11c-.05,0-.11.05-.16.16-.05.21-.27.32-1.07.54l-.8.21h-.7c-.43,0-.8,0-.91.05l-.11.05-.21-.16Zm1.23-7.78c0-.05.05-.11.11-.11s.11.05.11.11-.05.11-.11.11-.11-.05-.11-.11Z"/>
    <path class="cls-1" d="m126.27,102.1s-.38-.32-.48-.32c-.05,0-.16.11-.16.11,0,.05-.05.11-.16.11s-.27-.05-.48-.16c-.21,0-.59-.11-.8-.21l-.43-.16.27-3.22.16-.11c.43-.11.54-.38.54-1.72v-.64l-.27-.59.05-.48c0-.48.32-1.34.54-1.88l.16-.27-.05-.16s-.05-.27-.05-.43-.05-.43-.11-.7v-.54c.05,0,.11-.16.11-.43.05-.21.11-.48.16-.59l.11-.16-.11-.16v-.32c.16-.48.27-1.34.32-3.49.11-1.07.16-1.45.43-2.2l.11-.27-.27-.8.11-.38c0-.21.11-.59.11-.86l.16-.54-.32-.8-.21-.05c-.16-.05-.27-.16-.32-.16,0,0-.05-.21-.05-.59,0-.32,0-.86.05-1.56.11-.8.21-1.82.21-2.25.11-1.88.21-3.27.43-4.83l.05-.21-.32-.16.16-2.2.38-.43v-.16c0-.21.05-.38.11-.54l.16-.27-.11-.16c-.11-.16,0-.21.27-.16h.21c.38,0,.91-.11,1.23-.27.38-.16.75-.27,1.18-.21l.38.05.27-.16c.43-.27.86-.38,1.18-.38h.32c.48,0,1.07-.05,1.29-.11.11-.05.32-.11.43-.05.11,0,.32-.05.48-.11l.7-.11.48-.05,2.09.21c1.13.11,2.15.27,2.25.32l.59.11c.64.21,2.2.91,2.41,1.07.21.16,1.13.7,1.23.7.05,0,1.39,1.45,1.98,2.25.21.32.64.86.91,1.07.21.32.43.59.38.64,0,.05.16.16.21.27.11.16.21.38.27.54s.16.48.27.64c.43.86.64,1.88.7,3.22,0,.7-.27,3.38-.43,3.7-.05.05-.16.43-.21.8-.05.32-.21.64-.27.7s-.16.16-.16.27,0,.21-.05.32c-.16.27-.32.64-.38.8,0,.11-.05.21-.16.32-.11.11-.21.27-.27.38-.32.54-.38.64-.48.64-.21-.05-.7.54-.59.75,0,.05-.05.16-.16.21-.11.11-.16.21-.16.21-.05.16-.32.38-.48.38-.05,0-.16.11-.16.16-.05.21-.21.64-.32.7-.05,0-.16.11-.27.27-.05.11-.16.21-.21.21-.16,0-.64.32-.64.43,0,.21-1.82,1.61-2.04,1.66-.16.05-.43.16-.64.32-.16.11-.43.27-.59.32-.11,0-.32.11-.43.21-.11.11-.27.16-.38.16h-.16c-.21,0-.38.05-.64.21-.16.11-.54.21-.75.27-.86.21-1.29.27-1.77.27-.27,0-.59,0-1.07-.05l-.7-.05-.11.05c-.16.16-.32.11-.32-.05l.05-.11-.16.05c-.05,0-.27.05-.38.05l-.21.05-.11.54c-.11.38-.11.91-.16,1.29-.05.32-.11.59-.16.59,0,0-.11.11-.16.27l-.16.32-.16,1.77c-.05,1.02-.21,1.88-.21,1.88,0,0-.05.16,0,.27.05.16.05.38,0,.54l-.11.21.16.27-.27.27c-.16.11-.27.27-.27.32s-.05.16-.11.27c0,0-.05.16,0,.27l.05.16-.54.27.05.21c0,.11-.05.27-.05.27-.05,0-.11.11-.11.21l-.21.27c-.11.05-.27.21-.27.21-.05.11-.16.16-.32.11-.27,0-.54.16-.54.43l-.05.21-.16.05c-.11.05-.27.05-.38.11,0,0-.27.11-.32.11-.11-.05-.21.05-.38.16l-.27.21-.48-.11c-.27-.05-.48-.11-.48-.16Zm9.23-18.02c.38-.16,1.61-.91,1.98-1.23.27-.21.27-.27,1.23-.91.48-.38.91-.7,1.02-.86.16-.11.32-.27.43-.38.11-.05.16-.21.16-.27.05-.05.11-.16.16-.16.11,0,.32-.21.54-.43l.38-.43v-.16c0-.16.11-.38.16-.48.11-.16.16-.32.11-.43l.16-.38c.16-.16.21-.27.32-.54l.27-.38.11-.32-.11-.64.32-.43-.11-.16c0-.05-.11-.27-.05-.48,0-.43-.11-.8-.38-.86-.05-.05-.27,0-.38.05l-.27.05-.48-.32c-.21-.16-.43-.32-.43-.38-.05-.05-.05-.27,0-.43l.05-.38-.21-.21c-.11-.11-.32-.27-.38-.27s-.16-.05-.21-.21-.27-.38-.38-.48c-.16-.11-.27-.21-.21-.32,0,0-.27-.21-.43-.43l-.7-.8c-.16-.21-.38-.43-.48-.48l-1.61.16c-.11.05-.38.11-.54.11-.16.05-.7.11-1.13.21l-.8.16-.27.21c-.27.32-.32.59-.16.86,0,.16.05.43.05.7l.27,1.82c.05.21.16.48.11.59,0,.11.05.32.05.54.05.16.05.43.11.54,0,.16,0,.48.05.64.05.21.05.38.05.54,0,.11.05.38.11.54.05.16.05.54.05.86l.05.97c.05.32.05.54.05.64l-.16,1.39-.43,3.33-.11.21h.11c.27,0,1.56-.27,1.93-.48Z"/>
    <path class="cls-1" d="m159.79,101.99c-.11-.05-.38-.11-.64-.16-.21,0-.59-.11-.75-.16-.21-.11-.48-.16-.59-.16-.38,0-.8-.16-.97-.43-.05-.11-.16-.27-.27-.32l-.11-.11-.32.11-.48-.16.16-.21-.21-.16s-.21-.27-.27-.48l-.11-.27-.16-.05c-.11-.05-.21-.05-.27-.05-.11,0-.7-.48-.64-.54l.16-.11c.16-.11.16-.21-.05-.43l-.21-.16-.05-.64-.38-.43c-.16-.27-.38-.43-.43-.43,0,0,0-.11.05-.16l.11-.16-.11-.21-.16-.43c0-.16-.11-.32-.21-.54-.11-.16-.21-.38-.21-.48-.05-.11-.16-.27-.27-.54-.11-.21-.21-.43-.21-.54l-.16-.27c-.05-.11-.16-.43-.21-1.02-.05-.54-.16-1.02-.16-1.02-.11-.16-.27-.91-.32-1.45-.05-.32-.21-.7-.21-.7l-.05-.27c0-.16-.38-.59-.64-.7h-.11v-.11l.16-1.39.11-.59c.05,0,.05-.21.05-.43v-.54c.05-.11.05-.16.05-.27s.05-.21.05-.32l.05-.27c0-.05,0-.27.11-.48.11-.21.16-.48.11-.59,0-.11.05-.27.11-.27.05-.11.11-.27.11-.43s.11-.38.16-.48c.11-.16.27-.8.32-1.29,0-.21.05-.48.11-.59.05-.11.11-.27.11-.32.05-.11.11-.32.21-.48.11-.16.21-.38.21-.59,0-.16.05-.43.11-.54.11-.16.32-.75.43-1.56.05-.11.11-.43.21-.64l.11-.43-.11-.38c-.05-.21-.11-.43-.16-.54,0-.27.05-1.18.16-1.39l1.34-2.41c0-.05.16-.27.27-.48.11-.11.32-.43.48-.64.38-.59.8-1.13,1.56-2.04.38-.43.8-.96.91-1.18.11-.27.32-.48.43-.54.16-.11.38-.32.48-.54.16-.21.38-.38.48-.43l.16-.11.75.16.54-.21,1.45.16.27-.16q.32-.16.64,0c.16.05.32.05.43.05.16,0,.27.05.38.21l.11.11h.32c.21,0,.43.05.59.11.11.05.21.05.21.05.16,0,.32-.11.43-.21.11-.05.21-.16.32-.21l.43-.11.27-.05.21.16c.11.05.27.21.32.21.11.05.21.16.27.21,0,.05.27.21.48.32.97.48,1.5.86,1.72,1.23.05.11.16.27.27.32.11,0,.27.11.43.21.11.11.32.27.48.38.11.11.21.21.21.32l.05.11h.75l.32-.43.21.16q.32.16.54-.05c.11-.11.27-.16.32-.11.11.05.27.38.38.59.05.16.16.38.27.54.11.16.21.27.21.32v.05h-.32c-.11,0-.16.05-.16.27,0,.64.27,1.13.48,1.34l.21.21.05.27v.21l.21.16c.11.11.27.16.38.16h.16l.05.16c.11.21.27.21.27,0,0-.05.16-.16.27-.21.16-.05.32-.11.38-.21.05-.05.11-.05.11-.05.21.27.32.54.38.64,0,.11.05.21.11.38.11.11.16.32.21.48.11.32.21.21.11-.16l-.05-.32.21-.21.05.11c0,.11.05.21.05.32s.11.54.21.96c.27,1.02.54,2.84.48,3.86v.91c0,.05-.05.38-.05.8,0,.75-.21,2.36-.32,2.57,0,.05-.05.16-.11.16s-.11.11-.16.21l-.16.27.11.21c.16.32.16.27-.05.59-.05.11-.11.27-.11.32s0,.21-.11.27c-.05.16-.11.32-.11.38s-.05.27-.16.43c-.05.16-.11.32-.05.38,0,.05,0,.16-.05.27-.11.11-.11.27-.11.38s0,.21-.05.21l-.21.59c-.11.32-.27.59-.32.7-.05.05-.16.38-.32.75-.11.27-.21.54-.27.54-.11,0-.21.32-.21.59,0,.16-.05.27-.05.32-.05,0-.16.11-.21.27-.05.27-.21.38-.21.21-.05-.16-.21-.05-.32.16l-.05.21.05.05c.11.11.32,0,.27-.16,0-.11.11-.16.16-.05v.11c0,.21-.21.75-.59,1.23-.11.16-.16.32-.16.38s-.05.21-.16.38c-.11.16-.16.32-.16.32,0,.05-.05.11-.11.16s-.21.32-.32.54l-.54.8-.43.48c-.38.64-.8,1.07-.91,1.18-.16.21-.32.43-.38.59-.05.11-.11.21-.16.21,0,0-.16.16-.16.27-.11.27-1.34,1.66-2.09,2.31-.27.21-.64.59-.64.59l-1.18,1.02-.97.38c-.48.11-1.13.48-1.13.48l-.32.16h-.48c-.27.05-.59.16-.59.16,0,0-.64.21-1.39.21-.7,0-1.56-.11-1.77-.21Zm1.18-4.56l1.02-1.07c.75-.86,1.13-1.29,1.07-1.45,0,0,.21-.21.43-.38.21-.16.54-.48.7-.7.11-.21.32-.43.43-.48.21-.11.7-.59.64-.64,0-.05.32-.38,1.45-1.66.16-.16.38-.54.43-.75.11-.16.27-.48.43-.7.11-.16.27-.43.27-.54,0-.16.11-.38.21-.48s.21-.27.16-.32c0-.11,0-.16.05-.16s.11-.16.11-.27l.05-.27-.21-.21v-.27c.05-.64.59-1.88.86-1.98.32-.16.48-.54.64-1.23,0-.16.11-.43.21-.54.05-.16.11-.27.11-.32,0-.11.48-.7.64-.7.21,0,.32-.05.32-.16,0-.21.05-.38.11-.48.05-.05.21-.21.27-.32l.11-.21.05-.54v-1.34l.32-.43-.27-.75.16-.27c.11-.11.21-.27.21-.32v-.05c0-.11.05-.27.11-.43l.16-.38-.05-.38c0-.16,0-.43.05-.54,0-.11,0-.54-.05-.97-.11-1.18-.16-1.88-.11-2.09v-.21c0-.16-.05-.43-.11-.48-.05-.11-.16-.32-.21-.54-.05-.21-.21-.59-.43-.86-.16-.21-.32-.54-.32-.7,0-.11-.11-.32-.16-.43-.11-.11-.16-.16-.11-.21.05-.11-.21-.43-.48-.64l-.21-.16-.16.05c-.05.05-.11.16-.16.27l-.05.27.21.27c.05.05.16.27.11.32,0,.11.05.27.16.38s.16.21.16.27c.05.05.05.11.11.11s.05,0,.11.11c0,.05,0,.11-.05.11s-.8-.64-.91-.75c-.11-.21-.27-.32-.48-.43-.16-.05-.38-.16-.43-.27-.05-.11-.16-.27-.21-.32l-.11-.11.11-.05c.11-.11.11-.32,0-.38-.05,0-.16-.11-.27-.21l-.16-.21h-.8l-.16-.16c-.21-.16-.48-.27-.59-.16-.11.05-.21.43-.16.59v.11c0,.27-.21.8-.38,1.07-.16.11-.38.38-.54.48-.21.16-.48.32-.59.43-.16.11-.32.21-.43.21-.05,0-.16.16-.27.27-.05.11-.21.32-.43.48l-.54.64c-.11.21-.32.54-.43.64-.11.11-.21.43-.32.64-.05.27-.21.54-.27.75l-.43.75c-.16.21-.32.54-.43.64s-.16.21-.16.27l-.59,1.07-.86,1.45c-.11.27-.27.54-.32.59-.05.05-.16.16-.21.38-.05.16-.16.38-.21.43-.05.11-.21.43-.38.86-.16.43-.38.75-.43.86-.11.05-.21.21-.21.32l-.27.7c-.32.8-.38.8-.48,1.18-.21.64-.32,1.13-.32,1.29,0,.05,0,.27-.05.48-.21.91-.21,1.02-.21,1.29,0,.16-.05.32-.05.43-.05.16-.16,1.02-.11,1.61,0,.27,0,.54-.05.59-.05.05.05.75.21,1.88.16,1.18.27,1.77.21,1.88l-.05.05.11.21c.11.11.16.27.16.32l.21.48.21.43v.8h.11c.05,0,.16.11.21.27l.16.16-.16.16.16.11c.16.11.27.38.38.75.05.27.38.75.8,1.02l.32.21.38.05c.43,0,.91-.16,1.23-.38Zm3.33-32.02c-.05-.11-.32-.11-.32,0s.27.21.38.16c0,0,0-.05-.05-.16Zm3.75-.05c0-.11-.11-.21-.27-.27-.11-.11-.21-.21-.21-.32l-.05-.16h.16c.11,0,.16.11.21.16l.11.21.43-.11-.21.27h.64l-.38.11-.11.38-.16-.05c-.11-.05-.16-.11-.16-.21Zm2.84,6.12c0-.05-.05-.16-.05-.16-.05,0-.11-.16-.16-.32l-.16-.21.16.11c.05.11.16.21.27.32l.16.11v.21c-.05.27-.16.27-.21-.05Zm2.25-.54c.16-.21.11-.59-.11-.59l-.32-.21-.21-.27-.16.21.11.38c.05.21.16.48.21.54.11.11.38.11.48-.05Zm-.16,1.29c0-.05-.05-.11-.11-.11s-.11.05-.11.16c.05.16.21.11.21-.05Zm.21,1.29c0-.11,0-.16-.05-.16-.16,0-.21.11-.16.16,0,.21.21.16.21,0Zm.11.75c0-.21-.16-.21-.16,0v.21c.11.05.21-.05.16-.21Z"/>
    <path class="cls-1" d="m183.55,102.58v-.05c0-.38-.38-.54-.59-.16-.16.21-.43.27-.48.11,0,0-.16-.11-.27-.11h-.16v-.11c-.05-.32-.32-.38-.59-.21l-.16.11h-.32c-.21-.05-.59-.21-.59-.21l-.7-.16c-.64-.05-.8-.11-1.02-.48l-.21-.27.05-.21c.05-.11.05-.27.05-.32-.05-.05-.21-1.18-.11-1.39,0-.16.05-.32,0-.38,0-.11,0-.16.11-.16.05-.05.16-.21.21-.43.11-.21.21-.54.38-.64l.21-.21-.05-.32c0-.16,0-.43.05-.59l.16-2.74c0-.11.16-1.5.21-1.66,0-.11.11-.27.11-.27l.11-.11.16.11s.27.11.32.11l.21.05s.11.11.16.11c.16,0,.27-.38.32-1.07l.05-.75c.05-.21.05-.43.05-.59,0-.32-.11-.43-.32-.43s-.27-.16-.21-.59l.05-.8c.05-.16.05-.48.11-.64.05-.21.11-.54.11-.86v-.48l-.11-.16c-.11-.11-.48-1.45-.38-1.66l.05-.27v-.54c0-.8.11-1.29.21-1.45,0,0,.11-.16.05-.27v-.11c0-.16.21-.38.48-.54l.21-.11.05-.38c.11-.91.11-1.29.05-1.61-.05-.16-.11-.54-.16-.86-.05-.54-.05-.59.21-.59.21,0,.27-.16.21-.54l-.05-.38-.43-.32v-.38c0-.16.05-.38.05-.43l.05-.38.05-.27-.48-.54v-.43c0-.86.11-1.39.27-1.72l.11-.16-.05-.8c0-.48,0-.91.05-1.07.05-.16.05-.48.05-.7v-.21c0-.16.05-.43.05-.43l.05-.54c-.05-.16,0-.38.05-.48.05-.16.05-.38.05-.54s0-.38.05-.54c0-.11.05-.48,0-.75l-.05-.48h.16c.05,0,.21,0,.38-.11.16-.05.43-.11.7-.11.21,0,.48-.05.64-.11l.64-.16c.21,0,.43-.11.59-.21.21-.16.48-.21.59-.05.05.05.27.16.48.27.21.11.59.43.8.64.43.43.48.54,1.61.97l.86.32.32.32c.8.75,1.29,1.56,1.29,2.2,0,.16-.11.64-.21.97-.54,1.45-.75,2.63-.7,3.27,0,.16,0,.27-.05.27-.05.05-.05.21-.05.38-.05.21-.11.43-.11.59-.11.27-.11.43-.21,1.45,0,.32-.05.64-.11.7,0,.05-.05.27-.05.48l-.21,2.52c-.05.27-.05.75-.11,1.07,0,.27-.05.54-.11.59-.11.16-.16.64-.11.86.11.32,0,1.23-.21,2.15l-.16.54c0,.11,0,.21.11.32l.05.11h.64v.16c0,.21.11.32.27.32s.32-.16.43-.38c.16-.27.48-.7.59-.7.21,0,.54-.43.59-.75l.05-.32.43-.48c.21-.27.43-.59.48-.75,0-.11.11-.27.21-.38.21-.21.43-.86.43-1.07,0-.11.05-.27.16-.38.16-.21.48-.96.48-1.13,0-.05.11-.27.91-1.29l.32-.48.11-.21-.05-.16c-.16-.27-.16-.43-.05-.7l.21-.54.75-1.39c.05-.27.38-.86.48-.86.05,0,.11-.11.16-.21l.21-.48c.11-.11.16-.32.21-.48,0-.16.16-.54.32-.86l.21-.59s.11-.11.16-.21c.11-.11.16-.21.16-.32,0-.05,0-.16.05-.21.11-.11.21-.21.38-.43.05-.11.16-.21.21-.21.16,0,.43-.43.54-.8,0-.16.11-.38.11-.48.05-.05.11-.27.05-.38,0-.48-.16-1.13-.21-1.18-.11-.11-.7-.16-.8-.11-.11.11-.16-.05-.05-.16l.11-.21-.05-.75-.11-.75.16-.32c.05-.16.11-.27.16-.32.05,0,.27.11.54.27.27.16.59.38.75.43l.27.16.32-.11.48-.11c.11,0,.21-.05.27-.16.05-.05.16-.16.27-.21.11,0,.27-.05.32-.11.11-.16.27-.11.27.11v.21l.16-.05c.05-.05.21,0,.38.05.16.11.32.11.54.11l.27-.05.32.32c.16.21.38.38.48.38.05,0,.27.16.59.43.21.27.59.64.8.8l.38.38.38.54c.21.43.32.64.32.91,0,.59-.91,1.93-1.13,2.15-.11.05-.27.21-.27.27l-.27.43c-.27.43-.43.7-.97,1.77l-.64,1.23c-.11.16-.16.32-.21.38l-.43.75c-.27.32-.54.8-.64,1.02-.16.21-.32.48-.38.48-.05.05-.16.21-.16.32-.05.11-.27.43-.48.7-.16.21-.38.54-.43.7l-.64,1.07c-.05.16-.16.32-.21.38l-.48.7c-.48.86-1.13,1.77-1.61,2.36-.21.27-.43.59-.48.7l-.8.97c-.38.38-.75.8-.8.91-.16.32-.59.91-.7.91s-.38.27-.38.43c.05.11-.27.48-.54.64-.16.11-.27.21-.27.27-.05.11-.16.27-.32.38-.43.32-.43.43-.27.75.11.16.21.43.21.54.05.16.16.38.27.54.21.32,1.88,2.04,2.09,2.15.11.11.48.38.8.7l.97.86,2.04,1.61c1.02.7,1.66,1.18,2.09,1.56l.43.32-.16.16-.27-.16c-.16-.05-.32-.11-.38-.11-.11.11-.05.48.11.54l.05.16v.11l-.16-.05c-.32-.16-.48.11-.38.21l.11.05-.16.16-.16-.11c-.11-.05-.32,0-.32,0h-.11l.05.16c.05.11.05.21.05.32-.05.11-.38,0-.38,0-.05-.11-.38.05-.38.05,0,.11-.11.16-.32.16h-.27l-.11-.11c-.05-.11-.11-.16-.27-.16-.11,0-.32,0-.48-.05l-.27-.11-.11.11h-.16c-.21,0-.59-.05-.75-.11-.05-.11-.11-.21-.11-.32l-.16-.38-.11-.16h.16c.11-.05.16-.11.16-.21v-.21l-.38-.21c-.38-.21-.86-.59-1.45-1.07-.27-.16-.59-.38-.7-.48l-.32-.16-.11.05c-.16.11-.27.05-.27-.16l-.05-.16-.75-.64c-.48-.32-1.13-.91-1.5-1.18-.32-.32-.7-.59-.75-.59s-.16-.11-.32-.21c-.54-.38-.7-.48-1.07-.54-.21,0-.48-.05-.59-.11l-.16-.11-.05.05c-.11.16-.27.91-.27,1.23,0,.16,0,.38-.05.59-.05.16-.05.48-.05.7-.05.21-.05.38-.11.43,0,0-.05.11-.05.21.05.11,0,.27-.05.38l-.05.27v.48c-.05.16-.11.43-.11.59,0,.32-.16,1.39-.21,1.88l-.11.64c-.05.21-.05.43,0,.54,0,.05,0,.16-.05.16l-.11.38c0,.21-.16.48-.16.48,0,0-.11.16-.11.21,0,.21-.21.59-.27.48l-.38.11-.11.16-.7-.05-.75.48-.05.21c0,.11-.11.21-.16.21-.21.05-.27,0-.27-.21Zm14.48-33.9c0-.05.11-.11.11-.11.05,0,.05.27-.05.32-.11.05-.16-.11-.05-.21Z"/>
    <path class="cls-1" d="m215.04,101.99c-.11-.05-.38-.11-.64-.16-.21,0-.59-.11-.75-.16-.21-.11-.48-.16-.59-.16-.38,0-.8-.16-.97-.43-.05-.11-.16-.27-.27-.32l-.11-.11-.32.11-.48-.16.16-.21-.21-.16s-.21-.27-.27-.48l-.11-.27-.16-.05c-.11-.05-.21-.05-.27-.05-.11,0-.7-.48-.64-.54l.16-.11c.16-.11.16-.21-.05-.43l-.21-.16-.05-.64-.38-.43c-.16-.27-.38-.43-.43-.43,0,0,0-.11.05-.16l.11-.16-.11-.21-.16-.43c0-.16-.11-.32-.21-.54-.11-.16-.21-.38-.21-.48-.05-.11-.16-.27-.27-.54-.11-.21-.21-.43-.21-.54l-.16-.27c-.05-.11-.16-.43-.21-1.02-.05-.54-.16-1.02-.16-1.02-.11-.16-.27-.91-.32-1.45-.05-.32-.21-.7-.21-.7l-.05-.27c0-.16-.38-.59-.64-.7h-.11v-.11l.16-1.39.11-.59c.05,0,.05-.21.05-.43v-.54c.05-.11.05-.16.05-.27s.05-.21.05-.32l.05-.27c0-.05,0-.27.11-.48.11-.21.16-.48.11-.59,0-.11.05-.27.11-.27.05-.11.11-.27.11-.43s.11-.38.16-.48c.11-.16.27-.8.32-1.29,0-.21.05-.48.11-.59.05-.11.11-.27.11-.32.05-.11.11-.32.21-.48.11-.16.21-.38.21-.59,0-.16.05-.43.11-.54.11-.16.32-.75.43-1.56.05-.11.11-.43.21-.64l.11-.43-.11-.38c-.05-.21-.11-.43-.16-.54,0-.27.05-1.18.16-1.39l1.34-2.41c0-.05.16-.27.27-.48.11-.11.32-.43.48-.64.38-.59.8-1.13,1.56-2.04.38-.43.8-.96.91-1.18.11-.27.32-.48.43-.54.16-.11.38-.32.48-.54.16-.21.38-.38.48-.43l.16-.11.75.16.54-.21,1.45.16.27-.16q.32-.16.64,0c.16.05.32.05.43.05.16,0,.27.05.38.21l.11.11h.32c.21,0,.43.05.59.11.11.05.21.05.21.05.16,0,.32-.11.43-.21.11-.05.21-.16.32-.21l.43-.11.27-.05.21.16c.11.05.27.21.32.21.11.05.21.16.27.21,0,.05.27.21.48.32.97.48,1.5.86,1.72,1.23.05.11.16.27.27.32.11,0,.27.11.43.21.11.11.32.27.48.38.11.11.21.21.21.32l.05.11h.75l.32-.43.21.16q.32.16.54-.05c.11-.11.27-.16.32-.11.11.05.27.38.38.59.05.16.16.38.27.54.11.16.21.27.21.32v.05h-.32c-.11,0-.16.05-.16.27,0,.64.27,1.13.48,1.34l.21.21.05.27v.21l.21.16c.11.11.27.16.38.16h.16l.05.16c.11.21.27.21.27,0,0-.05.16-.16.27-.21.16-.05.32-.11.38-.21.05-.05.11-.05.11-.05.21.27.32.54.38.64,0,.11.05.21.11.38.11.11.16.32.21.48.11.32.21.21.11-.16l-.05-.32.21-.21.05.11c0,.11.05.21.05.32s.11.54.21.96c.27,1.02.54,2.84.48,3.86v.91c0,.05-.05.38-.05.8,0,.75-.21,2.36-.32,2.57,0,.05-.05.16-.11.16s-.11.11-.16.21l-.16.27.11.21c.16.32.16.27-.05.59-.05.11-.11.27-.11.32s0,.21-.11.27c-.05.16-.11.32-.11.38s-.05.27-.16.43c-.05.16-.11.32-.05.38,0,.05,0,.16-.05.27-.11.11-.11.27-.11.38s0,.21-.05.21l-.21.59c-.11.32-.27.59-.32.7-.05.05-.16.38-.32.75-.11.27-.21.54-.27.54-.11,0-.21.32-.21.59,0,.16-.05.27-.05.32-.05,0-.16.11-.21.27-.05.27-.21.38-.21.21-.05-.16-.21-.05-.32.16l-.05.21.05.05c.11.11.32,0,.27-.16,0-.11.11-.16.16-.05v.11c0,.21-.21.75-.59,1.23-.11.16-.16.32-.16.38s-.05.21-.16.38c-.11.16-.16.32-.16.32,0,.05-.05.11-.11.16s-.21.32-.32.54l-.54.8-.43.48c-.38.64-.8,1.07-.91,1.18-.16.21-.32.43-.38.59-.05.11-.11.21-.16.21,0,0-.16.16-.16.27-.11.27-1.34,1.66-2.09,2.31-.27.21-.64.59-.64.59l-1.18,1.02-.97.38c-.48.11-1.13.48-1.13.48l-.32.16h-.48c-.27.05-.59.16-.59.16,0,0-.64.21-1.39.21-.7,0-1.56-.11-1.77-.21Zm1.18-4.56l1.02-1.07c.75-.86,1.13-1.29,1.07-1.45,0,0,.21-.21.43-.38.21-.16.54-.48.7-.7.11-.21.32-.43.43-.48.21-.11.7-.59.64-.64,0-.05.32-.38,1.45-1.66.16-.16.38-.54.43-.75.11-.16.27-.48.43-.7.11-.16.27-.43.27-.54,0-.16.11-.38.21-.48s.21-.27.16-.32c0-.11,0-.16.05-.16s.11-.16.11-.27l.05-.27-.21-.21v-.27c.05-.64.59-1.88.86-1.98.32-.16.48-.54.64-1.23,0-.16.11-.43.21-.54.05-.16.11-.27.11-.32,0-.11.48-.7.64-.7.21,0,.32-.05.32-.16,0-.21.05-.38.11-.48.05-.05.21-.21.27-.32l.11-.21.05-.54v-1.34l.32-.43-.27-.75.16-.27c.11-.11.21-.27.21-.32v-.05c0-.11.05-.27.11-.43l.16-.38-.05-.38c0-.16,0-.43.05-.54,0-.11,0-.54-.05-.97-.11-1.18-.16-1.88-.11-2.09v-.21c0-.16-.05-.43-.11-.48-.05-.11-.16-.32-.21-.54-.05-.21-.21-.59-.43-.86-.16-.21-.32-.54-.32-.7,0-.11-.11-.32-.16-.43-.11-.11-.16-.16-.11-.21.05-.11-.21-.43-.48-.64l-.21-.16-.16.05c-.05.05-.11.16-.16.27l-.05.27.21.27c.05.05.16.27.11.32,0,.11.05.27.16.38s.16.21.16.27c.05.05.05.11.11.11s.05,0,.11.11c0,.05,0,.11-.05.11s-.8-.64-.91-.75c-.11-.21-.27-.32-.48-.43-.16-.05-.38-.16-.43-.27-.05-.11-.16-.27-.21-.32l-.11-.11.11-.05c.11-.11.11-.32,0-.38-.05,0-.16-.11-.27-.21l-.16-.21h-.8l-.16-.16c-.21-.16-.48-.27-.59-.16-.11.05-.21.43-.16.59v.11c0,.27-.21.8-.38,1.07-.16.11-.38.38-.54.48-.21.16-.48.32-.59.43-.16.11-.32.21-.43.21-.05,0-.16.16-.27.27-.05.11-.21.32-.43.48l-.54.64c-.11.21-.32.54-.43.64-.11.11-.21.43-.32.64-.05.27-.21.54-.27.75l-.43.75c-.16.21-.32.54-.43.64s-.16.21-.16.27l-.59,1.07-.86,1.45c-.11.27-.27.54-.32.59-.05.05-.16.16-.21.38-.05.16-.16.38-.21.43-.05.11-.21.43-.38.86s-.38.75-.43.86c-.11.05-.21.21-.21.32l-.27.7c-.32.8-.38.8-.48,1.18-.21.64-.32,1.13-.32,1.29,0,.05,0,.27-.05.48-.21.91-.21,1.02-.21,1.29,0,.16-.05.32-.05.43-.05.16-.16,1.02-.11,1.61,0,.27,0,.54-.05.59-.05.05.05.75.21,1.88.16,1.18.27,1.77.21,1.88l-.05.05.11.21c.11.11.16.27.16.32l.21.48.21.43v.8h.11c.05,0,.16.11.21.27l.16.16-.16.16.16.11c.16.11.27.38.38.75.05.27.38.75.8,1.02l.32.21.38.05c.43,0,.91-.16,1.23-.38Zm3.33-32.02c-.05-.11-.32-.11-.32,0s.27.21.38.16c0,0,0-.05-.05-.16Zm3.75-.05c0-.11-.11-.21-.27-.27-.11-.11-.21-.21-.21-.32l-.05-.16h.16c.11,0,.16.11.21.16l.11.21.43-.11-.21.27h.64l-.38.11-.11.38-.16-.05c-.11-.05-.16-.11-.16-.21Zm2.84,6.12c0-.05-.05-.16-.05-.16-.05,0-.11-.16-.16-.32l-.16-.21.16.11c.05.11.16.21.27.32l.16.11v.21c-.05.27-.16.27-.21-.05Zm2.25-.54c.16-.21.11-.59-.11-.59l-.32-.21-.21-.27-.16.21.11.38c.05.21.16.48.21.54.11.11.38.11.48-.05Zm-.16,1.29c0-.05-.05-.11-.11-.11s-.11.05-.11.16c.05.16.21.11.21-.05Zm.21,1.29c0-.11,0-.16-.05-.16-.16,0-.21.11-.16.16,0,.21.21.16.21,0Zm.11.75c0-.21-.16-.21-.16,0v.21c.11.05.21-.05.16-.21Z"/>
    <path class="cls-1" d="m231.83,101.94c-.32-.11-.32-.16,0-.21l.27-.05.11-.32c.16-.27.11-.43-.16-.54l-.21-.05-.05-.21c0-.11-.05-.27-.11-.27-.16-.11-.27,0-.27.21,0,.05-.11.16-.27.21l-.21.11-.54-.21-.38.05c-.32.05-.54,0-.54,0,0,0-.21-.05-.48-.05-.05,0-.05-.05-.05-.11,0-.11.05-.38.21-.64h-.21v-.43c.11,0,.21,0,.43.05l.38-.7c.11-.21-.11-.43-.11-.43,0,0-.21-.21-.16-.21,0,0,.16,0,.38.05l.75.05c.21,0,.48.05.59.11.32.11,1.07.32,1.18.27,0-.05.11,0,.21.05l.16.11h.54c.27-.05.64-.11.86-.11l.38-.05.16-.21s.21-.21.38,0l.11.16.21-.16s.21-.16.27-.16.16-.16.32-.38c.27-.38.54-.64.8-.8.16-.11.43-.75.43-1.13,0-.11.05-.32.16-.48l.27-.38c0-.05.11-.11.16-.11.16,0,.38-.32.38-.59,0-.11.05-.16.11-.16l.16-.05v-.64l.27-.64c.16-.32.27-.64.27-.8,0-.05.05-.38.16-.64.11-.21.21-.75.27-1.02,0-.27.11-.7.16-.8.05-.16.11-.48.11-.91l.05-.7.27-.59v-.32c-.05-.32.05-1.5.16-2.04v-.38c-.05-.11-.05-.27.05-.54l.16-.48-.11-.16c-.05-.11-.05-.38-.05-.7,0-.7.05-1.66.21-2.52.05-.21.11-.38.11-.59s-.05-.48-.11-.91c-.05-1.23.11-5.26.32-6.11,0-.11.05-.43.05-.8l.05-1.61.05-.96-.21-.21-.11.11c-.11,0-.21.05-.27.05-.16,0-.43-.32-.43-.48,0-.11-.11-.21-.21-.32l-.21-.16v-1.29c0-.32,0-.54-.05-.75q-.11-.48.05-.48c.21,0,.21-.11.05-.38l-.16-.27.11-.21v-.38c-.05-.11-.05-.21-.05-.27l.05-.16.38.11c.16,0,.27.05.43.05.48,0,.91-.16,1.18-.48.05-.05.16-.05.21-.05l.21.05.11-.21c.05-.11.11-.16.16-.16,0,0,.27.11.54.27.27.16.59.27.7.38.75.16,2.04,1.29,2.68,2.36.43.64.86,1.56.86,1.82l.16.97-.05,1.02c0,.48-.05,1.07-.11,1.18s-.05.43-.05.75c-.05.32-.05.7-.11.91l-.16,1.61c-.05.64-.11,1.23-.16,1.29,0,0-.05.43-.05,1.02l-.38,2.95c-.11.64-.21,1.66-.27,2.74-.11,1.18-.16,1.99-.21,2.15-.05.05-.05.43-.11.8l-.05,1.18c-.21,1.07-.32,1.77-.32,2.31,0,.32-.05.86-.11,1.13l-.16.97-.21,1.18-.21,1.29c-.05.32-.11.59-.16.64l-.16.64c-.05.27-.16.59-.21.7,0,0-.21.43-.27.7-.32,1.23-1.23,2.84-2.09,3.75-.38.43-1.02.97-1.18.97l-.21.11c-.21.16-1.56.64-1.77.64-.16,0-.32.05-.32.05,0,0-1.18.21-1.82.21-.32,0-.59-.05-.59-.05-.05,0-.11-.05-.11-.11s-.05-.11-.11-.11c-.11,0-.21-.05-.32-.11l-.11-.05-.48.05c-.27.05-.59.16-.59.16-.21.11-.75.21-1.23.21-.27,0-.59,0-.75-.11Z"/>
  </g>
</svg>